<?xml version="1.0" standalone="no"?>
<!DOCTYPE svg PUBLIC "-//W3C//DTD SVG 1.1//EN" "http://www.w3.org/Graphics/SVG/1.1/DTD/svg11.dtd" >
<svg xmlns="http://www.w3.org/2000/svg">
<metadata></metadata>
<defs>
<font id="italiannoregular" horiz-adv-x="602" >
<font-face units-per-em="2048" ascent="1638" descent="-410" />
<missing-glyph horiz-adv-x="346" />
<glyph horiz-adv-x="2048" />
<glyph horiz-adv-x="2048" />
<glyph unicode="&#xd;" horiz-adv-x="2048" />
<glyph unicode="&#x9;" horiz-adv-x="0" />
<glyph unicode=" "  horiz-adv-x="346" />
<glyph unicode="&#x09;" horiz-adv-x="346" />
<glyph unicode="&#xa0;" horiz-adv-x="346" />
<glyph unicode="!" horiz-adv-x="604" d="M207 33q-3 3 15.5 17t39 26t23.5 10t10.5 -6.5t10.5 -6t11 -6t11 -4.5t11.5 -2t12.5 0q10 2 15 -0.5t2.5 -9t-13.5 -16.5q-5 -4 -18.5 -15.5t-20.5 -17t-17.5 -10.5t-18.5 -4q-40 3 -74 45zM344 260q1 2 117.5 304t167.5 433q32 93 39 109q105 24 161 70q4 3 10 -5.5 t8 -18t-1 -13.5q-12 -9 -82 -131q-315 -613 -365 -725q-8 -16 -37 -26q-19 -7 -18 3z" />
<glyph unicode="&#x22;" horiz-adv-x="344" d="M218 895q0 2 1 4q36 92 76 275q-1 20 62 54q62 32 74 22q2 -1 1 -5q-12 -34 -34.5 -83t-38 -79t-50.5 -95t-41 -77q-18 -32 -40 -34q-15 -1 -10 18zM432 889q0 5 2 10q36 92 76 275q-1 20 63 54q62 32 73 22q2 -1 1 -5q-6 -20 -15 -42.5t-22 -50t-22.5 -47t-27.5 -53 t-25.5 -47.5t-27.5 -50.5t-24 -43.5q-15 -31 -37 -34q-15 -2 -14 12z" />
<glyph unicode="#" horiz-adv-x="1185" d="M27 389q-9 0 18 34q36 43 53 40q25 -4 224 -8q58 99 118 188q-201 0 -280 -6q-11 -2 17 32q35 44 52 42q65 -9 250 -9q160 241 246 322q7 7 68 -14l12 -6q-81 -76 -238 -304h88q115 0 195 2q155 234 246 322q9 7 70 -15l12 -5q-85 -80 -238 -302q44 1 99.5 2t90.5 2t48 1 q10 0 -20 -35q-35 -39 -52 -39q-61 5 -209 8l-121 -184q202 0 268 4q10 0 -20 -35q-34 -40 -51 -39q-25 2 -236 6q-112 -175 -186 -301q-7 -13 -36 -9q-16 2 -16 9q0 1 1 2q34 89 157 301q-59 2 -139 2h-151q-11 -18 -189 -305q-4 -7 -17.5 -9t-24.5 1t-9 10q29 79 160 303 q-212 -4 -260 -8zM403 455h291q73 121 117 188q-40 0 -95.5 1t-64.5 1h-123q-29 -43 -125 -190z" />
<glyph unicode="$" horiz-adv-x="641" d="M102 301q0 110 80 160q13 7 19 -4q3 -5 0 -8q-15 -18 -25 -46q-22 -69 10 -131q34 -67 99 -92q56 154 133 344q-32 36 -52.5 75.5t-28.5 84t9 92t60 90.5q78 78 174 78h4q31 71 43 103q6 13 32 19q16 2 15 -5l-47 -119q50 -5 79 -28t29 -76q0 -56 -37 -136 q-11 -20 -29 -25q-13 -4 -13 8q0 2 1 5q18 85 2 133q-19 46 -55 60l-96 -265q9 -10 23.5 -25.5t24.5 -27.5t17 -22q56 -74 56 -150q0 -110 -91 -187t-206 -79q-46 -127 -66 -197q-1 -2 -21.5 -11t-40 -16t-18.5 -3q20 67 80 231q-73 11 -118.5 54t-45.5 116zM344 166 q37 0 55 4q52 9 91.5 56t39.5 110q0 74 -73 147zM422 739q8 -32 49 -80q26 68 92 234q-60 5 -107 -41.5t-34 -112.5z" />
<glyph unicode="%" horiz-adv-x="1294" d="M145 -57q0 3 2 6q145 182 330 393t417.5 442t391.5 342q-312 -47 -530 0q26 -9 36.5 -30.5t7.5 -45.5t-14 -53.5t-21.5 -49t-21.5 -38.5q-35 -59 -104.5 -138t-140.5 -128q-66 -47 -125 -47q-38 0 -60 18t-27.5 44.5t-2 59.5t12 60.5t19.5 50.5q12 27 52 91 q24 41 92.5 122.5t97.5 81.5q12 0 23 -5.5t10 -16.5q-1 -9 -29 -45.5t-76 -98.5t-79 -108l-8 -14q-9 -14 -15 -25.5t-16.5 -31.5t-16.5 -36t-12.5 -36t-7 -34.5t2.5 -27.5t14.5 -20t29.5 -7q33 0 82 39q84 63 157.5 176.5t83.5 202.5q11 98 -65 125q28 28 55 21 q146 -43 420 -27q174 9 369 64q35 -4 15 -46q-19 -39 -57 -62q-13 -7 -24 -9q-123 -84 -301 -244t-352 -336t-313 -323.5t-234 -255.5q-13 -15 -48 -11q-21 2 -20 11zM770 71.5q1 39.5 10 76t23 65.5q13 29 51 90q24 41 92.5 123t97.5 82q12 0 24 -6t11 -17 q-1 -9 -29.5 -46.5t-76 -99t-78.5 -106.5q-7 -11 -15.5 -26t-24.5 -44.5t-24 -55t-12.5 -50.5t7 -40t38.5 -15q33 0 82 39q83 61 157.5 175.5t84.5 203.5q11 98 -64 125q-6 1 -9.5 3.5t-3 5.5t2.5 5.5t5 4t5 1.5q61 0 116 -36t48 -95q-8 -61 -57 -143q-36 -58 -105.5 -136.5 t-138.5 -127.5q-70 -47 -127 -47q-46 0 -68.5 26t-21.5 65.5z" />
<glyph unicode="&#x26;" horiz-adv-x="1245" d="M229 184q16 115 131 215q51 44 110 81.5t149.5 86.5t119.5 66l2 2q-33 112 -14 213q21 95 101 129q65 28 122 -2q59 -30 52 -98q-1 -8 -3 -17q-24 -96 -188 -209q20 -51 109 -229h274h14.5h15.5h14t14.5 1t12.5 2t12.5 2.5t9.5 3.5t9 5q3 4 8 1.5t1 -9.5l-37 -55 q-7 -13 -17.5 -15t-42.5 2l-108 13q-17 -84 -68 -158q82 -140 142 -221q42 -54 82.5 -87t74 -46.5t68.5 -9.5t61.5 16t56.5 39t50.5 50.5t46.5 57.5q12 17 19 5t-5 -29q-54 -75 -103.5 -123.5t-104 -74.5t-107.5 -19.5t-111.5 50.5t-118.5 128q-40 55 -114 188 q-67 -70 -152 -123q-111 -70 -219.5 -90.5t-187 2.5t-127.5 78q-69 75 -54 178zM350.5 168q3.5 -53 38.5 -90q41 -41 116.5 -54.5t151 -4t138.5 33.5q80 32 155 121q-61 115 -108 213q-36 -2 -71.5 -9t-72 -21.5t-57.5 -42t-18 -64.5q0 -12 6 -34t10 -30l-16 -12 q-5 8 -18 30t-21.5 36t-16 31t-8.5 26q-5 64 29 92q51 44 235 35q-19 44 -75 186l-19 -12q-80 -50 -116.5 -73.5t-98.5 -73.5t-98 -95q-32 -40 -50.5 -87.5t-15 -100.5zM786 854q-15 -68 17 -180q146 103 170 198q13 57 -31 82q-41 24 -90 -2q-50 -28 -66 -98zM938 387 l72 -133q33 49 61 123q-84 8 -133 10z" />
<glyph unicode="'" horiz-adv-x="217" d="M218 895q0 2 1 4q36 92 76 275q-1 20 62 54q62 32 74 22q2 -1 1 -5q-12 -34 -34.5 -83t-38 -79t-50.5 -95t-41 -77q-18 -32 -40 -34q-15 -1 -10 18z" />
<glyph unicode="(" horiz-adv-x="548" d="M100 160q-3 261 142 520q107 189 316.5 354.5t432.5 243.5q119 42 228 51q11 2 18 -16q6 -16 -4 -17q-118 -20 -240.5 -73t-234 -130.5t-210 -180t-170 -216.5t-111.5 -246t-38 -262q1 -44 12 -87t33.5 -82t63 -61t92.5 -17l37 8q14 1 13 -10q-2 -18 -27 -29l-7 -2 q-149 -48 -246 20.5t-100 231.5z" />
<glyph unicode=")" horiz-adv-x="1038" d="M-88 -76q-7 16 2 17q142 23 288.5 92.5t275 177t229.5 238t158.5 287.5t54.5 313q-1 44 -12 86.5t-33.5 81.5t-63 61t-92.5 18l-39 -8q-14 -1 -13 10q2 17 26 28l9 3q148 46 245 -22.5t100 -229.5q6 -261 -142 -520q-107 -191 -315.5 -355.5t-433.5 -242.5 q-115 -42 -228 -51q-9 -2 -16 16z" />
<glyph unicode="*" horiz-adv-x="1038" d="M143 725l377 135v4l-293 137l97 105l231 -203l8 4l64 340h127l-146 -340l6 -4l357 205l33 -104l-377 -140l-2 -4l295 -135l-99 -104l-231 200l-8 -4l-62 -338h-127l144 338l-7 4l-354 -200z" />
<glyph unicode="+" horiz-adv-x="667" d="M176 395q-9 0 19 34q36 43 53 40q47 -8 268 -8q68 170 86 233q4 9 33.5 21.5t56.5 19t25 0.5q-62 -127 -127 -274q181 0 328 6q10 0 -20 -35q-35 -40 -52 -39q-159 7 -281 10l-2 -8q-91 -216 -102 -268q-5 -19 -76 -39q-40 -11 -37 -4q37 70 146 319q-228 0 -318 -8z" />
<glyph unicode="," horiz-adv-x="264" d="M73 -167q1 1 1 3q4 13 16 23q32 28 52 64t22 61q2 26 -11.5 45.5t-39.5 25.5l8 23q27 4 55 26q5 3 11.5 9.5t11.5 11t8 4.5q57 -8 39 -86q-14 -71 -49 -117.5t-97 -89.5q-28 -18 -27 -3z" />
<glyph unicode="-" horiz-adv-x="509" d="M156 297q-8 -2 15 28q21 28 30 27q18 -3 133 -8q51 0 162 6q4 0 -4.5 -14t-21.5 -28t-19 -13l-45 4q-44 4 -76 4q-113 0 -174 -6z" />
<glyph unicode="." horiz-adv-x="305" d="M68 33q-3 4 35.5 30t43.5 23q2 -1 10.5 -6.5t10.5 -6.5l11 -5.5t11.5 -4.5t12 -2.5t12.5 0.5q17 4 16 -6q0 -8 -12 -20q-5 -4 -15 -12.5t-16.5 -13.5t-15 -11t-16.5 -8.5t-15 -1.5q-39 3 -73 45z" />
<glyph unicode="/" horiz-adv-x="772" d="M-1 -53q0 1 1 2q228 317 553 728t475 572q4 5 40.5 6t70 -1t30.5 -5q-140 -149 -545.5 -636t-535.5 -666q-10 -15 -57 -12q-34 1 -32 12z" />
<glyph unicode="0" horiz-adv-x="753" d="M137 130q-28 134 44 327q64 174 161 270l12 12q25 23 77.5 65t70.5 58q25 21 69 32t82 11q83 0 127.5 -59t44.5 -150.5t-24.5 -193.5t-75 -196.5t-111.5 -151.5q-20 -19 -66 -54t-71 -59q-29 -28 -77.5 -42.5t-86.5 -14.5q-145 0 -176 146zM244 367q-19 -101 0.5 -183 t83.5 -114q86 -42 170 19t149 210q50 112 69 216.5t-3 188t-90 111.5q-62 25 -122 -1t-106 -86.5t-84 -149.5q-48 -110 -67 -211z" />
<glyph unicode="1" horiz-adv-x="497" d="M16 -4l19 27q35 -8 97.5 7.5t86.5 59.5q24 46 113 316l69 215q21 65 26 98.5t1 41t-16 13.5q-18 10 -93 -49q-14 -10 -37.5 -29t-29.5 -22l16 55q19 12 71.5 42.5t86.5 51.5q25 17 154 97q20 13 24 5t-6 -28q-62 -123 -145 -393l-31 -101q-75 -222 -88 -313 q-5 -30 25.5 -47.5t60.5 -21t51 -1.5l-22 -24q-42 11 -193 16q-54 -2 -240 -16z" />
<glyph unicode="2" horiz-adv-x="677" d="M43 -10q169 147 328 299q4 3 37.5 34.5t45 43t44.5 43.5t49 49.5t44.5 48t44.5 52t35.5 48t31 50t18.5 44.5q22 69 -15 114t-122 44q-73 0 -127 -33q-22 -14 -45.5 -46t-30.5 -60q-20 -66 -16 -82l-43 -23q11 36 28.5 115.5t18.5 99.5q0 25 37 41q58 21 155 25l45 2 q96 3 150 -20q38 -17 57.5 -49.5t18.5 -70t-13 -79.5q-20 -69 -94 -150q-42 -44 -114.5 -106.5t-122 -101.5t-148.5 -114.5t-113 -86.5q-52 -40 -27 -45q3 -1 10 -2h3q277 -20 352 24q29 16 70.5 61t52.5 70l19 -6q-9 -12 -38 -59t-44 -78q-22 -47 -49 -68t-74 -18 q-163 10 -242 4q-70 -4 -217 -14z" />
<glyph unicode="3" horiz-adv-x="643" d="M72 53q23 47 53 166l45 19q-5 -7 -27 -80q-6 -27 2 -59t23 -46q37 -37 123 -33q80 3 143.5 42t99.5 92t56 118q11 34 12.5 62t-7 48t-22 35.5t-35.5 25t-44 16t-52 9.5t-54.5 4t-55.5 1l26 33l37 6q247 49 291 190q22 69 -14.5 114t-122.5 44q-74 0 -125 -33 q-23 -13 -46.5 -45.5t-31.5 -60.5q-20 -66 -16 -82l-43 -23q11 36 28.5 115.5t18.5 99.5q0 25 37 41q58 21 155 25l45 2q96 3 150 -20q50 -23 65 -71t-2 -91q-22 -67 -83 -119.5t-154 -83.5q-46 -15 -16 -21q5 -1 18 -3l6 -1q109 -10 139 -81q22 -51 -10 -142.5t-72 -140.5 q-102 -127 -293 -141q-57 -4 -127.5 2.5t-103.5 25.5q-28 17 -16 41z" />
<glyph unicode="4" horiz-adv-x="825" d="M95 258q4 5 7 7.5t15 10.5q20 13 48 40t71.5 74.5t56.5 60.5l239 251q30 32 64.5 73.5t53 61t32.5 23.5q7 2 96 40q55 24 54 7q0 -4 -3 -10q-36 -70 -66.5 -153t-80.5 -240l-31 -101l-22 -67q81 7 104 22q32 16 77 61t56 68l21 -6q-60 -81 -86 -135q-24 -47 -53.5 -68.5 t-79.5 -17.5q-9 0 -29.5 1t-30.5 1q-40 -143 -45 -172q-3 -23 13.5 -39t42.5 -22t47.5 -8t35.5 -1l-24 -24q-36 11 -193 16q-53 -2 -237 -16l18 27q20 -2 53 -1t73 19.5t57 48.5q18 32 67 174h-117q-127 -4 -274 -12q-18 -1 -26 0t-4 6zM262 371q-31 -34 10 -37 q144 -9 265 -4q23 71 24 76l70 215q48 147 28 163q-16 -10 -53.5 -47t-90 -93t-94.5 -101t-95.5 -103.5t-63.5 -68.5z" />
<glyph unicode="5" horiz-adv-x="677" d="M72 53q23 47 53 166l45 19q-5 -7 -27 -80q-6 -27 2 -59t23 -46q37 -37 123 -33q108 4 187.5 76t109.5 170q37 121 -10 176q-41 50 -127 50q-102 0 -193 -31q-21 -7 -21 -2q0 4 19 39q42 86 104 241l52 131q5 12 11.5 17t12 4.5t17 -2.5t20.5 -2q278 4 385 4 q23 -1 -14 -65q-27 -50 -31 -58q-29 -74 -47 -109l-29 7q11 16 23 39t18 38l6 15q33 59 -57 59q-192 0 -235 -4q-40 -3 -54 -29q-85 -165 -135 -278q33 17 89 28t97 11q293 0 209 -262q-42 -135 -142.5 -212.5t-236.5 -86.5q-57 -4 -127 2.5t-104 25.5q-28 17 -16 41z" />
<glyph unicode="6" horiz-adv-x="688" d="M128 195q0 60 12.5 118.5t35.5 122.5q26 72 61.5 138.5t84.5 129t105.5 108.5t128.5 73.5t149 27.5q84 0 131 -24q10 -4 14.5 -12t-0.5 -21q-9 -17 -25 -66t-24 -81l-37 -17q2 4 24 70q6 24 0 51t-18 39q-28 25 -82 25q-101 0 -197.5 -86t-148.5 -193q-41 -80 -55 -141 q24 18 68 41t57 32q46 27 137 27q65 0 108.5 -26t61 -67.5t17 -93.5t-18.5 -102.5t-51 -96.5t-76 -75q-17 -11 -56.5 -32t-62.5 -37q-24 -17 -67 -26t-78 -9q-71 0 -117 27.5t-63.5 71.5t-17.5 104zM231 228.5q-7 -59.5 18.5 -108t86.5 -67.5q81 -23 153 15q85 47 118 140 t16 173q-14 72 -75.5 103t-148.5 -3q-41 -19 -75 -52.5t-54 -76.5q-32 -64 -39 -123.5z" />
<glyph unicode="7" horiz-adv-x="634" d="M102 4q2 18 157.5 198t311 365.5t158.5 216.5q3 26 -35 29q-41 4 -237 4q-53 0 -77.5 -12.5t-37.5 -38.5q-35 -55 -45 -92l-37 -6l55 100q6 10 21.5 46.5t29 56t29.5 20.5q148 0 426 -4q10 0 39 6q39 8 39 1q-1 -5 -6 -11q-86 -96 -225 -262.5t-288.5 -366t-156.5 -254.5 q-25 5 -56.5 4t-44.5 -3t-20 3z" />
<glyph unicode="8" horiz-adv-x="718" d="M90 164q47 148 283 278q-32 21 -51.5 41.5t-33.5 48.5t-12.5 60.5t13.5 77.5q32 104 130.5 177t198.5 73q92 0 136.5 -48.5t15.5 -140.5q-39 -118 -246 -242q30 -22 47.5 -37.5t37.5 -39t27.5 -47t8 -56t-11.5 -69.5q-37 -116 -143 -187t-224 -71q-93 0 -148 46.5 t-28 135.5zM178 180q-23 -72 0.5 -116t93.5 -44q79 0 144.5 46t91.5 124q11 35 10.5 65.5t-8.5 52.5t-26.5 44t-36 36.5t-44.5 33.5q-186 -118 -225 -242zM388 672q-1 -23 6 -42.5t16 -35.5t25 -32t29 -27t32 -25q67 42 130.5 106.5t82.5 122.5q21 65 -9.5 106.5t-93.5 41.5 q-71 0 -128.5 -46t-80.5 -120q-8 -26 -9 -49z" />
<glyph unicode="9" horiz-adv-x="688" d="M92 51q30 70 49 146l37 16q-4 -4 -24 -70q-6 -23 0 -49.5t18 -38.5q27 -24 82 -24q101 0 196.5 85t149.5 193q47 106 55 140q-25 -18 -71.5 -43t-53.5 -29q-46 -27 -139 -27q-77 0 -124 36t-56.5 92t2.5 118.5t50 120.5t89 92q20 15 59.5 36.5t57.5 33.5q50 34 147 34 q71 0 117 -27.5t63.5 -71t17.5 -103.5t-13.5 -118t-36.5 -122q-26 -72 -60.5 -138.5t-83.5 -129.5t-105.5 -109t-128.5 -74t-150 -28q-83 0 -132 24q-22 17 -12 35zM302.5 590.5q-6.5 -60.5 21 -109t92.5 -65.5q75 -21 146.5 19.5t109.5 117.5q32 65 39 124.5t-18.5 107.5 t-86.5 67q-79 25 -149.5 -11t-114.5 -124q-33 -66 -39.5 -126.5z" />
<glyph unicode=":" horiz-adv-x="315" d="M121 35q-3 3 15.5 17t39 26.5t23.5 11.5q2 -1 9 -5.5t9 -5.5t9 -5t9.5 -4t10 -3t10 -1.5t10.5 0.5q16 2 18 -5t-14 -22q-53 -49 -75 -49q-36 2 -74 45zM268 547q-3 3 15.5 17t39 26.5t23.5 11.5q46 -28 68 -24q10 2 15 -0.5t2.5 -9.5t-13.5 -17q-5 -4 -15 -12.5 t-16.5 -13.5t-15 -11t-16.5 -8.5t-15 -1.5q-34 0 -72 43z" />
<glyph unicode=";" horiz-adv-x="315" d="M76 -238l4 17q4 11 16 22q77 67 94 150q4 25 -10.5 45.5t-40.5 26.5l8 22q20 3 56 27l9.5 9.5t11.5 10.5t9 4q57 -8 39 -86q-32 -138 -168 -231zM295 547q-3 4 35.5 30.5t44.5 24.5q2 -1 9 -5.5t9 -5.5t9 -5t9.5 -4t10 -3t10 -1.5t10.5 0.5q18 4 16 -7q-1 -9 -12 -20 q-4 -3 -15 -12t-17 -14t-15 -11t-16 -8.5t-14 -1.5q-36 0 -74 43z" />
<glyph unicode="&#x3c;" horiz-adv-x="600" d="M180 410l10 34q220 119 478 312q0 -24 -13 -47q-31 -39 -151.5 -124t-186.5 -124q-12 -9 -4 -17q107 -73 168 -137q1 -1 9 -8.5t13 -13t14 -15t15.5 -17.5t14 -18t11 -19t6 -18t1 -16.5t-7.5 -13.5q-1 -1 -28 -27.5t-31 -34.5h-13q2 25 -26 62q-50 69 -128.5 137 t-150.5 105z" />
<glyph unicode="=" horiz-adv-x="704" d="M125 256q-9 0 19 34q36 43 53 40q63 -8 229 -8q128 0 305 6q10 0 -20 -35q-35 -40 -52 -39q-127 10 -237 10q-201 0 -297 -8zM176 504q-10 -2 19 33q36 44 53 41q36 -6 229 -11q69 0 305 8q10 0 -20 -35q-35 -39 -51 -38q-128 10 -238 10q-201 0 -297 -8z" />
<glyph unicode="&#x3e;" horiz-adv-x="600" d="M129 168q-15 34 137 139q87 63 226 137q13 9 2 17q-49 39 -133 124t-99 124q-3 21 8 47q163 -184 344 -312l-4 -34q-89 -38 -196 -105.5t-185 -136.5q-45 -36 -53 -62h-12q0 10 -35 62z" />
<glyph unicode="?" horiz-adv-x="888" d="M207 33q-3 3 15.5 17t39 26t23.5 10t10.5 -6.5t10.5 -6t11 -6t11 -4.5t11.5 -2t12.5 0q10 2 15 -0.5t2.5 -9t-13.5 -16.5q-5 -4 -18.5 -15.5t-20.5 -17t-17.5 -10.5t-18.5 -4q-40 3 -74 45zM317 360q-3 53 30.5 106t82.5 91l340 270q53 43 72.5 100t1 106t-69.5 71 q-47 22 -121 12t-123 -45q-29 -20 -64.5 -80.5t-47.5 -111.5q0 -18 -21 -29q-20 -9 -20 6v4q39 172 37 213q0 31 45 53q24 12 82.5 23t107.5 14l58 4q152 12 223.5 -39.5t48.5 -175.5q-14 -76 -62.5 -132.5t-114.5 -92.5t-134.5 -67t-135 -76t-102.5 -101q-97 -150 -39 -217 l-22 -30q-46 49 -52 124z" />
<glyph unicode="@" horiz-adv-x="1421" d="M37 381q1 128 46.5 242t124 198t181.5 145t222.5 91t242.5 28q87 -1 166 -15t150.5 -44.5t123 -74t79 -107.5t22.5 -142q-8 -118 -65 -208t-150.5 -143.5t-209 -80t-249.5 -26.5q-49 0 -49 41q0 66 80 196q-72 -78 -152 -143q-102 -90 -184 -90q-37 0 -37 43v16 q15 115 96 245t178 206q72 53 154 53l235 -2q11 0 11 -8q0 -6 -6.5 -11.5t-12.5 -5.5t-12 -2t-10.5 -5t-10.5 -8.5t-9.5 -9t-9.5 -11t-8 -10.5t-8 -11l-5 -8q-52 -85 -116 -209.5t-67 -177.5q-2 -37 61 -40q87 -5 197 53q147 77 208 211q34 77 34 163q0 84 -36 148 t-97.5 100.5t-135.5 54t-159 16.5q-131 0 -258 -50t-225 -135.5t-159.5 -209.5t-62.5 -262q0 -165 115.5 -271t286.5 -106q341 0 543 217q35 36 52 17q16 -18 -3 -52q-9 -17 -25 -30q-119 -107 -248.5 -145t-318.5 -38q-79 0 -151 13.5t-138 44.5t-114.5 77t-77.5 116 t-29 157zM481 340q0 -25 19 -25q39 0 128 89t162.5 194.5t73.5 146.5q0 39 -49 39q-53 0 -129 -71q-53 -50 -129 -181.5t-76 -191.5z" />
<glyph unicode="A" horiz-adv-x="1572" d="M43 96q2 35 39 115q16 31 26 29q8 -2 1 -17q-28 -55 -28 -94q0 -6 1 -12q5 -42 34.5 -62t80.5 -20q242 0 718 442q-38 1 -135 6.5t-137 5.5q-156 0 -207 -51q-20 -20 -32 -60q-6 -21 -6 -39q0 -16 5 -30q-1 0 -16 2.5t-26 9.5t-15 21q-5 11 -2 23t4 20.5t9.5 18 t13.5 15.5t16.5 13.5t19 12t21.5 11t22 10t21.5 9t20.5 8.5q152 66 284 66q83 0 209 -6q134 129 311 317q156 163 318 207h-113q-326 0 -436 -94q-49 -43 -60 -100q-3 -15 -3 -27q0 -35 24 -49q8 -5 -11 -15q-15 -8 -22 -4q-20 13 -36 57q-12 34 -12 58q0 8 1 14 q6 43 33.5 77.5t63 56t91 36.5t98.5 22.5t107.5 11.5t97 4.5t84.5 0.5h9h223q4 0 2 -2q149 68 205 68q20 0 31 -13q3 -3 3 -6q0 -5 -12 -8q-15 -1 -29 -1.5t-26.5 -2t-31.5 -13.5t-42 -36q-68 -68 -212.5 -322t-235.5 -456q-60 -146 -70 -211q-3 -20 -4 -36q0 -54 40 -54 q5 0 11 1q11 1 25 7q49 20 111 78q70 66 135 157q11 15 19.5 8t-3.5 -24q0 -1 -17 -23.5t-27.5 -36t-32 -39.5t-40 -45t-42 -40.5t-48.5 -38.5t-49 -27q-37 -16 -75 -18q-2 0 -4 -1q-35 1 -65 21q-32 22 -40 66q-4 19 -4 41q0 93 67 235q87 182 217.5 419t192.5 322 q-53 -2 -149.5 -57t-172.5 -133q-48 -49 -160.5 -174.5t-164.5 -181.5q122 -4 188 -4q87 0 148 30q-1 -3 -4 -9t-13 -20.5t-22.5 -26.5t-33 -22t-44.5 -12q-75 -5 -155 -5q-62 0 -128 3q-107 -110 -200.5 -194.5t-201.5 -164t-213 -122.5t-198 -43q-66 0 -104 38 q-32 32 -32 88q0 10 1 21z" />
<glyph unicode="B" horiz-adv-x="1150" d="M-2 -30q-2 2 -2 4q0 3 4 6q83 14 131 98q102 171 164 291l197 362q35 63 82 160t57 115q25 48 121 81q-26 1 -54 1q-66 0 -142 -6q-108 -10 -209 -41t-126 -78q-20 -35 -20 -73q1 -4 1 -8q2 -42 31 -61q9 -4 -3 -12q-9 -6 -15 -2q-19 10 -45.5 50.5t-32.5 66.5 q-17 32 -6 57t13.5 44t29.5 33t41.5 23.5t49.5 16t54.5 9.5t55 5t51.5 2h45h8q42 0 149 1t156 1q27 2 62 2h36q58 -2 111.5 -7t103 -28t74.5 -61q27 -41 28 -92q0 -2 -1 -6q-2 -54 -21 -102.5t-49 -88.5q-40 -50 -98 -88q-67 -47 -151 -65q-3 0 -3.5 -6.5t3.5 -6.5 q4 -1 19 -2.5t32.5 -4t30.5 -5.5q74 -16 120.5 -63.5t46.5 -120.5q0 -125 -92 -223.5t-221 -145.5q-98 -37 -225 -37q-184 0 -307 64q-22 11 -35 15.5t-36 2.5t-50 -16q-9 -4 -53 -31t-74 -37q-9 -2 -15 -2q-15 0 -22 9zM303 99q10 -28 47 -56q47 -35 118 -44q33 -4 64 -4 q38 -1 72 5q64 10 123 33q121 46 202 143t81 225q0 61 -36 97t-94 44q-45 6 -86 6h-24q-52 -2 -104 -13q-48 -8 -103 -23q-3 1 -3 4q0 11 55 54q4 3 6 5q23 23 38 23q57 0 95.5 2t83 9.5t75 22.5t61 39t54 61.5t41.5 88.5q20 60 20 114q0 57 -33 98q-32 40 -89 48 q-18 2 -38 2q-33 0 -70 -6q-59 -10 -85 -43q-36 -47 -76.5 -115t-66.5 -118.5t-68 -136t-59 -117.5q-190 -371 -193 -377q-12 -28 -12 -49q0 -12 4 -22z" />
<glyph unicode="C" horiz-adv-x="1079" d="M78 276q0 192 106.5 375.5t274.5 311.5q97 73 221 117t244 44q113 0 188 -37q90 -43 90 -108q0 -10 -2 -21q-5 -21 -39.5 -76t-44.5 -85q-4 -11 -28 -16q-11 -2 -12 3q0 1 1 2q29 46 35 120q1 13 1 26q0 57 -23 96q-26 44 -91 58q-39 8 -76 8q-25 0 -51 -4 q-62 -10 -114 -29q-119 -43 -228 -135q-146 -128 -238.5 -308t-92.5 -337q0 -83 30.5 -143t82.5 -90q51 -32 115 -46q48 -11 99 -10q18 0 36 1q72 5 138.5 19t126.5 37q112 43 199.5 103.5t159.5 150.5q14 18 20 7q2 -3 2 -7q0 -14 -18 -37q-130 -173 -346 -262 q-56 -23 -122.5 -38.5t-140.5 -21.5q-39 -3 -77 -2q-34 0 -68 2q-72 5 -136.5 28t-114 60.5t-78.5 100t-29 143.5z" />
<glyph unicode="D" horiz-adv-x="1282" d="M-4 -27l4 7q6 2 10 2l3 1h1l4 1q3 0 9 2q63 21 104 92q58 96 114 196t140 257t107 200q19 33 51.5 98t40.5 80q25 60 47 97q30 51 121 81h-50q-52 0 -115 -5t-142.5 -17t-141.5 -38.5t-82 -63.5q-20 -38 -20 -72q0 -24 9.5 -41t18.5 -24.5t9 -8.5q0 -4 -6 -8t-11 -4 q-17 0 -47.5 48t-36.5 71q-6 21 -6 45q0 30 14 53.5t34 38.5t53.5 26t59.5 16t65.5 7.5t59 3t50.5 0.5q69 0 204.5 5t202.5 5q84 0 153 -7.5t141.5 -31t121 -62.5t80 -106t31.5 -157q0 -102 -39 -214t-100 -204q-250 -375 -701 -375q-157 0 -278 62q-36 18 -62 18 q-38 0 -105.5 -43t-95.5 -43q-6 0 -15 3.5t-9 8.5zM299 123q0 -39 51 -80q61 -47 187 -47q227 0 408 129.5t269 343.5q62 156 62 279q0 157 -96 245t-256 88q-110 0 -150 -47q-29 -34 -96 -147q-28 -50 -56 -104t-65.5 -130.5t-52.5 -105.5l-133 -260q-7 -13 -19.5 -37 t-22.5 -43.5t-18 -36.5q-12 -28 -12 -47z" />
<glyph unicode="E" horiz-adv-x="978" d="M80 42q-10 16 -11 40q0 40 31 100q57 104 168 295t154 268q99 177 141 242q20 31 55 59t70 37q-182 -9 -258 -24q-151 -29 -186 -96q-20 -35 -19 -73q-1 -4 -1 -8q2 -42 32 -61q8 -4 -4 -12q-8 -6 -14 -2q-19 10 -45.5 50.5t-32.5 66.5q-6 23 -6 43q0 27 11 49 q20 38 53 57t93 29t94 11t88 1h9q69 0 199 3q129 3 199 3q6 0 14 1q68 0 186 -5q41 -2 63 -16q22 -16 27 -32q2 -6 2 -13q0 -15 -6 -35q-10 -32 -18.5 -48.5t-27.5 -50.5q-8 -15 -12 -22q-11 -21 -31 -25q-11 -2 -11 8q0 2 1 5q11 47 11 83q0 87 -64 107q-28 9 -109 9 q-46 0 -110 -3q-82 -6 -110 -43q-32 -45 -69.5 -105t-57.5 -93.5t-68 -116.5t-55 -96q-9 -23 16 -23q31 0 142 -2q67 -1 111 0h48q119 9 154 27q19 11 17 -4q-1 -23 -33 -53q-32 -31 -66 -31q-65 1 -192 5q-76 3 -141 2q-43 0 -81 -1q-21 -3 -29 -17q-12 -22 -34 -65.5 t-39 -73.5q-101 -193 -101 -264q0 -109 205 -113q427 0 629 256q8 11 13 -5q5 -12 -1 -19q-13 -16 -41 -51.5t-42 -53t-38.5 -45t-41.5 -42.5t-38.5 -29.5t-40.5 -20.5q-73 -22 -253 -28q-46 -2 -91 -2q-135 0 -274 14q-105 8 -133 52z" />
<glyph unicode="F" horiz-adv-x="1191" d="M65 216q0 7 1.5 16t6 13.5t11.5 4.5q4 0 4 -4q0 -8 -1 -24.5t-1 -24.5q0 -94 46.5 -145.5t121.5 -51.5q128 0 264 147q49 53 121.5 185.5t177.5 349t125 256.5q52 101 182 152q-71 0 -239 -11q-318 -20 -387 -121q-19 -30 -19 -61q0 -15 5 -31q14 -48 57 -69 q10 -5 -4 -15q-13 -7 -23 -4q-26 13 -62.5 57t-45.5 72q-10 27 -10 50q0 109 205 146q106 19 294 19h182q107 2 161 2h23q47 0 107 -2q75 -2 145 -6q53 -3 76 -21q17 -13 17 -37q0 -9 -2 -19q-8 -38 -17.5 -58t-36.5 -67q-5 -10 -8 -15q-9 -20 -29 -25q-13 -3 -13 8q0 2 1 5 q13 49 13 86q0 83 -64 104q-39 15 -102 15q-30 0 -66 -4q-110 -10 -162 -48q-18 -14 -36.5 -35t-39 -55t-35 -57.5t-37.5 -71t-31.5 -65t-33 -70.5t-26.5 -57q-9 -23 16 -23q24 0 134.5 -1t154.5 -1q66 0 88 -12t0 -53q-10 -21 -32 -54.5t-28 -50.5q-4 -12 -23 -16 q-7 -2 -8 1q0 1 1 3q26 62 26 94q0 33 -28 33h-320q-18 0 -28 -17q-7 -14 -46.5 -95t-56.5 -112t-51.5 -93t-66 -105t-66.5 -80q-54 -57 -121.5 -91t-136.5 -34q-66 0 -123 37.5t-84 108.5q-16 40 -16 116q0 3 -0.5 14t-0.5 18z" />
<glyph unicode="G" horiz-adv-x="1179" d="M66 -424q0 5 2 14.5t7.5 14t14.5 4.5q4 0 4 -4q0 -8 -2 -25t-2 -26q0 -92 58.5 -142.5t152.5 -50.5q245 0 434 238q42 51 78.5 107t60.5 97.5t53.5 108t42.5 98t43.5 111t41.5 106.5q-83 -121 -244.5 -207t-312.5 -86h-7q-80 0 -152 20q-75 22 -133.5 63t-93 108 t-34.5 151q0 192 106.5 375.5t274.5 311.5q97 73 221 117t244 44q113 0 188 -37q90 -43 90 -108q0 -10 -2 -21q-5 -21 -39.5 -76t-44.5 -85q-4 -11 -28 -16q-11 -2 -12 3q0 1 1 2q29 47 35 120q1 13 1 26q0 56 -23 96q-26 44 -91 58q-39 8 -76 8q-26 0 -51 -4 q-61 -9 -114 -29q-119 -43 -228 -135q-146 -128 -238.5 -308t-92.5 -337q0 -153 85 -230.5t214 -77.5h6q94 0 180 29q88 29 158 79.5t128.5 121t100.5 149.5t72 168h-211q-28 0 -54.5 -1.5t-68.5 -9t-71 -20t-50 -37.5q-18 -23 -18 -52v-9q0 -25 10 -45l-18 -12 q-6 10 -22 34.5t-24.5 41.5t-9.5 28q-1 8 -1 15q0 49 30 75q22 19 68 27.5t85 8.5t95.5 -2.5t68.5 -2.5h389l-22 -24q-83 0 -121 -48q-12 -16 -23 -33t-21 -39t-16 -36.5t-16 -42.5t-13.5 -39.5l-14 -46t-13.5 -43.5q-13 -44 -33.5 -122.5t-34 -125.5t-36 -115.5 t-45.5 -117.5t-55 -105.5t-73.5 -105.5t-92.5 -93q-67 -57 -165.5 -96t-180.5 -39q-86 0 -166 36.5t-113 105.5q-20 39 -20 114v14q-1 7 -1 11.5t1 7.5z" />
<glyph unicode="H" horiz-adv-x="1576" d="M10 235v11v8q0 6 1.5 15t6 13.5t11.5 4.5q4 0 4 -4q0 -8 -1 -25t-1 -25q0 -94 46.5 -144t121.5 -50q129 0 264 145q64 71 188 310q-170 -4 -268 -19q-19 -3 -8 12q19 27 73 59q30 17 46 19l190 -6q39 73 166 326q33 67 93.5 126t123.5 72q-35 -1 -108.5 -2.5t-118.5 -3 t-106.5 -9t-110.5 -21.5q-111 -28 -138 -84q-17 -32 -17 -66q0 -8 1 -16q5 -42 29 -60q8 -6 -5 -13q-8 -4 -14 -1q-19 10 -45.5 50.5t-32.5 66.5q-6 23 -6 43q0 27 11 49q20 38 53 57t93 29t94 10.5t88 1.5h9q42 0 112.5 -0.5t108 -1t85 1t78.5 3.5t53 5q18 4 21 -3t-4 -16 t-13 -9q-122 -12 -219 -183q-78 -136 -189 -356q21 -1 44.5 -2t35.5 -1t14 -1q31 0 96 -0.5t116.5 -0.5t88.5 1q25 0 73 6.5t73 17.5q218 415 299 519q10 4 71.5 32.5t102 42t72.5 13.5q20 0 31 -13q3 -3 3 -6q0 -5 -12 -8q-15 -1 -29.5 -1.5t-27.5 -2t-32 -13.5t-42 -36 q-87 -87 -281 -447t-225 -487q-8 -36 -8 -63q0 -85 78 -85q51 0 127 39q45 25 94 73t73.5 78.5t61.5 80.5q12 17 14 -1q2 -16 -6 -28q-125 -181 -249 -248q-54 -30 -144 -34h-7q-80 0 -126 66q-29 41 -29 89q0 32 13 68q45 114 155 329q-49 -45 -93 -45h-5q-94 9 -352 9h-99 q-57 -114 -82.5 -163t-73.5 -127t-89 -122q-53 -56 -125.5 -90.5t-141.5 -34.5q-66 0 -122.5 38t-83.5 107q-17 42 -17 117v14z" />
<glyph unicode="I" horiz-adv-x="747" d="M20 240q0 31 12 29q10 -4 11 -17q0 -94 46.5 -144.5t121.5 -50.5q128 0 264 146q30 33 57 66.5t53.5 72t45.5 66.5t44.5 74.5t38.5 69t39.5 77.5t34.5 72.5t37.5 80.5t36.5 78q66 138 164 203h-61q-27 0 -53 -1.5t-67.5 -6t-74.5 -15.5t-64.5 -27.5t-47.5 -44.5 q-13 -23 -14 -52q0 -5 1 -11q3 -34 25 -78l-21 -16q-5 9 -22 36.5t-27.5 46t-21 39.5t-11.5 32q-1 8 -1 16q0 62 36 94q28 23 84 33q54 10 99 10h5q48 0 115 -4t84 -4l328 2l-27 -31q-63 0 -137 -14q-52 -8 -115.5 -56t-105.5 -120l-19 -31q-17 -38 -53 -127t-67.5 -161.5 t-74 -160.5t-92.5 -165t-102 -133q-52 -57 -130.5 -95t-147.5 -38q-67 0 -123.5 37.5t-83.5 107.5q-19 47 -19 115z" />
<glyph unicode="J" horiz-adv-x="415" d="M-455 -80q0 29 10 29q8 0 10 -13q1 -2 1 -4q0 -94 47 -144t123 -50q127 0 262 145q172 188 317 516q9 20 78 189t109 256q4 8 11 24q41 94 66 124q42 49 144 89q-23 -1 -59.5 -4.5t-47.5 -3.5q-321 -8 -383 -100q-18 -28 -18 -61q0 -19 6 -39q17 -55 60 -76q11 -5 -3 -15 q-12 -8 -22 -4q-26 14 -64 57.5t-47 71.5q-9 26 -9 50q0 140 338 156q53 3 153 3h221h2q4 0 4 -2q0 -4 -12 -15q-15 -13 -21 -14q-41 -2 -77.5 -25t-66 -63t-47 -70t-38.5 -73q-55 -105 -205 -455q-6 -14 -37.5 -88t-38 -89t-33.5 -75t-39 -80.5t-38 -67.5t-46 -74 t-48 -63.5t-58 -68.5q-54 -57 -132.5 -96t-147.5 -39q-66 0 -122.5 38t-84.5 109q-17 43 -17 115z" />
<glyph unicode="K" horiz-adv-x="1146" d="M-2 -33q46 37 77 73.5t66 94.5l29 49q61 102 158 273.5t164 292.5l67 120q51 89 116.5 142.5t123.5 68.5q-180 -4 -283 -27t-141 -91q-16 -32 -16 -65q0 -8 1 -17q5 -42 29 -60q7 -5 -4 -13q-8 -5 -14 -1q-19 10 -45.5 50.5t-32.5 66.5q-6 23 -6 43q0 27 11 49 q20 38 53 57t93 29t94 11t88 1h9q201 0 252 8q5 1 9 1q18 0 23 -18t-8 -23q-4 -2 -10 -1q-11 3 -22 3q-38 0 -81 -32q-55 -40 -108 -132q-131 -222 -203 -355q-128 -237 -245 -471q-4 -8 -10 -22.5t-10.5 -25.5t-10.5 -21.5t-13.5 -15.5t-15.5 -3q-21 5 -41 5q-15 0 -30 -3 q-44 -8 -91 -49q-4 -4 -9 -3.5t-11 3.5q-4 2 -4 5q0 1 2 3zM467 520q182 167 479 350q16 10 103.5 65t146.5 88t117 58q69 29 131 29t112 -20q25 -7 49 -27.5t21 -42.5q0 -8 -8 -8q-7 0 -16.5 12t-28.5 24.5t-49 12.5q-68 0 -195 -53q-213 -90 -342 -162q-170 -94 -440 -289 q26 -69 85 -176.5t142 -208.5q39 -47 78 -73.5t73 -33.5q14 -3 28 -3q21 0 43 6q36 10 64.5 28t62 51t57 61t53.5 68q14 20 20.5 9t-8.5 -31q-62 -87 -115 -144t-110 -94q-56 -36 -108 -38q-2 0 -4 -1q-50 1 -104 33q-56 34 -112 107q-59 78 -106.5 163t-81 159t-37.5 81z " />
<glyph unicode="L" horiz-adv-x="1120" d="M7 -5q-1 6 -1 11q0 19 16 31q8 5 19 6q79 4 151.5 71.5t102.5 141.5l188 471q28 69 50.5 116t60 104t78 90.5t99.5 57t130 23.5q40 0 78 -7.5t71.5 -23t49.5 -43.5q11 -18 11 -41q0 -12 -3 -26q-4 -21 -37 -68t-45 -80q-4 -15 -18 -14t-9 15l2 4q29 44 35 104q1 12 1 23 q0 47 -22 86q-27 49 -87 49q-59 0 -113 -33.5t-92 -104.5l-379 -698q-89 -161 -170 -192h383h69h45h31h67t66.5 3t51.5 7t43.5 10.5t21.5 15.5q22 32 22 61q0 10 -3 19q-10 37 -53 58q-9 5 -3.5 13.5t15.5 2.5q26 -12 69 -64t52 -81q7 -20 7 -37q0 -31 -24 -52 q-37 -32 -123 -32q-134 0 -410.5 19t-334.5 22q-7 1 -14 1q-34 0 -70 -12q-43 -14 -66 -36q-2 -2 -3 -2q-4 0 -6 11z" />
<glyph unicode="M" horiz-adv-x="1699" d="M12 240q0 31 12 29q10 -4 11 -17q0 -94 46.5 -144.5t121.5 -50.5q130 0 262 146q30 33 57.5 66t54.5 72.5t46 66.5t44.5 74.5t38 69t39.5 77.5t35 72t38 81l36 78q75 164 213 205l2 2h-113q-326 0 -389 -94q-18 -29 -18 -61q-1 -19 5 -39q16 -55 60 -76q12 -5 -3 -15 q-12 -8 -21 -4q-26 14 -64 57.5t-47 71.5q-9 26 -9 50q0 140 338 156q53 3 153 3h221q14 2 -6 -17q-15 -13 -21 -14q-53 -11 -77 -56q-21 -40 -21 -118v-20q10 -430 16 -600v-12l711 749q82 86 144 128q56 38 114 39q7 0 14 -1q4 0 4 -3t-6 -10q-9 -13 -20 -14h-3 q-48 -1 -89 -37q-42 -38 -84 -106q-86 -142 -211 -402q-196 -408 -197 -539q0 -27 9 -42q10 -18 31 -17q14 0 34 7q62 25 118 78q25 23 51.5 53t43.5 51t32.5 41.5t16.5 21.5q11 15 16.5 3t-6.5 -29q-1 -2 -27 -35.5t-46 -57t-52 -57.5t-66 -60t-67 -40q-37 -16 -76 -18 q-3 0 -5 -1q-36 1 -68 21q-34 22 -43 66q-4 18 -4 39q0 20 4 42q6 46 29.5 107t38.5 96t49.5 105.5t37.5 77.5q102 216 162 315l-590 -623q-7 -38 -53 -57q-20 -8 -72 -70q-3 -2 -8.5 -1.5t-10.5 4t-3 6.5q52 67 55 186l2 49q4 102 6.5 238.5t2.5 222.5l1 86q0 90 49 149 q-80 -60 -122 -145q-21 -43 -69.5 -162t-90 -217t-109 -214.5t-135.5 -188.5q-52 -56 -131 -94.5t-147 -38.5q-67 0 -123.5 37.5t-83.5 107.5q-19 47 -19 115z" />
<glyph unicode="N" horiz-adv-x="1476" d="M12 240q0 29 10 29q8 0 10 -13q1 -2 1 -4q0 -95 52.5 -159t127.5 -64q70 0 141.5 34.5t130.5 96.5q44 49 85 107.5t69 107t62 122t52 115.5t52 127.5t49 120.5q32 81 88.5 137.5t126.5 69.5h-113q-326 0 -391 -94q-17 -28 -17 -60q0 -19 6 -40q17 -55 60 -76 q10 -5 -4 -15q-11 -8 -20 -4q-26 14 -64 57.5t-47 71.5q-9 27 -9 50q0 142 346 157q49 2 142 2h248q14 2 -10 -31q-22 -30 -33 -30h-9q-22 1 -54 -7q-40 -10 -58 -22q13 -148 83 -392.5t155 -457.5q29 69 93.5 244.5t116.5 314t121.5 278.5t125.5 193q31 28 77 42q25 7 47 8 q19 0 35 -6q35 -12 33 -50l-2 -74q0 -3 -14 -5q-3 0 -4 1q1 23 -19.5 36t-38.5 13h-2q-34 0 -75 -39q-42 -40 -86 -112.5t-85.5 -154t-85 -184t-75 -180t-65.5 -164t-46 -116.5q-20 -46 -20 -84q0 -13 2 -24q0 -5 3.5 -19t4.5 -20q6 -23 -14 -39q-23 -15 -45 -25 q-13 -5 -38.5 -30t-33.5 -37q-3 -4 -8 -4t-12 4q-4 3 -3 6q25 35 41 84q-19 100 -53 229t-62 219.5t-77 244.5t-68 216q-22 -15 -51 -106q-2 -5 -32.5 -85.5t-41.5 -107.5t-42 -103t-53 -118.5t-55 -105t-66.5 -112t-69.5 -91.5q-45 -56 -135.5 -94.5t-163.5 -38.5 q-66 0 -123.5 37.5t-85.5 107.5q-17 50 -17 115z" />
<glyph unicode="O" horiz-adv-x="1216" d="M14 299q0 61 17 134.5t52.5 154t85.5 158.5t121 148.5t154 124t189.5 85t222.5 31.5q245 0 358 -78.5t113 -245.5q0 -160 -68 -312.5t-182 -267.5t-272.5 -185.5t-329.5 -70.5q-461 0 -461 324zM123 281q0 -134 79.5 -204.5t256.5 -70.5q122 0 238.5 48.5t207.5 131.5 t161 188t107 223.5t37 231.5q0 133 -83 204t-267 71q-105 0 -216 -54.5t-202 -144.5t-164 -197t-114 -220t-41 -207z" />
<glyph unicode="P" horiz-adv-x="1107" d="M4 -30q-2 2 -2 4q0 3 4 6q83 14 131 98q97 163 166 291q52 99 195 362q37 67 86 167.5t53 107.5q25 48 121 81q-26 1 -54 1q-66 0 -142 -6q-108 -10 -209 -41t-126 -78q-19 -34 -19 -71v-10q3 -42 32 -61q8 -3 -3 -11q-8 -7 -14 -3q-19 10 -45.5 49.5t-34.5 67.5 q-17 32 -6 57t13.5 44t29.5 33t41.5 23.5t50 16t54.5 9.5t55 5t52 2h45h9q42 0 148.5 1t155.5 1q27 2 62 2h37q58 -2 111 -7t102.5 -28t74.5 -61q41 -70 42 -137q0 -9 -2 -19q-6 -76 -54 -142.5t-113 -116.5t-136 -77q-82 -32 -193 -42q-60 -6 -107 -5q-41 0 -72 4 q-12 2 8 23q19 19 31 18q24 -4 52 -4q16 0 33 2q47 4 95.5 9t98.5 25t93 48.5t79.5 77t58.5 111.5q19 50 19 98q0 45 -17 87q-34 87 -121 99q-18 2 -38 2q-33 0 -70 -6q-59 -10 -85 -43q-36 -47 -76.5 -115t-66.5 -118.5t-68 -136t-59 -117.5q-4 -9 -25 -46.5t-41 -75 t-46.5 -88.5t-47.5 -95.5t-38.5 -87t-25 -73.5t-1.5 -44q6 -14 -10 -11l-15 5l-18 5q-17 5 -23 5.5t-21.5 -1.5t-29.5 -9q-8 -3 -51.5 -30.5t-75.5 -37.5q-9 -2 -15 -2q-15 0 -22 9z" />
<glyph unicode="Q" horiz-adv-x="1226" d="M14 299q0 61 17 134.5t52.5 154t85.5 158.5t121 148.5t154 124t189.5 85t222.5 31.5q245 0 358 -78.5t113 -245.5q0 -182 -85 -352t-235 -292t-335 -167q27 -56 110 -181.5t156 -226.5q38 -52 90 -69q32 -10 62 -10q20 0 39 5q48 11 97.5 37t80 50t47.5 43q10 11 18 1 q3 -3 3 -7q0 -5 -5 -11q-27 -32 -74 -68t-109.5 -66.5t-123.5 -44.5q-24 -5 -48 -5q-37 0 -73 13q-59 20 -96 79q-148 239 -262 443q-61 -7 -109 -7q-461 0 -461 324zM123 281q0 -134 79.5 -204.5t256.5 -70.5q122 0 238.5 48.5t207.5 131.5t161 188t107 223.5t37 231.5 q0 133 -83 204t-267 71q-105 0 -216 -54.5t-202 -144.5t-164 -197t-114 -220t-41 -207z" />
<glyph unicode="R" horiz-adv-x="1232" d="M4 -30q-2 2 -2 4q0 3 4 6q83 14 131 98q97 163 166 291q52 99 195 362q37 67 86 167.5t53 107.5q25 48 121 81q-26 1 -54 1q-66 0 -142 -6q-108 -10 -209 -41t-126 -78q-19 -34 -19 -71v-10q3 -42 32 -61q8 -3 -3 -11q-8 -7 -14 -3q-19 10 -45.5 49.5t-34.5 67.5 q-17 32 -6 57t13.5 44t29.5 33t41.5 23.5t50 16t54.5 9.5t55 5t52 2h45h9q42 0 148.5 1t155.5 1q27 2 62 2h37q58 -2 111 -7t102.5 -28t74.5 -61q34 -57 34 -131q0 -16 -2 -33q-9 -94 -57 -156q-43 -55 -102 -98q-73 -53 -192.5 -82.5t-231.5 -34.5q83 -184 213 -346 q77 -94 168 -93q139 0 307 222q12 19 15 4q1 -4 1 -8q0 -15 -12 -30q-63 -87 -116.5 -145t-111.5 -96.5t-111 -42.5h-12q-48 0 -98 28q-56 32 -112 106q-59 79 -106.5 163.5t-82 159t-37.5 80.5q39 54 62 54q179 0 238 9q125 21 191 108q40 54 69 137q19 50 19 98 q0 45 -17 87q-34 87 -121 99q-18 2 -38 2q-33 0 -70 -6q-59 -10 -85 -43q-36 -47 -76.5 -115t-66.5 -118.5t-68 -136t-59 -117.5q-4 -9 -25 -46.5t-41 -75t-46.5 -88.5t-47.5 -95.5t-38.5 -87t-25 -73.5t-1.5 -44q6 -14 -10 -11l-15 5l-18 5q-17 5 -23 5.5t-21.5 -1.5 t-29.5 -9q-8 -3 -51.5 -30.5t-75.5 -37.5q-27 -6 -37 7z" />
<glyph unicode="S" horiz-adv-x="923" d="M82 154q-5 24 -5 48q0 47 19 98q29 76 80 114q3 2 8 -3t6.5 -10.5t-2.5 -9.5q-32 -29 -38 -77q-2 -13 -1 -26q0 -33 10 -65q14 -44 38 -80q46 -66 130 -108t171 -47q12 -1 23 -1q52 -1 95 15q53 18 87.5 54t52.5 84q16 42 17 91q-1 7 -1 14q-2 58 -24 117 q-25 69 -100.5 194t-86.5 146q-39 69 -39 149q0 85 49 155q45 63 121 101.5t158 43.5h19q125 0 204 -88q11 -18 11 -47v-8q-2 -34 -15 -56q-18 -27 -40.5 -70t-27.5 -59q-7 -4 -19 -7.5t-19 1.5q11 21 23.5 63.5t12.5 73.5q0 2 0.5 18.5t-0.5 22.5t-3 18.5t-8.5 22 t-16.5 17.5q-59 55 -158 55q-54 0 -99 -18t-73 -48t-44 -67q-16 -36 -15 -75q0 -41 16 -79q20 -49 61 -105.5t79.5 -100.5t79.5 -103t61 -113q22 -58 22 -110q0 -39 -12 -75q-28 -86 -95.5 -149t-159 -99t-181.5 -36q-79 0 -152.5 20.5t-137 73.5t-81.5 130z" />
<glyph unicode="T" horiz-adv-x="884" d="M28 998q12 41 47 64.5t84 40t105 20.5t108 6q15 1 29 1q35 0 64 -4q30 -2 128.5 -7.5t154.5 -10.5l325 -27q142 -13 241 -12q184 0 218 43q3 5 8 5q4 1 7 -3q2 -2 2 -5q0 -2 -1 -3q-6 -25 -16 -37q-10 -20 -17 -32t-24 -26.5t-39 -19.5q-15 -3 -44 -3q-76 0 -253 22 q-25 -4 -50 -17.5t-43 -27.5t-39 -41.5t-32.5 -44.5t-30 -52t-24.5 -48t-23 -48q-31 -65 -76 -173.5t-71 -164.5q-38 -83 -60 -128.5t-62.5 -110.5t-82.5 -111q-54 -57 -121.5 -90t-136.5 -33q-66 0 -123 37.5t-84 108.5q-18 45 -18 114v10v12v13t1.5 13t3.5 10t6 7.5t9 2.5 q4 0 4 -4q0 -8 -1 -25.5t-1 -25.5q0 -94 46.5 -144.5t121.5 -50.5q129 0 264 145q54 59 111 163.5t93 188.5t88.5 217t72.5 179q19 42 72 76t112 51l-53 6l-289 29q-71 5 -145 7q-17 0 -36 1q-62 0 -140 -4q-102 -5 -180.5 -32t-110.5 -73q-17 -27 -17 -57q0 -17 6 -35 q16 -50 60 -72q10 -7 -4 -15q-11 -6 -20 -1q-27 13 -65.5 58.5t-49.5 74.5q-13 33 -13 62q0 16 4 31z" />
<glyph unicode="U" horiz-adv-x="1251" d="M16 965q-2 14 -2 26q0 52 37 84q27 23 83 33q53 10 99 10h5q48 0 115 -4t85 -4q289 2 471 2l-26 -31q-101 0 -146 -57q-114 -148 -261 -460t-165 -466q-4 -38 20 -56t60.5 -14t73.5 23q111 56 231 180t213 256q165 236 291 512q3 5 15.5 35.5t22.5 42.5t24 10 q19 -5 40 -5q15 0 31 3q40 5 88 50q4 4 10 4q7 0 14 -6q3 -2 3 -4t-2 -3q-44 -35 -74 -71t-69 -97q-303 -459 -377 -686q-18 -58 -25 -104q-4 -23 -4 -45t4 -42q7 -39 39 -57q21 -11 52 -11q17 0 38 3q68 11 184 127q63 59 146 162q4 -8 4 -16q-2 -24 -27 -53 q-36 -50 -106 -123q-59 -59 -143 -115q-78 -52 -141 -51h-9q-124 8 -124 139q0 45 15 105q16 68 70 206q-53 -63 -184 -190q-10 -10 -38.5 -37t-43 -40.5t-37.5 -35t-43.5 -38t-40.5 -31.5q-113 -78 -212 -78h-7q-40 1 -65 11t-35 25.5t-10.5 40t5.5 46.5t17 51 q45 112 119 254q6 11 41 79t51 100.5t49 100.5t50.5 113.5t38.5 103t30.5 105t9.5 86.5h-180q-35 0 -67 -2t-83.5 -11t-87.5 -24.5t-62 -47.5q-23 -28 -22 -64v-9q1 -16 11.5 -43.5t15.5 -34.5l-23 -16q-5 8 -22 36.5t-27 46t-20 39t-11 32.5z" />
<glyph unicode="V" horiz-adv-x="1101" d="M29 965q-1 10 -1 19q0 61 35 91q27 23 83 33q53 10 99 10h5q48 0 116 -4t85 -4q289 2 471 2l-43 -53h-144q49 -95 49 -366q0 -59 -2 -126q-5 -98 -28 -232.5t-56 -254.5q71 101 116.5 163.5t138.5 182t172 210t190 202t221 202.5q78 66 190 124q100 51 180 51q10 0 19 -1 q33 -2 55 -12t28 -28q8 -20 7 -39q1 -16 -7 -39q-8 -25 -15.5 -42t-20 -42.5t-16.5 -34.5t-24 -8q-9 2 -9 6q7 24 10.5 48t3 54t-15 51t-43.5 25q-12 2 -25 2q-51 1 -109 -29q-72 -36 -177 -122q-306 -243 -623 -648q-185 -232 -272 -383q-3 -5 -7.5 -18.5t-7.5 -17.5 q-7 -7 -44 -22t-46 -15q-19 0 -27.5 5t-7.5 21q0 7 15 37l35 115q71 273 92 448l8 70q8 70 11 96t8.5 93.5t5.5 106.5t-2.5 87.5t-10.5 81.5q-45 0 -134.5 1t-133.5 1q-35 0 -67 -2t-83.5 -11t-87.5 -24.5t-62 -47.5q-23 -28 -23 -64q0 -4 1 -9q1 -16 11.5 -43.5t15.5 -34.5 l-22 -16q-5 8 -22 36.5t-27 46t-20 39t-11 32.5z" />
<glyph unicode="W" horiz-adv-x="1826" d="M29 965q-1 10 -1 19q0 61 35 91q27 23 83 33q53 10 99 10h5q48 0 116 -4t85 -4q289 2 471 2l-43 -53q-41 0 -122 1t-122 1q46 -31 78 -80t45 -101.5t21 -109.5q6 -43 6 -81q-1 -12 -1 -23q-2 -34 -1 -63v-22q-1 -3 -1 -5v-4.5v-4.5q-5 -98 -28 -232.5t-56 -254.5 q23 32 138.5 204.5t221 312.5t220.5 261q38 40 55.5 58t55.5 54.5t65 54t64.5 38.5t75.5 29q27 5 55 5q11 0 22 -1q51 -3 80 -21l-12 -22q-16 4 -34 4q-44 -1 -98 -25q-76 -34 -122 -80q-73 -73 -113.5 -196.5t-49.5 -235t-20.5 -243.5t-29.5 -197q65 93 116.5 162.5 t141 184t172 208t193 204t219.5 201.5q79 67 189 124q98 51 177 51q10 0 19 -1q33 -2 54 -12t28 -28q8 -20 8 -39q0 -16 -8 -39q-9 -25 -16 -42t-19.5 -42t-16.5 -35q-5 -9 -24 -8q-8 2 -8 6q7 23 10.5 47.5t3 54.5t-15.5 51t-44 25q-12 2 -24 2q-50 1 -107 -29 q-70 -36 -174 -122q-319 -254 -628 -648q-188 -236 -273 -383q-3 -5 -7 -18.5t-7 -17.5q-7 -7 -44 -22t-46 -15q-19 0 -27.5 5t-7.5 21q0 9 14 37l35 115q21 75 35.5 190t23 204.5t36.5 191t75 172.5q-12 -7 -26 -19.5t-33.5 -34t-36.5 -41t-44.5 -54t-47.5 -59.5t-55 -69.5 t-58 -73.5q-66 -84 -164.5 -238.5t-167.5 -273.5q-3 -5 -7 -18.5t-7 -17.5q-7 -7 -54 -22t-57 -15q-19 0 -27.5 5t-7.5 21q0 7 15 37l35 115q71 273 92 448q6 57 8 120v26q0 52 -5 116q-6 80 -30.5 154t-64.5 121h-156q-35 0 -67 -2t-83.5 -11t-87.5 -24.5t-62 -47.5 q-23 -28 -23 -64q0 -4 1 -9q1 -16 11.5 -43.5t15.5 -34.5l-22 -16q-5 8 -22 36.5t-27 46t-20 39t-11 32.5z" />
<glyph unicode="X" horiz-adv-x="1110" d="M-227 0q2 40 37 123q14 35 24 33q7 -2 2 -17q-24 -56 -24 -93q0 -9 1 -16q7 -40 37 -54q18 -8 42 -7q18 0 40 4q68 14 150 62.5t172 127t169.5 157.5t176.5 184q-5 25 -22 135q-20 145 -20 244q0 129 34 178q-55 2 -166 2q-35 0 -67 -2t-83.5 -11t-87.5 -24.5t-62 -47.5 q-23 -28 -23 -64q0 -4 1 -9q1 -16 11.5 -43.5t15.5 -34.5l-22 -16q-5 8 -22 36.5t-27 46t-20 39t-11 32.5q-1 10 -1 19q0 61 35 91q27 23 83 33q53 10 99 10h5q48 0 116 -4t85 -4q289 2 471 2l-43 -53q-43 0 -130.5 1t-130.5 1q-2 -27 -2 -56q0 -162 60 -417 q85 86 133.5 133.5t143 137t175.5 152t148 99.5q93 49 169 50q16 0 32 -3q29 -5 48.5 -15t28.5 -22t11 -30q1 -7 0 -14q0 -10 -1 -20q-3 -16 -11 -36.5t-15 -35.5t-17 -34.5t-14 -29.5q-5 -9 -21 -9q-9 0 -7 7q12 51 12 88q0 81 -61 90q-12 2 -24 2q-54 0 -114 -33 q-57 -28 -131.5 -83.5t-173.5 -145t-140 -128.5t-135 -130q-15 -14 -22 -21l-6 -12q22 -84 77.5 -234t102.5 -215q13 -19 29 -29.5t33 -10.5t33.5 2.5t36.5 15.5t36 24t37.5 33t35 36t34.5 39.5t30.5 38t28.5 36.5q18 22 20 5q2 -24 -20 -53l-2 -2q-54 -67 -108 -119 t-116 -90q-54 -34 -104 -33q-7 1 -14 1q-57 6 -98 61q-82 114 -146 410q-29 -31 -99.5 -107.5t-104.5 -112t-95.5 -98t-102.5 -95.5t-94 -72.5t-101 -61t-95 -31.5q-21 -4 -39 -4q-41 0 -69 20q-37 27 -37 91v10z" />
<glyph unicode="Y" horiz-adv-x="925" d="M16 182q0 29 10 29q8 -4 11 -18q0 -93 47 -144t123 -51q210 0 430 317q-25 -14 -41 -14q-11 0 -16.5 3t-4.5 13q0 2 2 6t4 9.5t3 7.5l22 70q19 71 31.5 153t18.5 179q1 22 1 43q0 74 -15 141q-19 87 -62 137h-50q-27 0 -53 -1.5t-67.5 -6t-74.5 -15.5t-64 -27.5 t-47 -44.5q-13 -23 -13 -52v-11q3 -34 25 -78l-21 -16q-5 9 -22 36.5t-27.5 46t-21 39.5t-11.5 32q-1 8 -1 16q0 62 36 94q27 23 84 33q53 10 99 10h5q47 -1 114.5 -4.5t84.5 -3.5q146 2 328 2l-43 -53q-72 0 -224 4q63 -43 95 -126t32 -180.5t-12 -182.5t-33 -160 q15 21 155 231t226 309q31 35 48 54t55 55.5t67.5 56.5t68.5 36q37 15 69 15h4q55 -3 79 -55q8 -17 10 -34v-10q0 -13 -3 -26q-4 -18 -7.5 -29.5t-11 -27.5t-8.5 -18q-4 -10 -13 -7q-4 2 -3 7q5 20 5 38q0 29 -12 54q-20 42 -65 45h-3q-98 0 -255 -182q-94 -109 -176 -226 t-129.5 -195.5t-137.5 -233.5q-20 -34 -30 -52q-29 -50 -57 -90.5t-65 -81t-76.5 -67t-89 -43.5t-103.5 -17q-66 0 -122.5 37.5t-84.5 108.5q-17 43 -17 116z" />
<glyph unicode="Z" horiz-adv-x="927" d="M-57 -62q-1 6 -1 11q0 22 15 47q52 83 164 203.5t224.5 225.5t276 244.5t252 212t218.5 177.5q-258 4 -387 4q-27 0 -53 -1.5t-67.5 -6t-74.5 -15.5t-64.5 -27.5t-47.5 -44.5q-13 -23 -13 -52v-11q3 -34 25 -78l-21 -16q-5 8 -22 36.5t-27 46t-20 39t-11 32.5 q-2 14 -2 26q0 52 37 84q26 23 83.5 34t107.5 11t118 -2t86 -2h478q2 -1 1.5 -9t-4.5 -18.5t-8 -13.5q-532 -384 -989 -878q56 29 107 45q50 16 96 16h7q43 0 79 -7q39 -7 81.5 -31.5t76 -49t76.5 -68.5t76 -81.5t81 -96.5q135 -162 260 -266q124 -103 203 -102h2 q68 2 100 39q28 32 28 75v16q-6 54 -42 111q-21 36 -55 70q-3 4 10 13t16 7q50 -31 80 -69q33 -42 40 -91q2 -15 2 -29q1 -32 -11 -62q-16 -42 -48 -78t-77 -56.5t-94 -21.5q-45 0 -92 15.5t-94 47.5t-86.5 64t-86 81.5t-75.5 82.5t-72 84.5t-60 70.5q-15 17 -45.5 53.5 t-45 53t-42 45.5t-44 43t-43 33t-48 28t-49 15t-55.5 6q-98 0 -184 -57.5t-113 -147.5q-15 -64 -33 -88q-16 -21 -40 -21q-10 0 -20 3q-34 11 -40 46z" />
<glyph unicode="[" horiz-adv-x="741" d="M18 -213q29 61 265 581.5t356 764.5l117 75q53 10 110.5 11t143 -3t139.5 -4l-96 -73q-105 23 -203 16q-26 -2 -55.5 -19t-42.5 -42q-78 -140 -218.5 -420t-268 -542t-136.5 -279q369 -7 492 6l-111 -64q-44 -4 -115.5 -6t-120 -2.5t-143 0t-113.5 0.5z" />
<glyph unicode="\" horiz-adv-x="1019" d="M2 1221q-6 6 65 22q57 12 62 6q54 -64 136 -175t158.5 -219t181.5 -261t168 -246t157 -233t112 -166q7 -10 -13 -14q-32 -7 -50 5q-3 1 -4 3q-69 86 -263 349t-394 528.5t-316 400.5z" />
<glyph unicode="]" horiz-adv-x="813" d="M-113 -213l99 74q108 -24 202 -17q25 2 55 19.5t44 42.5q49 88 125 236t156.5 310.5t147 299.5t126 260t65.5 135q-3 0 -130.5 1t-212.5 -0.5t-146 -6.5l108 63q44 4 115.5 6t120 2.5t143 0t113.5 -0.5q-23 -50 -261.5 -575.5t-359.5 -769.5l-116 -76q-53 -10 -111 -11 t-143.5 3t-139.5 4z" />
<glyph unicode="^" horiz-adv-x="641" d="M174 532q1 15 116 95.5t138 83.5l10 -4q60 -66 197 -170l8 -15l-10 -12q-34 1 -120.5 55t-115.5 84q-200 -133 -213 -133q-4 0 -8 5.5t-2 10.5z" />
<glyph unicode="_" horiz-adv-x="1732" />
<glyph unicode="`" horiz-adv-x="456" d="M101.5 880.5q-2.5 27.5 4.5 28.5q20 0 111 -80q76 -66 158 -129q0 -1 0.5 -2t1.5 -5t0.5 -5t-0.5 -2q-26 5 -142 73.5t-126 86.5q-5 7 -7.5 34.5z" />
<glyph unicode="a" d="M6 41q0 10 2 14q13 116 94 246t179 205q68 53 153 53h236q10 0 10 -8q0 -7 -5.5 -11.5t-12.5 -4.5q-31 0 -72 -68q-43 -64 -113.5 -202.5t-70.5 -182.5q0 -12 8 -20.5t20 -8.5q76 0 267 238q7 8 10 12q4 -4 4 -11q0 -17 -26 -52q-1 -1 -1.5 -2t-1.5 -2 q-182 -242 -338 -242q-49 0 -49 39q0 37 26 94.5t54 101.5q-66 -69 -150 -143q-106 -90 -186 -90q-37 0 -37 45zM111 90q0 -24 16 -24q39 0 128.5 88.5t163 193.5t73.5 146q0 38 -48 38q-29 0 -66 -21.5t-65 -47.5q-52 -49 -127 -181t-75 -192z" />
<glyph unicode="b" horiz-adv-x="550" d="M55 37q0 22 19 65q40 108 90 222q-17 -20 -47.5 -53.5t-36.5 -41.5q-12 -17 -14 -2q-3 20 10 35q20 26 68 81.5t69 82.5q202 422 432 649q183 178 318 178q33 0 58 -17.5t26 -49.5v-60q0 -8 -13 -8q-6 0 -6 4q0 29 -26 42.5t-60 13.5q-69 0 -133 -25t-113.5 -64 t-98.5 -100t-84 -118.5t-73.5 -135.5t-62.5 -135.5t-55.5 -133t-49.5 -114.5q-2 -8 2 -8q1 0 22.5 22t56 53.5t74 62.5t84 53t77.5 22q35 0 35 -49v-19q-11 -78 -53.5 -166t-104 -164t-144.5 -126.5t-165 -50.5q-101 0 -101 55zM143 57q0 -41 45 -41q29 0 65.5 22.5 t63.5 49.5q54 48 129.5 180t75.5 193q0 26 -18 26q-30 0 -100 -65.5t-113 -116.5q-50 -57 -99 -131t-49 -117z" />
<glyph unicode="c" horiz-adv-x="487" d="M30 150q10 32 28 68.5t35.5 65t37.5 56.5q74 103 174 162q38 24 93 45.5t91 21.5q41 0 62.5 -17.5t22 -45.5t-6.5 -55t-20 -54q-8 -17 -23 -19q-9 -2 -8 7v2q4 16 4 33q0 30 -12 64q-18 52 -57 51q-33 0 -76 -23.5t-64 -46.5q-54 -56 -103.5 -138t-72.5 -155 q-12 -38 -14 -65.5t6 -42t22 -22.5t36 -7t44.5 6t49.5 14q83 27 175.5 104t139.5 142q4 -4 4 -11q0 -16 -20 -46q-70 -96 -190 -176.5t-226 -83.5h-7q-47 0 -77 12q-32 14 -46 36q-13 22 -13 52q0 32 11 66z" />
<glyph unicode="d" d="M6 41q0 10 2 14q13 115 94.5 246.5t178.5 204.5q20 15 42 25.5t36.5 16t43 8.5t37 3.5t46.5 0.5t46 -1q33 56 105 192t102 187q187 315 412 315q29 0 51 -16q19 -14 19 -38v-7l-4 -74q0 -3 -4.5 -5.5t-6.5 -2.5t-6 4q-6 48 -60 68q-25 9 -53 10q-31 0 -65 -12 q-55 -19 -106 -79t-113 -169q-43 -77 -122 -236t-122 -254q-4 -10 -35 -73.5t-53.5 -112.5t-43.5 -102.5t-21 -71.5q0 -29 24 -29q45 0 140 93t141 157q4 -4 5.5 -8.5t0 -10t-3 -9.5t-6 -10.5t-7 -10t-8 -10t-6.5 -8.5q-184 -242 -338 -242q-49 0 -49 39q0 37 26 94.5 t54 101.5q-66 -69 -150 -143q-34 -28 -57 -44t-59 -31t-70 -15q-37 0 -37 45zM111 90q0 -24 16 -24q39 0 128.5 88.5t163 193.5t73.5 146q0 38 -48 38q-29 0 -66 -21.5t-65 -47.5q-52 -49 -127 -181t-75 -192z" />
<glyph unicode="e" horiz-adv-x="509" d="M36 88v7q0 28 6 55q8 31 24 68t30.5 63.5t32.5 56.5q54 84 151.5 156.5t184.5 72.5q94 0 94 -85q0 -13 -2 -27q-6 -39 -29 -70t-61 -53.5t-69 -35.5t-76 -28q-82 -24 -150 -24q-11 -30 -18.5 -56.5t-11 -52.5t-1 -46t13 -35t29 -21.5t49.5 -4.5t72 17q81 26 166.5 102 t140.5 148q7 -7 7 -14q0 -8 -4 -15q-3 -6 -11 -18q-76 -104 -188.5 -184t-229.5 -80q-52 0 -86 14t-48.5 36t-15.5 54zM188 285q13 -1 25 -1q55 0 102 15q103 31 144 113q17 35 17 63q0 19 -8 35q-12 22 -36 22q-132 -2 -244 -247z" />
<glyph unicode="f" horiz-adv-x="372" d="M-616 -328q1 9 2 17t4.5 19.5t5.5 19t7.5 21.5t8 21t8.5 23t9 23q4 9 11 11t11 -4.5t0 -15.5q-13 -36 -13 -68q0 -14 2 -27q9 -43 43.5 -72.5t78.5 -44.5q36 -12 76 -12q11 0 22 1q54 4 100 27q86 45 147.5 122t119.5 187q43 81 82 179t82 218.5t71 188.5h-47 q-3 0 -45 -6l-4 2q4 20 38.5 38.5t57.5 18.5h25q33 77 57.5 130.5t67 137t80.5 142t88.5 117.5t99.5 92q104 73 231 73q28 0 49.5 -16t20.5 -45l-6 -74q0 -5 -6.5 -6.5t-7.5 2.5q-9 49 -62 68q-31 12 -67 12q-26 0 -54 -6q-57 -12 -107.5 -64.5t-109.5 -160.5 q-19 -36 -44.5 -91t-44.5 -98t-49 -113.5t-42 -99.5h147q42 0 60 4q0 -14 -31 -26q-32 -17 -65 -24.5t-64 -7.5t-70 1q-113 -287 -172 -412q-35 -77 -74 -146.5t-96.5 -147.5t-119 -133.5t-141 -92.5t-161.5 -37q-169 0 -206 103q-2 7 -3 14q-1 6 -1 11v7z" />
<glyph unicode="g" horiz-adv-x="542" d="M-578 -435q0 5 0.5 12.5t2 12t4.5 9.5t8 7.5t12 2.5q4 0 4 -4q0 -8 -2 -25t-2 -26q0 -92 58.5 -142.5t152.5 -50.5q70 0 147 31q67 29 129 75.5t109.5 96t96 122.5t80 129.5t71 144t61 139.5t56.5 142q20 51 30 76q-65 -108 -209 -231q-32 -27 -55.5 -43.5t-59 -31.5 t-69.5 -15q-37 0 -37 45v14q15 115 96.5 246.5t178.5 204.5q68 53 153 53h236q10 0 10 -8q0 -7 -5.5 -11.5t-12.5 -4.5q-21 0 -42.5 -17t-31.5 -37q-58 -93 -275 -598q-33 -77 -63.5 -139.5t-73.5 -132t-88.5 -122t-106 -99.5t-128.5 -76q-73 -31 -154 -31q-82 0 -153 37.5 t-105 108.5q-23 45 -23 114v9q-1 4 -1 7t1 6zM113 90q0 -24 18 -24q38 0 127 88.5t162.5 193.5t73.5 146q0 38 -48 38q-55 0 -129 -69q-53 -49 -128.5 -181t-75.5 -192z" />
<glyph unicode="h" d="M-12 7q0 4 2 9q15 35 88.5 215t122.5 285q184 409 393 594q170 150 364 150q113 0 121 -89q1 -9 1 -19q0 -28 -7 -56q-3 -9 -16 -9q-3 1 -4 3q1 9 1 17q0 37 -27 57q-33 24 -93 24q-185 0 -340 -135q-189 -166 -334 -551q-21 -54 -57 -154.5t-51 -138.5q195 260 325 336 q44 25 81.5 28.5t49.5 -20.5q3 -5 2 -13q0 -25 -30 -73q-45 -70 -114 -206t-69 -179q0 -21 12 -28t29.5 -2t32 12t25.5 14q83 61 198 205q2 2 2 -2q3 -21 -10 -46l-6 -8q-42 -56 -92 -112q-110 -127 -215 -127q-45 0 -67 22q-12 12 -12 33q0 18 9 43q16 42 47 108t70 144.5 t49 99.5q12 25 12 36q0 9 -8 9q-4 0 -11 -2q-29 -11 -83 -57q-93 -85 -175.5 -192.5t-117.5 -206.5q-5 -18 -49 -27q-45 -9 -49 9z" />
<glyph unicode="i" horiz-adv-x="393" d="M66 227q-1 4 -1 7q0 15 11 28q132 163 223 293q100 14 127 35q12 12 17 2q3 -9 -5 -19q-8 -9 -22.5 -33t-34 -61t-37 -70.5t-41 -78.5t-35.5 -68q-69 -131 -69 -180q0 -12 7.5 -20.5t20.5 -8.5q63 0 230 197l45 51q4 -4 4 -14q-4 -18 -27 -51q-41 -52 -71 -85.5 t-75.5 -74.5t-94 -61.5t-99.5 -20.5q-47 0 -47 39q0 19 10.5 51.5t19.5 52.5t29 62t21 43l104 221q-41 -44 -103 -118.5t-93 -115.5q-12 -17 -14 -2zM449 844q6 24 28 37q20 13 41 13h6q24 -2 37 -20q8 -12 8 -27q-1 -7 -3 -15q-6 -24 -29 -37q-19 -13 -40 -13h-6 q-24 2 -36 19q-8 13 -8 28q0 7 2 15z" />
<glyph unicode="j" horiz-adv-x="276" d="M-858 -424q0 5 2 14.5t7.5 14t14.5 4.5q7 0 7 -4q0 -8 -3.5 -25t-3.5 -26q0 -92 58.5 -142.5t152.5 -50.5q69 0 150 31q92 40 171.5 108t143 158.5t110 177.5t95.5 199q42 98 79.5 209.5t57 174.5t23.5 68q27 28 75.5 50.5t81 25.5t37.5 -12q0 -7 -5.5 -11.5t-12.5 -4.5 q-43 0 -70 -39q-48 -70 -276 -613q-41 -98 -82 -175.5t-97.5 -157t-128 -140t-155.5 -96.5q-73 -31 -154 -31q-82 0 -153 37.5t-105 108.5q-20 44 -20 114v14q-1 7 -1 11.5t1 7.5zM353 844q7 24 30 37q19 13 39 13h7q24 -3 36 -20q8 -12 8 -26q0 -8 -3 -16q-7 -24 -30 -37 q-19 -13 -40 -13h-6q-24 2 -36 19q-8 12 -8 26q0 8 3 17z" />
<glyph unicode="k" horiz-adv-x="663" d="M17 10q0 3 1 6q13 29 51.5 116.5t53.5 121t48.5 107.5t55 118.5t53 108.5t63 122.5t65.5 118.5q45 81 100.5 154t120 135t136.5 98.5t140 36.5q34 0 59 -17.5t25 -49.5v-60q0 -8 -12 -8q-6 0 -6 4q0 29 -26 42.5t-58 13.5q-70 0 -146 -29q-40 -16 -74 -41t-64.5 -60 t-51 -63.5t-49.5 -73.5q-136 -209 -320 -702q48 64 88 110q-1 5 -1 11q0 28 22 55q10 15 27.5 33t25.5 28l6 -34q88 91 158 133q43 25 81.5 28.5t50.5 -20.5q3 -6 4 -15q0 -25 -28 -71q-7 -10 -11.5 -19.5t-8.5 -13.5q-3 -3 -8.5 -0.5t-5.5 6.5q0 39 -54 39q-73 0 -172 -102 q16 -90 39.5 -178.5t44.5 -120.5q16 -27 60 -27q77 2 270 250q7 -11 4 -20q-2 -18 -29 -50q-99 -126 -188 -196q-28 -23 -65 -35q-26 -9 -53 -9q-11 0 -22 1q-38 5 -59 33q-37 50 -82 262q-56 -71 -100.5 -145t-58.5 -117q-7 -19 -52 -27q-48 -8 -48 12z" />
<glyph unicode="l" horiz-adv-x="438" d="M66 227q-1 4 -1 7q0 15 11 28q20 26 68 81.5t69 82.5q26 49 116 230t159.5 308.5t119.5 192.5q23 9 89.5 53.5t107.5 44.5q38 0 49 -41q3 -11 3 -24q0 -105 -179 -350q-155 -216 -409 -443l-4.5 -4.5t-4 -3.5t-4.5 -4q-24 -45 -44 -97q-21 -52 -35 -114q-5 -24 -6 -44 q1 -32 15 -53q17 -27 58 -26q13 0 28 2q77 14 232 197l43 53q5 -5 5 -13q0 -19 -29 -55q-2 -3 -3 -4q-56 -70 -102 -118q-117 -117 -212 -117h-11q-32 2 -53 13t-30 31t-13 41t2 51t11 52.5t17.5 54t19 46.5t17.5 39l-86 -95q-12 -17 -14 -2zM291 467q203 169 352 393 q114 184 139 281q7 23 7 40q-1 3 -1 6q-2 19 -8 28q-4 5 -10 5t-15 -4q-18 -8 -44 -36q-39 -42 -101 -141t-105.5 -177.5t-120.5 -222t-93 -172.5z" />
<glyph unicode="m" horiz-adv-x="962" d="M66 227q-1 4 -1 7q0 15 11 28q132 163 223 293q100 14 127 35q7 7 11 7t6 -5q3 -9 -5 -19q-21 -24 -168 -297q6 7 109 123q47 49 119.5 103t119.5 61q31 5 47.5 -0.5t17.5 -20t-4 -30.5t-17 -37q-4 -9 -93 -172l97 96q47 49 119.5 103t119.5 61q42 7 59 -5.5t12 -35.5 t-26 -55q-43 -64 -113.5 -202.5t-70.5 -182.5q0 -12 8.5 -20.5t20.5 -8.5q36 0 102.5 60t128.5 135q37 41 43 53q4 -5 4 -13q0 -19 -26 -52q-35 -46 -66.5 -82t-74 -74.5t-90 -61t-95.5 -26.5q-24 -2 -43 8.5t-19 32.5q0 19 10.5 51.5t19.5 52.5t29 62t21 43q80 154 111 225 q19 41 -22 19q-51 -28 -130 -101l-12 -12q-68 -70 -138 -167t-91 -171q-29 -24 -50.5 -16.5t-21.5 32.5q0 13 4 31t8 31.5t14 36.5t14 32t15.5 33.5t12.5 26.5q75 143 110 225q19 41 -22 19q-51 -28 -130 -101l-12 -12q-116 -120 -161 -219q-26 -55 -66 -158q-18 -1 -72 -22 q-10 -4 -16 -4t-6 5q0 4 4 13q18 38 39 90q22 54 59 146.5t63 158.5t33 80q-41 -44 -103 -118.5t-93 -115.5q-12 -17 -14 -2z" />
<glyph unicode="n" horiz-adv-x="675" d="M66 227q-1 4 -1 7q0 15 11 28q132 163 223 293q100 14 127 35q7 7 11 7t6 -5q3 -9 -5 -19q-21 -24 -168 -297q33 42 109 123q47 49 119.5 103t119.5 61q16 3 28 3q36 0 42 -23q2 -6 2 -13q0 -26 -26 -63q-42 -62 -109.5 -197.5t-67.5 -179.5q0 -12 8.5 -20.5t20.5 -8.5 q24 0 54.5 18.5t68.5 57.5t67 73t76 91q4 -5 4 -13q0 -19 -26 -52q-36 -49 -92.5 -112.5t-94.5 -92.5q-63 -47 -118 -47q-67 0 -67 65q0 64 65 193q75 143 110 225q19 41 -22 19q-51 -28 -130 -101l-12 -12q-141 -147 -227 -377q-18 -1 -72 -22q-10 -4 -16 -4t-6 5q0 4 4 13 q18 38 39 90q22 54 59 146.5t63 158.5t33 80q-41 -44 -103 -118.5t-93 -115.5q-12 -17 -14 -2z" />
<glyph unicode="o" horiz-adv-x="542" d="M18 68q0 114 113 272q74 103 174 162q38 24 93 45.5t91 21.5t59 -19.5t23 -60.5q0 -110 -110 -270q-44 -58 -78 -90q136 0 250 152q9 11 9 -10q0 -15 -7 -25q-51 -72 -122 -114q-56 -33 -119 -32q-17 0 -34 2q-115 -106 -258 -106q-84 0 -84 72zM119 59q7 -29 32 -29h7 q30 4 60.5 21.5t51.5 38.5q63 65 117 156q87 145 87 242q0 10 -1 20q-4 30 -32 30q-18 0 -47 -13q-46 -21 -75 -52q-65 -68 -116 -156q-87 -147 -87 -229q0 -16 3 -29z" />
<glyph unicode="p" horiz-adv-x="522" d="M-858 -424q0 5 2 14.5t7.5 14t14.5 4.5q7 0 7 -4q0 -8 -3.5 -25t-3.5 -26q0 -92 58.5 -142.5t152.5 -50.5q69 0 150 31q92 40 172 108t143.5 157.5t111 178.5t93.5 199q24 58 71.5 180.5t86 213.5t78.5 173q62 126 133.5 190t144.5 64q21 0 36.5 -11.5t14.5 -31.5l-4 -57 q0 -6 -8 -6q-2 0 -2 2q0 22 -16 32.5t-35 10.5q-45 0 -86 -22t-73.5 -63t-59.5 -86.5t-49.5 -105.5t-37.5 -105.5t-30 -101.5q2 2 37 38t67 65t76.5 65t87.5 57t76 21q23 0 30 -21t3 -47q-14 -105 -79.5 -221t-171.5 -201t-214 -85q-43 0 -49 6q-182 -538 -500 -674 q-73 -31 -154 -31q-82 0 -153 37.5t-105 108.5q-20 44 -20 114v14q-1 7 -1 11.5t1 7.5zM111 57q0 -41 43 -41q28 0 66.5 23t64.5 49q53 49 128.5 181t75.5 192q0 26 -18 26q-31 0 -103.5 -66.5t-113.5 -115.5q-49 -58 -96 -131.5t-47 -116.5z" />
<glyph unicode="q" horiz-adv-x="571" d="M-16 -686q4 37 189 456.5t210 458.5q-55 -58 -152 -143q-102 -90 -184 -90q-37 0 -37 45v14q15 116 96.5 246t178.5 205q65 53 153 53h236q10 0 10 -8q0 -7 -5.5 -11.5t-12.5 -4.5q-33 0 -74 -68q-103 -161 -230 -417t-190 -435q125 207 506 686q4 -5 4 -13 q0 -17 -20 -46q-226 -299 -313 -426q-187 -276 -243 -453q-6 -18 -55 -45q-36 -20 -53 -20q-10 0 -13 8q-1 4 -1 8zM113 90q0 -24 18 -24q38 0 127 88.5t162.5 193.5t73.5 146q0 38 -48 38q-55 0 -129 -69q-53 -49 -128.5 -181t-75.5 -192z" />
<glyph unicode="r" horiz-adv-x="557" d="M66 227q-1 4 -1 7q0 15 11 28q132 163 223 293q100 14 127 35q7 7 11 7t6 -5q3 -9 -5 -19q-20 -22 -143 -249q55 84 140.5 165.5t150.5 81.5q55 0 73 -51q6 -25 6 -38q1 -12 -5 -30q-6 -20 -12 -32t-14.5 -27t-10.5 -20q-5 -10 -19 -12q-6 1 -6 4q3 28 3 58t-15.5 53.5 t-44.5 23.5q-56 0 -174 -135q-96 -113 -152 -254l-43 -115q-18 -1 -72 -21q-11 -4 -16.5 -4t-5.5 4q0 5 4 13q18 38 39 90q22 54 59 146.5t63 158.5t33 80q-41 -44 -103 -118.5t-93 -115.5q-12 -17 -14 -2z" />
<glyph unicode="s" horiz-adv-x="475" d="M0 76q-2 9 -2 19q0 23 10 52q14 41 37 60q9 6 14 -2v-6q-9 -19 -12 -35q-1 -9 -1 -17q0 -41 24 -77q21 -31 63 -56q26 -16 70 -16q12 0 26 2q63 6 88 35q26 28 26 70q1 11 -1 23q-8 58 -66 120q-60 63 -69 114q-4 16 -4 25q-24 -35 -103 -131q-16 -22 -19 -7q-2 21 17 42 q30 33 70 90q16 25 35 55.5t30.5 47.5t24.5 32q52 59 127 59q35 0 56.5 -4t40.5 -22.5t20 -52.5q0 -39 -29 -99q-8 -17 -23 -19q-7 -1 -7 5q0 2 1 4q4 18 4 35q0 31 -12 59q-18 48 -64 54q-7 1 -13 1q-37 0 -66 -29q-26 -26 -26 -60q0 -11 3 -23q4 -19 24.5 -45t49.5 -56 t39 -44q39 -50 39 -102v-7q-3 -56 -33 -101t-83.5 -73.5t-112.5 -28.5q-41 0 -79.5 9.5t-72 35.5t-41.5 64z" />
<glyph unicode="t" horiz-adv-x="405" d="M66 227q-1 4 -1 7q0 15 11 28q126 157 192 244q-9 0 -23.5 -1t-29 -2.5t-27.5 -3t-22 -2.5l-8 -1q-16 0 13 30q34 35 52 35l15 -1h35t28 -1q83 112 160 285q18 2 57.5 23.5t61.5 43.5q12 12 17 12t4 -6q0 -5 -5 -12q-27 -29 -91 -132.5t-118 -213.5h166q23 0 23 -7 q0 -6 -31 -15q-25 -7 -70.5 -11t-75.5 -11.5t-43 -25.5q-29 -38 -85.5 -177t-63.5 -214q-3 -20 7.5 -32.5t23.5 -12.5q61 0 233 197l39 49q7 -9 0 -28.5t-18 -34.5q-190 -242 -340 -242q-50 0 -50 39q0 52 80 209q11 21 39 82.5t50 113.5l22 51q-202 -245 -213 -260 q-12 -17 -14 -2z" />
<glyph unicode="u" horiz-adv-x="804" d="M66 227q-1 4 -1 7q0 15 11 28q84 114 147 184q4 4 22 24t24 26.5t22.5 21.5t28 21.5t28 14t33.5 9.5q42 7 58.5 -5.5t11.5 -35t-25 -55.5q-43 -64 -113.5 -202.5t-70.5 -182.5q0 -12 8 -20.5t20 -8.5q39 0 123 80q129 123 266 385q1 1 5.5 11.5t9.5 15.5t12 6h27.5t53 4 t48.5 14q3 1 5 1q5 0 5 -6q1 -15 -22 -24l-4 -1q-40 -13 -96.5 -109t-93.5 -202q-29 -83 -29 -126q0 -12 2 -20q7 -29 28 -29q38 0 121 66t137 131q10 11 25.5 31t17.5 22q7 -14 7 -16q-4 -22 -29 -51q-46 -61 -93.5 -110.5t-115.5 -90.5t-129 -41q-72 0 -72 55q0 36 27 114 t49 120q-77 -111 -141 -172q-121 -117 -230 -117q-49 0 -49 39q0 52 80 209q19 36 48 96.5t38 77.5q16 30 16 42q0 7 -6 7q-3 0 -8 -2q-18 -8 -53 -39q-81 -76 -170 -195q-12 -17 -14 -2z" />
<glyph unicode="v" d="M66 227q-1 4 -1 7q0 15 11 28q117 160 190 273q75 10 101 34q8 7 12 7t6 -6q2 -8 -6 -17q-37 -55 -83 -205q-48 -153 -48 -240q0 -63 36 -62q13 0 30 8q38 18 79 63q44 47 100 137.5t80 157.5q18 48 20 82t-3.5 45t-11.5 14q-17 6 -10 14q4 5 11 5q5 0 11 -3 q18 -6 27.5 -9.5t24.5 -14.5q14 -11 20 -23q6 -14 7 -38q0 -22 -10 -50q-27 -72 -140 -220.5t-181 -190.5q-30 -19 -60 -27q-23 -7 -43 -7q-6 1 -12 1q-26 2 -41 26q-14 23 -14 64v6q0 71 17 170t44 170q-21 -31 -48.5 -67.5t-58.5 -75.5t-42 -54q-12 -17 -14 -2z" />
<glyph unicode="w" horiz-adv-x="1024" d="M66 227q-1 4 -1 7q0 15 11 28q117 160 190 273q75 10 101 34q15 13 18 1q2 -8 -6 -17q-37 -56 -83.5 -205.5t-47.5 -236.5v-9q0 -57 37 -57q74 0 217 225q31 48 80 144.5t63 120.5q72 10 103 34q13 13 16 1q3 -8 -4 -17q-36 -54 -79 -204q-44 -154 -44 -240q0 -62 45 -63 q11 0 24 4q55 16 107 67q71 73 117.5 143t79.5 158q19 49 20.5 87t-7.5 55t-22 22q-18 6 -6 16q8 7 20 7q4 0 9 -1q32 -8 52 -26t28 -52q2 -9 1 -19q0 -28 -15 -65q-44 -117 -142 -237t-205 -182q-45 -27 -87 -35q-11 -2 -21 -2q-29 0 -52 17q-30 22 -30 79q0 119 41 268 q-9 -15 -27 -48.5t-30 -51.5q-127 -183 -199 -227q-30 -19 -59.5 -27.5t-55.5 -6t-41 26.5q-14 23 -14 64v6q0 71 17 170t44 170q-21 -31 -48.5 -67.5t-58.5 -75.5t-42 -54q-12 -17 -14 -2z" />
<glyph unicode="x" horiz-adv-x="612" d="M-12 25q204 162 248 198q-6 33 -22 127q-15 89 -15 103v2q4 33 49 59.5t82 26.5q25 0 29 -12q2 -8 -9 -10q-4 -1 -8 -1q-34 0 -41 -59q-3 -21 -3 -46q0 -53 13 -124q48 42 299 237q12 8 29.5 12t29.5 4q4 0 9 1q10 0 26 -1q23 -1 29 -1q4 1 5 -7v-6q0 -5 -1 -10 q-2 -8 -6 -8q-42 -2 -104 -33q-106 -48 -308 -219q12 -76 52 -149q28 -54 60 -54q28 0 59 39q44 55 66 135l1 4q5 16 15 11q9 -5 6 -21q-11 -51 -35 -102.5t-63.5 -92t-82.5 -40.5q-21 0 -41 10q-37 17 -69.5 80.5t-44.5 114.5q-44 -38 -109.5 -108.5t-83.5 -88.5 q-10 -10 -45 -5q-28 4 -28 16q0 7 12 18z" />
<glyph unicode="y" horiz-adv-x="704" d="M-420 -435q0 5 0.5 12.5t2 12t4 9.5t7.5 7.5t11 2.5q4 0 4 -4q0 -8 -2 -25t-2 -26q0 -92 58.5 -142.5t152.5 -50.5q68 0 149 31q92 40 171.5 108t143 158.5t110 177.5t95.5 199q50 120 105 284q-34 -47 -88 -111.5t-88 -96.5q-121 -117 -230 -117q-49 0 -49 39 q0 52 80 209q19 36 48 96.5t38 77.5q16 30 16 42q0 7 -6 7q-3 0 -8 -2q-18 -8 -53 -39q-81 -76 -170 -195q-12 -17 -14 -2q-3 20 10 35q84 114 147 184q4 4 22 24t24 26.5t22.5 21.5t28 21.5t28 14t33.5 9.5q15 3 27 3q21 0 32 -8q16 -13 11 -35.5t-25 -55.5 q-43 -64 -113.5 -202.5t-70.5 -182.5q0 -12 8 -20.5t20 -8.5q39 0 123 80q107 101 197 260q1 2 10.5 18.5t17.5 29t18.5 29t20 27t15.5 13.5q2 1 15 8.5t25.5 14.5t30 14t31.5 10q28 7 44 7q22 0 22 -13q0 -7 -6 -11.5t-13 -4.5q-42 0 -69 -39q-51 -74 -277 -613 q-33 -78 -64 -140t-74.5 -131.5t-89.5 -122t-106.5 -99.5t-128.5 -76q-73 -31 -153 -31q-82 0 -153 37.5t-105 108.5q-21 46 -21 114v9q-1 4 -1 7t1 6z" />
<glyph unicode="z" horiz-adv-x="479" d="M-30 -14q2 5 5 10q20 32 98.5 114.5t119.5 118.5q46 39 148.5 131t166.5 144q-90 0 -192.5 -9.5t-120.5 -33.5q-16 -22 -32 -19q-14 3 5 23q11 12 19 24t18 31.5t12 22.5q6 -4 65 -4q40 0 103 2q158 4 170 4q17 0 29 -23.5t14 -42.5q-24 -18 -94 -67t-125.5 -90 t-104.5 -80q-23 -17 -54.5 -44.5t-69.5 -61t-50 -44.5q35 18 66 25.5t59.5 2.5t51.5 -13.5t50 -30t47.5 -40t51.5 -49.5l6.5 -6.5l5.5 -5.5q151 -151 228 -151q37 4 53 18q22 17 15.5 40.5t-21 42t-29.5 28.5q-7 7 6 13q10 4 17 1q39 -21 53 -69q4 -15 4 -30q0 -32 -19 -63 q-25 -37 -69 -55q-25 -11 -51 -10q-19 0 -39 6q-34 10 -80.5 55t-147.5 160q-5 6 -19.5 23.5t-19.5 23t-18 20t-19.5 20t-18 15.5t-20.5 14t-20.5 9.5t-23 7.5t-23.5 2q-47 0 -89 -28.5t-54 -71.5q-7 -28 -17 -43q-12 -17 -33 -7q-16 9 -16 24q0 8 3 16z" />
<glyph unicode="{" horiz-adv-x="724" d="M160 467l26 27q125 1 202 49.5t130 156.5q12 25 49 121q49 124 148 213.5t256 112.5q103 8 114 -6q15 -20 15 -27q-37 7 -94 4q-81 -6 -134.5 -34.5t-91.5 -92.5q-25 -44 -63.5 -137t-78.5 -163.5t-95 -112.5q-91 -75 -211 -103q62 -13 100 -48.5t31 -94.5 q-8 -74 -73.5 -208.5t-74.5 -207.5q-2 -23 2 -39t10.5 -25t21.5 -14.5t27 -7.5t34 -4q14 -2 42 -1.5t46 3.5q-6 -13 -17.5 -24t-19.5 -11q-32 0 -56 1t-61.5 4.5t-63.5 12t-51 21.5t-36.5 35t-8.5 51q7 64 43.5 140t72 151.5t42.5 138.5q8 60 -40.5 85t-141.5 34z" />
<glyph unicode="|" horiz-adv-x="745" d="M131 0q29 80 245.5 609t233.5 573h97q-18 -24 -129.5 -293t-234 -574t-126.5 -315h-86z" />
<glyph unicode="}" horiz-adv-x="841" d="M-72 -176q38 -8 97 -4q80 6 133 34.5t90 92.5q25 44 64 137t79 164t94 114q99 74 211 101q-62 13 -100 48.5t-31 94.5q9 75 74.5 208.5t73.5 207.5q3 28 -2 45.5t-20.5 26.5t-30 12t-42.5 6q-44 4 -88 -2q21 37 37 37q292 0 277 -127q-7 -64 -43.5 -140t-72 -150.5 t-42.5 -137.5q-3 -26 5.5 -46t24 -32.5t41.5 -21.5t52 -13.5t61 -7.5l-26 -27q-127 -1 -204 -49.5t-128 -156.5q-24 -53 -51 -121q-23 -58 -56 -108t-81.5 -96t-116.5 -77.5t-150 -42.5q-27 -4 -67 -4t-47 8q-11 14 -15 27z" />
<glyph unicode="~" horiz-adv-x="567" d="M154 686q75 64 112 64q34 0 109 -29t127 -29q15 0 28.5 4t20.5 8t22.5 15t22.5 16l12 -14q-17 -19 -52.5 -43.5t-55.5 -24.5q-48 0 -126 28t-116 28q-34 0 -88 -43z" />
<glyph horiz-adv-x="1732" />
<glyph unicode="&#xa1;" horiz-adv-x="501" d="M-78 -205q12 8 43.5 61t38.5 70q73 140 158 308.5t145.5 289.5l63.5 127q7 16 36 26q18 5 17 -3l-283 -737q-7 -17 -22 -58.5t-19 -50.5q-105 -24 -161 -70q-4 -3 -9.5 6t-7.5 18.5t0 12.5zM400 879q1 9 12 20q4 3 18 15t21 17.5t18 10.5t20 4q38 0 74 -45q1 -1 -6 -7 t-18.5 -14t-23.5 -15.5t-21 -12.5t-11 -4t-9 5.5t-9 5.5t-9 5t-9.5 4t-10 3t-10 1.5t-10.5 -0.5q-18 -4 -16 7z" />
<glyph unicode="&#xa2;" horiz-adv-x="768" d="M113 343q-8 71 12 150t77 160t140 144q51 38 124.5 66.5t143.5 35.5l60 148q6 13 33 19q14 3 15 -3q0 -1 -1 -2l-62 -160q69 0 117 -22q66 -31 55 -82q-3 -13 -25 -47.5t-28 -53.5q-2 -8 -19 -10q-5 1 -5 4q18 28 19.5 73t-15.5 73q-25 42 -109 38q-146 -390 -246 -679 q103 -4 206.5 59.5t166.5 157.5q9 13 16 -6q4 -13 0 -19q-69 -111 -178 -179t-231 -69q-52 -150 -68 -209q-1 -2 -22 -11t-41 -16t-19 -3q19 61 86 245q-6 0 -18 3.5t-14 3.5q-73 17 -117.5 68.5t-52.5 122.5zM225 337q16 -103 107 -130l6 -2q126 338 260 663l-43 -12 q-73 -27 -137 -82q-100 -88 -154.5 -211t-38.5 -226z" />
<glyph unicode="&#xa3;" horiz-adv-x="1271" d="M1 -36q-5 28 17 43q9 6 23 7q84 1 167 70.5t122 146.5l129 261q-100 0 -193 -7q-9 -2 18 30q32 37 46 34q41 -6 153 -6l90 176q29 59 53 101t58 93.5t70 85.5t81 64.5t99.5 44.5t116.5 12q43 -2 82 -11t73 -26.5t48.5 -48.5t2.5 -71q-6 -21 -45.5 -69t-54.5 -83 q-8 -17 -22 -15q-12 3 -2 19q32 44 44 108.5t-12 117.5t-88 55q-61 2 -121 -31.5t-108 -106.5l-268 -417q148 0 301 6q5 0 -7 -16.5t-30 -33t-27 -16.5q-124 11 -252 11h-16l-168 -259q-109 -170 -199 -196q275 -8 408 -12q18 -1 73 -3t79 -2.5t70.5 -1.5t71 0.5t55 5t47 10 t24.5 15.5q34 45 26.5 83.5t-49.5 62.5q-11 5 -2 15q6 6 14 1q27 -13 67 -69t48 -87q17 -61 -25 -94t-133 -31q-142 5 -428 35t-356 35q-44 3 -90 -10.5t-72 -34.5q-7 -6 -9 9z" />
<glyph unicode="&#xa4;" horiz-adv-x="872" d="M181 1140q2 53 7 50q36 -34 77 -70.5t94 -82t79 -68.5q103 90 240 90q138 0 242 -94q124 110 247 225q3 3 6 -11q9 -51 0 -115q-5 -35 -16 -40q-10 -7 -69 -54.5t-103 -80.5q57 -88 57 -195q0 -111 -57 -196q153 -126 172 -136q21 -14 22 -110q-1 -57 -8 -53l-251 223 q-102 -92 -242 -92q-137 0 -244 92l-248 -223q-3 -5 -4 6q-8 43 1 111q6 38 16 46q26 16 172 136q-58 89 -58 196q0 110 56 193q-34 27 -70.5 56t-64.5 52.5t-35 28.5q-20 10 -18 116zM418 690q0 -109 77.5 -186.5t186.5 -77.5t186.5 77.5t77.5 186.5t-77.5 186.5 t-186.5 77.5t-186.5 -77.5t-77.5 -186.5z" />
<glyph unicode="&#xa5;" horiz-adv-x="925" d="M16 182q0 29 10 29q8 -4 11 -18q0 -93 47 -144t123 -51q202 0 414 293q-172 0 -240 -6q-9 -2 16 27q26 29 37 28q38 -6 148 -6q0 4 2 6l22 70q19 71 31.5 153t18 179t-13.5 184t-62 137h-50q-27 0 -53 -1.5t-67.5 -6t-74.5 -15.5t-64 -27.5t-47 -44t-13 -63.5 q3 -34 25 -78l-21 -16q-5 9 -22 36.5t-27.5 46t-21 39.5t-11.5 32q-5 74 35 110q27 23 83.5 33t104 9.5t115 -4t84.5 -3.5q146 2 328 2l-43 -53q-72 0 -224 4q63 -43 95 -126t32 -180.5t-12 -182.5t-33 -160q15 21 155 231t226 309q31 35 48 54t55 55.5t67.5 56.5t68.5 36 t73 15q55 -3 79 -55q8 -17 9.5 -34.5t-2.5 -35.5t-7.5 -29.5t-11 -27.5t-8.5 -18q-4 -10 -13 -7q-4 2 -3 7q13 50 -7 92t-65 45q-98 3 -258 -182q-126 -148 -215.5 -280.5t-194.5 -313.5q100 0 211 6q4 0 -6 -14t-25 -28t-22 -13l-180 8l-41 -72q-29 -50 -57 -90.5t-65 -81 t-76.5 -67t-89 -43.5t-103.5 -17q-66 0 -122.5 37.5t-84.5 108.5q-17 43 -17 116z" />
<glyph unicode="&#xa6;" horiz-adv-x="763" d="M131 0q27 72 199 496l88 4l-201 -500h-86zM420 715q158 383 190 467h97q-30 -47 -201 -467h-86z" />
<glyph unicode="&#xa7;" horiz-adv-x="1110" d="M20 -113q-15 68 14.5 144t80.5 116q3 2 8 -2.5t6.5 -10.5t-2.5 -11q-32 -29 -37.5 -76.5t8 -92t37.5 -79.5q46 -66 130 -108.5t171 -47.5q65 -4 118 15t87.5 55t53 84t16 106t-24.5 117q-25 68 -99.5 192t-86.5 146q-40 71 -39 153.5t49 149.5q54 72 139 111q0 89 49 158 q45 63 121 101.5t158 43.5q139 7 221 -88q14 -21 12 -55.5t-16 -55.5q-17 -28 -39.5 -71t-26.5 -58q-6 -4 -19.5 -7.5t-18.5 1.5q10 20 22 63t12 74q0 3 0.5 18.5t0 22t-3 19t-8.5 22t-15 17.5q-59 55 -158 55q-54 0 -99 -18t-73 -48t-44 -67t-15.5 -77t16.5 -77 q17 -41 48 -80t66.5 -72.5t71.5 -66.5t71 -74.5t56 -83.5q49 -92 31.5 -179t-73 -155.5t-140.5 -115.5q-4 -3 -20 -8q-13 -91 -84 -166.5t-168 -115.5t-193 -40q-58 0 -114.5 12t-110 37t-93 70t-53.5 104zM535 706.5q-32 -80.5 2 -153.5q20 -49 61 -105.5t79.5 -100 t79 -102t60.5 -112.5q20 -53 23 -104q1 3 12 10q79 53 95.5 151t-36.5 203q-28 58 -111.5 156.5t-111.5 152.5q-31 61 -37 119q-84 -34 -116 -114.5z" />
<glyph unicode="&#xa8;" horiz-adv-x="509" d="M156 801q-3 4 36 30t44 23q3 -2 10.5 -6.5t10.5 -6t11 -6t11 -4.5t11.5 -2t12.5 0q17 4 16 -6q0 -8 -12 -20q-5 -4 -15 -12.5t-16.5 -13.5t-15 -11t-16.5 -8.5t-15 -1.5q-39 3 -73 45zM393 801q-3 4 36 30t44 23q2 -1 10.5 -6.5t10.5 -6.5l11 -5.5t11.5 -4.5t12 -2.5 t12.5 0.5q17 4 16 -6q0 -8 -12 -20q-5 -4 -15 -12.5t-16.5 -13.5t-15 -11t-16.5 -8.5t-15 -1.5q-40 3 -74 45z" />
<glyph unicode="&#xa9;" horiz-adv-x="1464" d="M82 352q-3 61 10 132.5t44.5 148t78 150t115 137.5t150 110.5t188.5 69.5t225 14q250 -19 370.5 -105t129.5 -251q10 -158 -50.5 -304.5t-170.5 -252t-267.5 -163.5t-331.5 -44q-471 34 -491 358zM195 324q8 -133 93.5 -208.5t266.5 -88.5q155 -12 295 51.5t233.5 172.5 t145.5 250.5t43 282.5q-16 271 -375 299q-90 7 -182.5 -24.5t-170 -89.5t-145.5 -137t-114 -165t-70.5 -175.5t-19.5 -167.5zM353.5 362.5q-7.5 71.5 12.5 150.5t77 160t141 144q59 45 146.5 75t162.5 30q69 0 119 -23q66 -31 55 -82q-3 -13 -24 -47t-27 -53q-4 -9 -20 -10 q-5 2 -5 4q18 28 19.5 72.5t-15.5 72.5q-16 26 -55 34.5t-76 3t-69 -16.5q-78 -30 -136 -82q-101 -87 -155.5 -210.5t-38 -226.5t107.5 -131q115 -36 239.5 28.5t201.5 176.5q8 12 15 -5q5 -13 1 -19q-85 -135 -223 -202.5t-285 -33.5q-72 17 -116.5 68t-52 122.5z" />
<glyph unicode="&#xaa;" d="M6 662q0 10 2 14q13 116 94 245.5t179 204.5q69 54 153 54h236q10 0 10 -9q0 -7 -5.5 -11.5t-12.5 -4.5q-31 0 -72 -68q-43 -64 -113.5 -202.5t-70.5 -182.5q0 -12 8 -20t20 -8q76 0 267 238q7 8 10 12q15 -15 -25 -68q-182 -242 -338 -242q-49 0 -49 39q0 37 26 95 t54 102q-66 -69 -150 -143q-107 -91 -186 -91q-37 0 -37 46zM111 711q0 -25 16 -25q39 0 128.5 88.5t163 193.5t73.5 146q0 39 -48 39q-56 0 -131 -70q-52 -49 -127 -180.5t-75 -191.5z" />
<glyph unicode="&#xab;" horiz-adv-x="727" d="M217 403q3 17 104.5 125.5t147.5 151.5q19 16 37 16q10 0 10 -8q-3 -12 -91.5 -110.5t-121.5 -131.5q3 -5 22.5 -31t36 -50t35 -52t29 -48.5t8.5 -28.5q-4 -23 -22 -23l-13 6q-13 22 -27 40.5t-37.5 39.5t-33 29t-43.5 34.5t-39 30.5q-2 4 -2 10zM461 403 q3 17 104.5 125.5t147.5 151.5q16 16 37 16q10 0 10 -8q-4 -17 -213 -242q3 -4 22.5 -31t35.5 -50t34.5 -51.5t29 -49t9.5 -28.5q-4 -23 -23 -23l-12 6q-11 18 -25.5 36t-25 30t-31.5 30t-29.5 24.5t-35.5 27.5t-33 26q-3 7 -2 10z" />
<glyph unicode="&#xac;" horiz-adv-x="847" d="M125 457l25 47h286.5t317.5 4l14 -6q-26 -41 -52 -100.5t-36 -94.5l-86 2q7 17 84 154q-45 2 -256 0.5t-297 -6.5z" />
<glyph unicode="&#xad;" horiz-adv-x="509" d="M156 297q-8 -2 15 28q21 28 30 27q18 -3 133 -8q51 0 162 6q4 0 -4.5 -14t-21.5 -28t-19 -13l-45 4q-44 4 -76 4q-113 0 -174 -6z" />
<glyph unicode="&#xae;" horiz-adv-x="1447" d="M82 352q-3 61 10 132.5t44.5 148t78 150t115 137.5t150 110.5t188.5 69.5t225 14q250 -19 370.5 -105t129.5 -251q10 -159 -50.5 -305.5t-170.5 -252t-267.5 -163t-331.5 -43.5q-471 34 -491 358zM195 324q6 -92 45 -154h2q60 12 90 70q69 110 117 202l135 252 q72 127 92 180q7 17 9 23.5t0.5 16.5t-9.5 18q-23 0 -42 13q-18 11 15 16l31 2q41 2 127 2q28 3 68 1.5t77.5 -5.5t72.5 -20.5t52 -43.5q28 -47 21.5 -112.5t-39.5 -108.5q-51 -68 -144.5 -106.5t-187.5 -41.5q60 -131 150 -241q37 -45 80 -54.5t81.5 11.5t69 50.5 t53.5 65.5q124 185 111 424q-16 271 -375 299q-90 7 -182.5 -24.5t-170 -89.5t-145.5 -137t-114 -165t-70.5 -175.5t-19.5 -167.5zM248 160q81 -116 307 -133q148 -12 279.5 44t232.5 162q-174 -135 -283 13q-33 43 -62.5 92t-44 79t-32 68.5t-18.5 40.5q27 37 41 37 q53 -1 111.5 17t117.5 67t84 121q21 58 1 109t-71 57q-82 11 -112 -27q-25 -33 -54 -81.5t-46 -81.5t-49 -96.5t-40 -80.5q-173 -315 -157 -356q4 -8 -4 -8.5t-15 2.5q-36 13 -63 2q-73 -37 -107 -47q-10 -3 -16 0z" />
<glyph unicode="&#xaf;" horiz-adv-x="512" d="M227 813l2 4q39 10 170 10q39 0 100.5 -5t80.5 -13q1 -1 3 -2q3 -1 3 -2q-3 -10 -15 -10q-52 0 -157.5 -9.5t-157.5 -9.5q-9 0 -20 14.5t-9 22.5z" />
<glyph unicode="&#xb0;" horiz-adv-x="434" d="M188 707q9 58 62.5 99.5t118.5 41.5q64 0 103 -41t30 -100q-11 -59 -65 -101.5t-118 -42.5t-103 42.5t-28 101.5zM252 707q-6 -34 17.5 -59t60.5 -25t68.5 25t37.5 59t-17.5 59t-60.5 25t-68.5 -25t-37.5 -59z" />
<glyph unicode="&#xb1;" horiz-adv-x="759" d="M55 18q-11 -2 19 31q36 38 51 37q21 -4 270 -10q117 0 353 8q5 0 -8.5 -17.5t-33 -34.5t-28.5 -16q-281 11 -287 11q-230 0 -336 -9zM188 541q-10 0 20 34q35 42 52 39q47 -8 268 -8q68 168 86 234q4 9 33.5 21.5t56.5 19t25 0.5q-58 -118 -127 -275q181 0 328 6 q10 0 -21 -35q-35 -39 -51 -38q-160 7 -280 10l-3 -8q-91 -215 -102 -269q-5 -19 -76 -39q-40 -11 -37 -4q35 66 146 320q-228 0 -318 -8z" />
<glyph unicode="&#xb2;" horiz-adv-x="450" d="M-12 586q214 193 241 219l17 16q196 185 219 264q15 42 -8.5 71t-77.5 28q-47 0 -82 -21q-14 -9 -29.5 -30t-21.5 -39q-8 -57 -8 -58l-50 -24q33 121 37 159q0 23 29 35q51 17 111 17l28 2q69 3 107 -15q57 -22 57 -90q0 -28 -10 -55q-12 -46 -66 -104q-31 -34 -89 -83 t-89 -73.5t-106 -81.5q-32 -22 -58 -45q-32 -21 -14 -21q14 0 47 -2t51 -2q99 0 139 21q20 10 48 42.5t36 51.5l29 -10q-4 -4 -26.5 -40t-34.5 -61q-16 -35 -36 -49.5t-56 -13.5q-62 4 -121 4q-31 0 -43 -2q-70 -4 -170 -10z" />
<glyph unicode="&#xb3;" horiz-adv-x="450" d="M45 639q12 23 39 119l35 14q-1 -7 -5.5 -29.5t-6.5 -37.5t1 -33.5t13 -28.5q27 -24 82 -20q77 3 127 50t71 115q7 32 7 48q0 27 -16.5 44.5t-47.5 25t-59.5 10t-69.5 2.5l31 36l26 4q167 40 195 125q14 44 -9.5 73t-78.5 28q-49 0 -80 -21q-15 -9 -30 -29.5t-21 -39.5 q-13 -46 -10 -58l-50 -24q33 121 37 159q0 12 10 21.5t21 13.5q45 17 109 17l30 2q67 3 105 -15q33 -14 45 -47t3.5 -68.5t-32.5 -62.5q-47 -56 -135 -86q2 -2 4 -2q62 -6 88.5 -48.5t17 -98.5t-44.5 -107q-30 -43 -90.5 -72.5t-134.5 -35.5q-117 -6 -162 22q-24 15 -14 35z " />
<glyph unicode="&#xb4;" horiz-adv-x="264" d="M54.5 690q0.5 3 1.5 6l1 4q82 63 158 129q91 80 111 80q7 -1 5 -28.5t-7 -34.5q-10 -18 -126.5 -86.5t-142.5 -73.5q-1 1 -0.5 4z" />
<glyph unicode="&#xb5;" horiz-adv-x="514" d="M-334 -596l2 4q11 56 58 144t93 155t118 167.5t92 129.5q48 71 70 105t58 95.5t55.5 115t29.5 106.5q-14 -31 -86 -119t-109 -125q-1 0 -3 -1t-3 -1q-6 0 -6 8q0 2 2 2q4 7 18.5 25t31.5 38t22 26q98 126 137 210q19 43 49 43q33 0 18 -75q-10 -58 -41 -126t-80.5 -156.5 t-66.5 -123.5q137 86 272 234l15 14q11 36 31 82.5t38 62.5q14 11 35 11q10 0 22 -4.5t11 -12.5q-8 -45 -49 -86q-61 -133 -76 -231q-14 -76 39 -76q20 0 44 13.5t40.5 26.5t17.5 13q4 0 4 -8q0 -1 -1 -2t-1 -2q-28 -30 -68.5 -53t-74.5 -23q-75 0 -55 117q8 45 32 135 q-56 -74 -130 -133t-179 -123q-153 -233 -209 -334q-99 -181 -121 -305q-23 -141 76 -141q34 0 82.5 16t85.5 37q-19 -28 -71.5 -50t-88.5 -22q-86 0 -140.5 60t-39.5 137z" />
<glyph unicode="&#xb6;" horiz-adv-x="1011" d="M-393 -535q-2 17 45 17q71 0 146 34t140 88.5t131 131t118.5 151.5t103.5 161.5t84 149.5t63 126q-82 6 -150 32.5t-117 83t-54 135.5q-6 102 61 199q71 106 200.5 175.5t264.5 96.5t281 27q102 0 149 12q122 144 254 144q55 0 55 -27q1 -19 -9 -26t-27 -7 q-38 0 -76.5 -19t-71 -50.5t-57 -61.5t-45.5 -63q-26 -41 -61 -110.5t-59.5 -124t-61.5 -139t-48 -109.5q-29 -64 -52.5 -114.5t-63.5 -130t-76.5 -142.5t-87 -140t-99 -135.5t-108.5 -116.5t-119 -95t-128 -59t-138 -20h-17q-140 -100 -301 -100q-6 0 -15.5 1t-22.5 3.5 t-22 8t-9 13.5zM16 -432q76 7 156.5 58t144.5 120.5t126.5 161t103.5 165t74 144.5q25 51 94 193t104 213t91 182.5t104 202.5l-58 -2q-60 -42 -121 -124.5t-116 -186t-112 -222.5t-121.5 -245.5t-132.5 -243.5t-155.5 -228t-181.5 -188z" />
<glyph unicode="&#xb7;" horiz-adv-x="1208" d="M373 629q20 112 120.5 191t223.5 79t197 -79t55 -191q-20 -113 -121 -192t-225 -79q-123 0 -196.5 79.5t-53.5 191.5z" />
<glyph unicode="&#xb8;" horiz-adv-x="389" d="M-47 -424q0 12 18 12q2 0 29 1t50 5t51.5 13.5t48.5 32.5t26 57q4 25 -31.5 82.5t-35.5 87.5q0 53 40 94t97 41h41q-44 -11 -75.5 -41.5t-31.5 -66.5q0 -25 20.5 -54t38.5 -60.5t13 -64.5q-9 -52 -61 -89t-111 -51.5t-115 -14.5q-6 0 -10 5t-2 11z" />
<glyph unicode="&#xb9;" horiz-adv-x="348" d="M-2 590l25 35q26 -4 67.5 5t54.5 36q10 21 37.5 100t38.5 117v-2l49 147q14 42 18 64.5t2 26.5t-7 7q-8 4 -58 -32l-24 -21l-33 -22l2 24q10 29 10 31l43 24l66 41q52 33 106 66q24 14 29.5 5.5t-6.5 -30.5q-43 -89 -99 -268l-20 -70q-50 -144 -61 -212q-3 -17 20 -26 t46 -10.5t38 -0.5l-29 -35q-20 6 -135 12q-51 -2 -180 -12z" />
<glyph unicode="&#xba;" horiz-adv-x="542" d="M18 696q0 115 113 273q73 102 174 161q39 24 93.5 46t90.5 22t59 -19.5t23 -60.5q0 -110 -110 -270q-44 -58 -78 -90q137 0 250 151q8 10 9 -6q1 -18 -7 -29q-51 -72 -122 -113t-153 -30q-115 -106 -258 -106q-84 0 -84 71zM119 688q8 -33 38.5 -29t61 21.5t51.5 38.5 q64 67 117 155q96 160 86 263q-6 50 -79 17q-46 -21 -75 -52q-65 -68 -116 -156q-104 -175 -84 -258z" />
<glyph unicode="&#xbb;" horiz-adv-x="727" d="M184 213q2 17 213 242q-137 184 -133 211q4 20 23 20l12 -6q13 -22 28.5 -41t36.5 -38.5t34.5 -30.5t41.5 -33t39 -31q4 -4 4 -10q-4 -18 -106 -125.5t-148 -151.5q-20 -16 -34 -16q-5 0 -8.5 3t-2.5 7zM455 213q2 17 213 242q-137 184 -133 211q4 20 22 20l12 -6 q13 -22 29 -41t36.5 -38t34.5 -31t41.5 -33t39.5 -31q4 -4 4 -10q-4 -18 -106 -125.5t-148 -151.5q-20 -16 -35 -16q-5 0 -8 3t-2 7z" />
<glyph unicode="&#xbc;" horiz-adv-x="2017" d="M497 -53q0 1 1 2q228 317 553 728t475 572q4 5 40.5 6t70 -1t30.5 -5q-140 -149 -545.5 -636t-535.5 -666q-10 -15 -57 -12q-34 1 -32 12z" />
<glyph unicode="&#xbd;" horiz-adv-x="1345" d="M-65 -56q0 3 2 5q292 316 700.5 727.5t591.5 572.5q10 10 75 5q22 -2 21 -5q-157 -138 -645 -622t-670 -680q-14 -15 -54 -12q-22 1 -21 9zM78 590l24 35q26 -5 68 4.5t55 36.5q10 21 37.5 100t38.5 117v-2l49 147q13 42 17 64.5t2 26.5t-7 7q-7 4 -57 -32l-24 -21 l-33 -22l2 24q10 29 10 31l43 24l66 41q52 33 106 66q24 14 29.5 5.5t-6.5 -30.5q-43 -89 -99 -268l-20 -70q-52 -149 -62 -212q-2 -13 11 -21.5t31.5 -11.5t36.5 -4.5t26 0.5l-29 -35q-20 6 -135 12q-51 -2 -180 -12zM670 -8q214 193 241 219l17 16q195 184 219 265 q15 42 -8.5 70.5t-77.5 27.5q-47 0 -82 -21q-14 -9 -29.5 -30t-21.5 -39q-8 -57 -8 -58l-50 -24q33 121 37 160q0 22 29 34q51 17 111 17l28 2q69 3 107 -15q57 -22 57 -90q0 -28 -10 -55q-12 -46 -66 -104q-31 -34 -89 -83t-89 -73.5t-106 -81.5q-32 -22 -58 -45 q-32 -21 -14 -21q14 0 47 -2t51 -2q98 0 139 21q20 10 48 42.5t36 51.5l29 -10q-4 -4 -26.5 -40t-34.5 -61q-16 -35 -36 -49.5t-56 -13.5q-62 4 -121 4q-31 0 -43 -2q-70 -4 -170 -10z" />
<glyph unicode="&#xbe;" horiz-adv-x="1429" d="M33 -55q0 2 2 4q292 316 700.5 727.5t591.5 572.5q10 10 75 5q22 -2 21 -5q-157 -137 -644 -621t-670 -681q-13 -15 -53 -12q-24 1 -23 10zM45 639q12 23 39 119l35 14q-1 -7 -5.5 -29.5t-6.5 -37.5t1 -33.5t13 -28.5q27 -24 82 -20q77 3 127 50t71 115q7 32 7 48 q0 27 -16.5 44.5t-47.5 25t-59.5 10t-69.5 2.5l31 36l26 4q167 40 195 125q14 44 -9.5 73t-78.5 28q-49 0 -80 -21q-15 -9 -30 -29.5t-21 -39.5q-13 -46 -10 -58l-50 -24q33 121 37 159q0 12 10 21.5t21 13.5q45 17 109 17l30 2q67 3 105 -15q33 -14 45 -47t3.5 -68.5 t-32.5 -62.5q-47 -56 -135 -86q2 -2 4 -2q62 -6 88.5 -48.5t17 -98.5t-44.5 -107q-30 -43 -90.5 -72.5t-134.5 -35.5q-117 -6 -162 22q-24 15 -14 35zM752 203q25 15 90 84l30 35l164 172q35 35 56 59q37 46 51 51q23 7 45 19q58 25 66 21q9 -3 -3 -26q-40 -78 -98 -268 l-35 -104q46 3 53 10q24 12 56.5 44t40.5 50l20 -6l4 -12q-6 -6 -28.5 -38.5t-30.5 -51.5q-19 -36 -40 -51.5t-58 -12.5h-37q-25 -97 -27 -110q-1 -13 12.5 -21.5t32 -11.5t36.5 -4.5t26 0.5l-33 -35q-17 6 -135 12q-52 -2 -179 -12l27 35q23 -5 64 4.5t57 36.5 q15 23 43 108h-70q-88 -2 -190 -6q-46 0 -10 29zM862 256q-9 -9 2 -12q62 -4 123 -4q37 0 51 2l6 10l11 35l47 147q29 82 26 103q-34 -27 -233 -244z" />
<glyph unicode="&#xbf;" horiz-adv-x="913" d="M23 -16q12 64 49 114.5t85.5 81.5t108.5 62t114.5 56.5t107 65t83.5 87.5q96 152 39 217l23 32q45 -51 51 -127q3 -52 -30 -103.5t-83 -92.5l-340 -271q-53 -43 -72.5 -99.5t-1 -105.5t69.5 -71q47 -21 121 -11.5t123 44.5q30 20 65.5 80.5t47.5 111.5q0 18 21 29 q20 10 20 -6v-4q-39 -172 -37 -213q0 -31 -45 -54q-25 -11 -84.5 -22t-106.5 -14l-57 -4q-152 -11 -223.5 41t-48.5 176zM631.5 882q2.5 7 13.5 17q5 4 15 12.5t16.5 13.5t15 11t15.5 8.5t14 1.5q38 0 74 -45q3 -2 -15 -15q-48 -35 -63 -38q-46 28 -68 24q-10 -2 -15 0.5 t-2.5 9.5z" />
<glyph unicode="&#xc0;" horiz-adv-x="1572" d="M43 96q2 35 39 115q16 31 26 29q8 -2 1 -17q-32 -64 -27 -106t34.5 -62t80.5 -20q242 0 718 442q-38 1 -135 6.5t-137 5.5q-156 0 -207 -51q-20 -20 -31.5 -59.5t-1.5 -69.5q-1 0 -16 2.5t-26 9.5t-15 21q-5 11 -2 23t4 20.5t9.5 18t13.5 15.5t16.5 13.5t19 12t21.5 11 t22 10t21.5 9t20.5 8.5q152 66 284 66q83 0 209 -6q134 129 311 317q156 163 318 207h-113q-326 0 -436 -94q-49 -43 -60 -100t21 -76q8 -5 -11 -15q-15 -8 -22 -4q-20 13 -36 57t-11 72q6 43 33.5 77.5t63 56t91 36.5t98.5 22.5t107.5 11.5t97 4.5t84.5 0.5h9h223q4 0 2 -2 q149 68 205 68q20 0 31 -13q8 -10 -9 -14q-15 -1 -29 -1.5t-26.5 -2t-31.5 -13.5t-42 -36q-68 -68 -212.5 -322t-235.5 -456q-60 -146 -70 -211q-16 -99 47 -89q11 1 25 7q49 20 111 78q70 66 135 157q11 15 19.5 8t-3.5 -24q0 -1 -17 -23.5t-27.5 -36t-32 -39.5t-40 -45 t-42 -40.5t-48.5 -38.5t-49 -27q-37 -17 -74.5 -18.5t-69.5 20t-40 66.5q-19 101 63 276q87 182 217.5 419t192.5 322q-53 -2 -149.5 -57t-172.5 -133q-48 -49 -160.5 -174.5t-164.5 -181.5q122 -4 188 -4q87 0 148 30q-1 -3 -4 -9t-13 -20.5t-22.5 -26.5t-33 -22t-44.5 -12 q-133 -9 -283 -2q-107 -110 -200.5 -194.5t-201.5 -164t-213 -122.5t-198 -43q-66 0 -104 38t-31 109zM1547 1456q-2 28 5 29q20 0 111 -80q76 -66 158 -129q0 -1 0.5 -2t1.5 -5t0.5 -5t-0.5 -2q-26 5 -142.5 73t-126.5 86q-5 7 -7 35z" />
<glyph unicode="&#xc1;" horiz-adv-x="1572" d="M43 96q2 35 39 115q16 31 26 29q8 -2 1 -17q-32 -64 -27 -106t34.5 -62t80.5 -20q242 0 718 442q-38 1 -135 6.5t-137 5.5q-156 0 -207 -51q-20 -20 -31.5 -59.5t-1.5 -69.5q-1 0 -16 2.5t-26 9.5t-15 21q-5 11 -2 23t4 20.5t9.5 18t13.5 15.5t16.5 13.5t19 12t21.5 11 t22 10t21.5 9t20.5 8.5q152 66 284 66q83 0 209 -6q134 129 311 317q156 163 318 207h-113q-326 0 -436 -94q-49 -43 -60 -100t21 -76q8 -5 -11 -15q-15 -8 -22 -4q-20 13 -36 57t-11 72q6 43 33.5 77.5t63 56t91 36.5t98.5 22.5t107.5 11.5t97 4.5t84.5 0.5h9h223q4 0 2 -2 q149 68 205 68q20 0 31 -13q8 -10 -9 -14q-15 -1 -29 -1.5t-26.5 -2t-31.5 -13.5t-42 -36q-68 -68 -212.5 -322t-235.5 -456q-60 -146 -70 -211q-16 -99 47 -89q11 1 25 7q49 20 111 78q70 66 135 157q11 15 19.5 8t-3.5 -24q0 -1 -17 -23.5t-27.5 -36t-32 -39.5t-40 -45 t-42 -40.5t-48.5 -38.5t-49 -27q-37 -17 -74.5 -18.5t-69.5 20t-40 66.5q-19 101 63 276q87 182 217.5 419t192.5 322q-53 -2 -149.5 -57t-172.5 -133q-48 -49 -160.5 -174.5t-164.5 -181.5q122 -4 188 -4q87 0 148 30q-1 -3 -4 -9t-13 -20.5t-22.5 -26.5t-33 -22t-44.5 -12 q-133 -9 -283 -2q-107 -110 -200.5 -194.5t-201.5 -164t-213 -122.5t-198 -43q-66 0 -104 38t-31 109zM1707.5 1266q0.5 3 1.5 6l1 4q82 63 158 129q91 80 110 80q7 -1 5 -29t-7 -35q-10 -18 -126 -86t-142 -73q-1 1 -0.5 4z" />
<glyph unicode="&#xc2;" horiz-adv-x="1572" d="M43 96q2 35 39 115q16 31 26 29q8 -2 1 -17q-32 -64 -27 -106t34.5 -62t80.5 -20q242 0 718 442q-38 1 -135 6.5t-137 5.5q-156 0 -207 -51q-20 -20 -31.5 -59.5t-1.5 -69.5q-1 0 -16 2.5t-26 9.5t-15 21q-5 11 -2 23t4 20.5t9.5 18t13.5 15.5t16.5 13.5t19 12t21.5 11 t22 10t21.5 9t20.5 8.5q152 66 284 66q83 0 209 -6q134 129 311 317q156 163 318 207h-113q-326 0 -436 -94q-49 -43 -60 -100t21 -76q8 -5 -11 -15q-15 -8 -22 -4q-20 13 -36 57t-11 72q6 43 33.5 77.5t63 56t91 36.5t98.5 22.5t107.5 11.5t97 4.5t84.5 0.5h9h223q4 0 2 -2 q149 68 205 68q20 0 31 -13q8 -10 -9 -14q-15 -1 -29 -1.5t-26.5 -2t-31.5 -13.5t-42 -36q-68 -68 -212.5 -322t-235.5 -456q-60 -146 -70 -211q-16 -99 47 -89q11 1 25 7q49 20 111 78q70 66 135 157q11 15 19.5 8t-3.5 -24q0 -1 -17 -23.5t-27.5 -36t-32 -39.5t-40 -45 t-42 -40.5t-48.5 -38.5t-49 -27q-37 -17 -74.5 -18.5t-69.5 20t-40 66.5q-19 101 63 276q87 182 217.5 419t192.5 322q-53 -2 -149.5 -57t-172.5 -133q-48 -49 -160.5 -174.5t-164.5 -181.5q122 -4 188 -4q87 0 148 30q-1 -3 -4 -9t-13 -20.5t-22.5 -26.5t-33 -22t-44.5 -12 q-133 -9 -283 -2q-107 -110 -200.5 -194.5t-201.5 -164t-213 -122.5t-198 -43q-66 0 -104 38t-31 109zM1587 1276q144 96 232 172h24q49 -81 139 -143q2 -1 7.5 -5t9 -6t9 -4t11.5 -2v-6q-14 -4 -43 -18q-5 -5 -15 -1.5t-16.5 6t-17 10t-16 12t-13 11t-8.5 7.5 q-37 32 -80 86q0 6 -12 0q-23 -21 -88.5 -65t-93.5 -54q-11 -4 -29 0z" />
<glyph unicode="&#xc3;" horiz-adv-x="1572" d="M43 96q2 35 39 115q16 31 26 29q8 -2 1 -17q-32 -64 -27 -106t34.5 -62t80.5 -20q242 0 718 442q-38 1 -135 6.5t-137 5.5q-156 0 -207 -51q-20 -20 -31.5 -59.5t-1.5 -69.5q-1 0 -16 2.5t-26 9.5t-15 21q-5 11 -2 23t4 20.5t9.5 18t13.5 15.5t16.5 13.5t19 12t21.5 11 t22 10t21.5 9t20.5 8.5q152 66 284 66q83 0 209 -6q134 129 311 317q156 163 318 207h-113q-326 0 -436 -94q-49 -43 -60 -100t21 -76q8 -5 -11 -15q-15 -8 -22 -4q-20 13 -36 57t-11 72q6 43 33.5 77.5t63 56t91 36.5t98.5 22.5t107.5 11.5t97 4.5t84.5 0.5h9h223q4 0 2 -2 q149 68 205 68q20 0 31 -13q8 -10 -9 -14q-15 -1 -29 -1.5t-26.5 -2t-31.5 -13.5t-42 -36q-68 -68 -212.5 -322t-235.5 -456q-60 -146 -70 -211q-16 -99 47 -89q11 1 25 7q49 20 111 78q70 66 135 157q11 15 19.5 8t-3.5 -24q0 -1 -17 -23.5t-27.5 -36t-32 -39.5t-40 -45 t-42 -40.5t-48.5 -38.5t-49 -27q-37 -17 -74.5 -18.5t-69.5 20t-40 66.5q-19 101 63 276q87 182 217.5 419t192.5 322q-53 -2 -149.5 -57t-172.5 -133q-48 -49 -160.5 -174.5t-164.5 -181.5q122 -4 188 -4q87 0 148 30q-1 -3 -4 -9t-13 -20.5t-22.5 -26.5t-33 -22t-44.5 -12 q-133 -9 -283 -2q-107 -110 -200.5 -194.5t-201.5 -164t-213 -122.5t-198 -43q-66 0 -104 38t-31 109zM1616 1309q10 32 40.5 60t63.5 28q32 0 83 -21t95 -24q8 -3 18 -0.5t15.5 2.5t13 5t11 7t9 8t7 8t5.5 8t5 7h21q-12 -42 -39.5 -72.5t-54.5 -30.5q-42 0 -107 26t-100 26 q-46 0 -62 -37h-24z" />
<glyph unicode="&#xc4;" horiz-adv-x="1572" d="M43 96q2 35 39 115q16 31 26 29q8 -2 1 -17q-32 -64 -27 -106t34.5 -62t80.5 -20q242 0 718 442q-38 1 -135 6.5t-137 5.5q-156 0 -207 -51q-20 -20 -31.5 -59.5t-1.5 -69.5q-1 0 -16 2.5t-26 9.5t-15 21q-5 11 -2 23t4 20.5t9.5 18t13.5 15.5t16.5 13.5t19 12t21.5 11 t22 10t21.5 9t20.5 8.5q152 66 284 66q83 0 209 -6q134 129 311 317q156 163 318 207h-113q-326 0 -436 -94q-49 -43 -60 -100t21 -76q8 -5 -11 -15q-15 -8 -22 -4q-20 13 -36 57t-11 72q6 43 33.5 77.5t63 56t91 36.5t98.5 22.5t107.5 11.5t97 4.5t84.5 0.5h9h223q4 0 2 -2 q149 68 205 68q20 0 31 -13q8 -10 -9 -14q-15 -1 -29 -1.5t-26.5 -2t-31.5 -13.5t-42 -36q-68 -68 -212.5 -322t-235.5 -456q-60 -146 -70 -211q-16 -99 47 -89q11 1 25 7q49 20 111 78q70 66 135 157q11 15 19.5 8t-3.5 -24q0 -1 -17 -23.5t-27.5 -36t-32 -39.5t-40 -45 t-42 -40.5t-48.5 -38.5t-49 -27q-37 -17 -74.5 -18.5t-69.5 20t-40 66.5q-19 101 63 276q87 182 217.5 419t192.5 322q-53 -2 -149.5 -57t-172.5 -133q-48 -49 -160.5 -174.5t-164.5 -181.5q122 -4 188 -4q87 0 148 30q-1 -3 -4 -9t-13 -20.5t-22.5 -26.5t-33 -22t-44.5 -12 q-133 -9 -283 -2q-107 -110 -200.5 -194.5t-201.5 -164t-213 -122.5t-198 -43q-66 0 -104 38t-31 109zM1571 1376q-3 4 36 30.5t44 23.5q3 -2 10.5 -6.5t10.5 -6t11 -6t11 -4.5t11.5 -2t12.5 0q18 4 16 -7q-1 -9 -12 -20q-4 -3 -18 -15t-21 -17.5t-18 -10.5t-20 -4 q-40 3 -74 45zM1808 1376q-3 4 36 30.5t44 23.5q2 -1 10.5 -6.5t10.5 -6.5l11 -5.5t11.5 -4.5t12 -2.5t12.5 0.5q18 4 16 -7q-1 -9 -12 -20q-5 -4 -15 -12.5t-16.5 -13.5t-15 -11t-16.5 -8.5t-15 -1.5q-40 3 -74 45z" />
<glyph unicode="&#xc5;" horiz-adv-x="1572" d="M43 96q2 35 39 115q16 31 26 29q8 -2 1 -17q-32 -64 -27 -106t34.5 -62t80.5 -20q242 0 718 442q-38 1 -135 6.5t-137 5.5q-156 0 -207 -51q-20 -20 -31.5 -59.5t-1.5 -69.5q-1 0 -16 2.5t-26 9.5t-15 21q-5 11 -2 23t4 20.5t9.5 18t13.5 15.5t16.5 13.5t19 12t21.5 11 t22 10t21.5 9t20.5 8.5q152 66 284 66q83 0 209 -6q134 129 311 317q156 163 318 207h-113q-326 0 -436 -94q-49 -43 -60 -100t21 -76q8 -5 -11 -15q-15 -8 -22 -4q-20 13 -36 57t-11 72q6 43 33.5 77.5t63 56t91 36.5t98.5 22.5t107.5 11.5t97 4.5t84.5 0.5h9h223q4 0 2 -2 q149 68 205 68q20 0 31 -13q8 -10 -9 -14q-15 -1 -29 -1.5t-26.5 -2t-31.5 -13.5t-42 -36q-68 -68 -212.5 -322t-235.5 -456q-60 -146 -70 -211q-16 -99 47 -89q11 1 25 7q49 20 111 78q70 66 135 157q11 15 19.5 8t-3.5 -24q0 -1 -17 -23.5t-27.5 -36t-32 -39.5t-40 -45 t-42 -40.5t-48.5 -38.5t-49 -27q-37 -17 -74.5 -18.5t-69.5 20t-40 66.5q-19 101 63 276q87 182 217.5 419t192.5 322q-53 -2 -149.5 -57t-172.5 -133q-48 -49 -160.5 -174.5t-164.5 -181.5q122 -4 188 -4q87 0 148 30q-1 -3 -4 -9t-13 -20.5t-22.5 -26.5t-33 -22t-44.5 -12 q-133 -9 -283 -2q-107 -110 -200.5 -194.5t-201.5 -164t-213 -122.5t-198 -43q-66 0 -104 38t-31 109zM1765 1319q5 31 32 70.5t56 46.5q15 23 42.5 38t54.5 15q35 0 51 -25t10 -57q-9 -57 -66 -103.5t-118 -46.5q-31 0 -48.5 16.5t-13.5 45.5zM1829 1319q-4 -31 22 -31 q40 0 76 38t43 77q10 55 -28 55q-22 0 -54 -20l17 -8q-7 -13 -38.5 -46.5t-37.5 -64.5z" />
<glyph unicode="&#xc6;" horiz-adv-x="2209" d="M43 96q2 35 39 115q16 31 26 29q8 -2 1 -17q-32 -64 -27 -106t34.5 -62t80.5 -20q242 0 718 442q-38 1 -135 6.5t-137 5.5q-156 0 -207 -51q-20 -20 -31.5 -59.5t-1.5 -69.5q-1 0 -16 2.5t-26 9.5t-15 21q-5 11 -2 23t4 20.5t9.5 18t13.5 15.5t16.5 13.5t19 12t21.5 11 t22 10t21.5 9t20.5 8.5q152 66 284 66q83 0 209 -6q134 129 311 317q156 163 318 207h-113q-326 0 -436 -94q-49 -43 -60 -100t21 -76q8 -5 -11 -15q-15 -8 -22 -4q-20 13 -36 57t-11 72q6 43 33.5 77.5t63 56t91 36.5t98.5 22.5t107.5 11.5t97 4.5t84.5 0.5h9h231 q141 66 199 66q20 0 31 -13q8 -10 -9 -14q-10 -2 -26 -2t-25.5 -1t-25.5 -9t-35 -25q39 0 96.5 1.5t109 1t124.5 -4.5q41 -2 63 -16.5t27 -31t-4.5 -48t-18 -48.5t-27.5 -51q-8 -15 -12 -22q-11 -21 -31 -25q-11 -2 -11 8q0 2 1 5q37 161 -53 190q-44 14 -219 6 q-83 -6 -111 -43q-32 -45 -69.5 -105t-57.5 -93.5t-68 -116.5t-55 -96q-9 -23 17 -23q31 0 142 -1.5t159 -0.5q117 9 153 27q19 11 18 -4q-2 -23 -34 -54q-32 -29 -65 -30q-65 0 -192 4.5t-222 1.5q-21 -3 -29 -17q-12 -21 -34.5 -65t-39.5 -74q-100 -191 -100 -264 q0 -109 205 -113q427 0 629 256q8 11 13 -5q5 -12 -1 -19q-13 -16 -41 -51.5t-42 -53t-38.5 -45t-41.5 -42.5t-38.5 -29.5t-40.5 -20.5q-73 -22 -252.5 -28.5t-365.5 12.5q-105 9 -133.5 52.5t20.5 139.5l98 176q87 181 214.5 412t189.5 315q-53 -2 -149.5 -57t-172.5 -133 q-48 -49 -160.5 -174.5t-164.5 -181.5q122 -4 188 -4q87 0 148 30q-1 -3 -4 -9t-13 -20.5t-22.5 -26.5t-33 -22t-44.5 -12q-133 -9 -283 -2q-107 -110 -200.5 -194.5t-201.5 -164t-213 -122.5t-198 -43q-66 0 -104 38t-31 109z" />
<glyph unicode="&#xc7;" horiz-adv-x="1079" d="M78 276q0 192 106.5 375.5t274.5 311.5q97 73 221 117t244 44q113 0 188 -37q105 -50 88 -129q-5 -21 -39.5 -76t-44.5 -85q-4 -11 -28 -16q-11 -2 -12 3q0 1 1 2q29 47 35 120.5t-22 121.5q-26 44 -91 58t-126.5 4.5t-114.5 -29.5q-119 -43 -228 -135 q-146 -128 -238.5 -308t-92.5 -337q0 -83 30.5 -143t82 -90.5t115.5 -45t135.5 -9.5t138 19t126.5 37q112 43 199.5 103.5t159.5 150.5q14 18 20 7q7 -14 -16 -44q-130 -173 -346 -262q-153 -63 -336 -63q-51 -33 -51 -84q0 -21 12.5 -44t27.5 -40t25 -43t6 -52 q-9 -52 -61 -89t-110.5 -51.5t-114.5 -14.5q-6 0 -10 5t-3 11q0 12 19 12q2 0 29 1t50 5t51.5 13.5t48.5 32.5t26 57q4 25 -32 82.5t-36 87.5q0 71 64 115q-61 4 -114 17.5t-101 39.5t-82 62.5t-54 90.5t-20 121z" />
<glyph unicode="&#xc8;" horiz-adv-x="978" d="M79.5 42.5q-28.5 43.5 20.5 139.5q57 104 168 295t154 268q99 177 141 242q20 31 55 59t70 37q-182 -9 -258 -24q-151 -29 -186 -96q-22 -39 -19.5 -81.5t31.5 -60.5q8 -4 -4 -12q-8 -6 -14 -2q-19 10 -45.5 50.5t-32.5 66.5q-15 54 5 92.5t53 57t93 28.5t94 11t88 1h9 q69 0 199 3t199.5 3.5t199.5 -4.5q41 -2 63 -16.5t27 -31t-4.5 -48t-18 -48.5t-27.5 -51q-8 -15 -12 -22q-11 -21 -31 -25q-11 -2 -11 8q0 2 1 5q37 161 -53 190q-44 14 -219 6q-82 -6 -110 -43q-32 -45 -69.5 -105t-57.5 -93.5t-68 -116.5t-55 -96q-9 -23 16 -23 q31 0 142 -1.5t159 -0.5q119 9 154 27q19 11 17 -4q-1 -23 -33 -53q-32 -31 -66 -31q-65 0 -192 4.5t-222 1.5q-21 -3 -29 -17q-12 -22 -34 -65.5t-39 -73.5q-101 -193 -101 -264q0 -109 205 -113q427 0 629 256q8 11 13 -5q5 -12 -1 -19q-13 -16 -41 -51.5t-42 -53 t-38.5 -45t-41.5 -42.5t-38.5 -29.5t-40.5 -20.5q-73 -22 -252.5 -28.5t-365.5 12.5q-105 9 -133.5 52.5zM734 1456q-2 28 5 29q20 0 111 -80q76 -66 158 -129q0 -1 0.5 -2t1.5 -5t0.5 -5t-0.5 -2q-26 5 -142.5 73t-126.5 86q-5 7 -7 35z" />
<glyph unicode="&#xc9;" horiz-adv-x="978" d="M79.5 42.5q-28.5 43.5 20.5 139.5q57 104 168 295t154 268q99 177 141 242q20 31 55 59t70 37q-182 -9 -258 -24q-151 -29 -186 -96q-22 -39 -19.5 -81.5t31.5 -60.5q8 -4 -4 -12q-8 -6 -14 -2q-19 10 -45.5 50.5t-32.5 66.5q-15 54 5 92.5t53 57t93 28.5t94 11t88 1h9 q69 0 199 3t199.5 3.5t199.5 -4.5q41 -2 63 -16.5t27 -31t-4.5 -48t-18 -48.5t-27.5 -51q-8 -15 -12 -22q-11 -21 -31 -25q-11 -2 -11 8q0 2 1 5q37 161 -53 190q-44 14 -219 6q-82 -6 -110 -43q-32 -45 -69.5 -105t-57.5 -93.5t-68 -116.5t-55 -96q-9 -23 16 -23 q31 0 142 -1.5t159 -0.5q119 9 154 27q19 11 17 -4q-1 -23 -33 -53q-32 -31 -66 -31q-65 0 -192 4.5t-222 1.5q-21 -3 -29 -17q-12 -22 -34 -65.5t-39 -73.5q-101 -193 -101 -264q0 -109 205 -113q427 0 629 256q8 11 13 -5q5 -12 -1 -19q-13 -16 -41 -51.5t-42 -53 t-38.5 -45t-41.5 -42.5t-38.5 -29.5t-40.5 -20.5q-73 -22 -252.5 -28.5t-365.5 12.5q-105 9 -133.5 52.5zM902.5 1266q0.5 3 1.5 6l1 4q82 63 158 129q91 80 111 80q7 -1 4.5 -29t-7.5 -35q-10 -18 -126 -86t-142 -73q-1 1 -0.5 4z" />
<glyph unicode="&#xca;" horiz-adv-x="978" d="M79.5 42.5q-28.5 43.5 20.5 139.5q57 104 168 295t154 268q99 177 141 242q20 31 55 59t70 37q-182 -9 -258 -24q-151 -29 -186 -96q-22 -39 -19.5 -81.5t31.5 -60.5q8 -4 -4 -12q-8 -6 -14 -2q-19 10 -45.5 50.5t-32.5 66.5q-15 54 5 92.5t53 57t93 28.5t94 11t88 1h9 q69 0 199 3t199.5 3.5t199.5 -4.5q41 -2 63 -16.5t27 -31t-4.5 -48t-18 -48.5t-27.5 -51q-8 -15 -12 -22q-11 -21 -31 -25q-11 -2 -11 8q0 2 1 5q37 161 -53 190q-44 14 -219 6q-82 -6 -110 -43q-32 -45 -69.5 -105t-57.5 -93.5t-68 -116.5t-55 -96q-9 -23 16 -23 q31 0 142 -1.5t159 -0.5q119 9 154 27q19 11 17 -4q-1 -23 -33 -53q-32 -31 -66 -31q-65 0 -192 4.5t-222 1.5q-21 -3 -29 -17q-12 -22 -34 -65.5t-39 -73.5q-101 -193 -101 -264q0 -109 205 -113q427 0 629 256q8 11 13 -5q5 -12 -1 -19q-13 -16 -41 -51.5t-42 -53 t-38.5 -45t-41.5 -42.5t-38.5 -29.5t-40.5 -20.5q-73 -22 -252.5 -28.5t-365.5 12.5q-105 9 -133.5 52.5zM713 1276q140 93 231 172h25q49 -81 139 -143q2 -1 7.5 -5t9 -6t9 -4t11.5 -2v-6q-14 -4 -43 -18q-5 -5 -15 -1.5t-16.5 6t-17 10t-16 12t-13 11t-8.5 7.5 q-37 32 -80 86q0 6 -12 0q-22 -21 -88.5 -65t-94.5 -54q-11 -4 -28 0z" />
<glyph unicode="&#xcb;" horiz-adv-x="978" d="M79.5 42.5q-28.5 43.5 20.5 139.5q57 104 168 295t154 268q99 177 141 242q20 31 55 59t70 37q-182 -9 -258 -24q-151 -29 -186 -96q-22 -39 -19.5 -81.5t31.5 -60.5q8 -4 -4 -12q-8 -6 -14 -2q-19 10 -45.5 50.5t-32.5 66.5q-15 54 5 92.5t53 57t93 28.5t94 11t88 1h9 q69 0 199 3t199.5 3.5t199.5 -4.5q41 -2 63 -16.5t27 -31t-4.5 -48t-18 -48.5t-27.5 -51q-8 -15 -12 -22q-11 -21 -31 -25q-11 -2 -11 8q0 2 1 5q37 161 -53 190q-44 14 -219 6q-82 -6 -110 -43q-32 -45 -69.5 -105t-57.5 -93.5t-68 -116.5t-55 -96q-9 -23 16 -23 q31 0 142 -1.5t159 -0.5q119 9 154 27q19 11 17 -4q-1 -23 -33 -53q-32 -31 -66 -31q-65 0 -192 4.5t-222 1.5q-21 -3 -29 -17q-12 -22 -34 -65.5t-39 -73.5q-101 -193 -101 -264q0 -109 205 -113q427 0 629 256q8 11 13 -5q5 -12 -1 -19q-13 -16 -41 -51.5t-42 -53 t-38.5 -45t-41.5 -42.5t-38.5 -29.5t-40.5 -20.5q-73 -22 -252.5 -28.5t-365.5 12.5q-105 9 -133.5 52.5zM735 1376q-3 4 36 30.5t44 23.5q2 -1 10.5 -6.5t10.5 -6.5l11 -5.5t11.5 -4.5t12 -2.5t12.5 0.5q18 4 16 -7q-1 -9 -12 -20q-5 -4 -15 -12.5t-16.5 -13.5t-15 -11 t-16.5 -8.5t-15 -1.5q-40 3 -74 45zM973 1376q-3 4 36 30.5t44 23.5q3 -2 10.5 -6.5t10.5 -6t11 -6t11 -4.5t11.5 -2t12.5 0q18 4 16 -7q-1 -9 -12 -20q-4 -3 -18 -15t-21 -17.5t-18 -10.5t-20 -4q-40 3 -74 45z" />
<glyph unicode="&#xcc;" horiz-adv-x="747" d="M20 240q0 31 12 29q10 -4 11 -17q0 -94 46.5 -144.5t121.5 -50.5q128 0 264 146q30 33 57 66.5t53.5 72t45.5 66.5t44.5 74.5t38.5 69t39.5 77.5t34.5 72.5t37.5 80.5t36.5 78q66 138 164 203h-61q-27 0 -53 -1.5t-67.5 -6t-74.5 -15.5t-64.5 -27.5t-47.5 -44t-13 -63.5 q3 -34 25 -78l-21 -16q-5 9 -22 36.5t-27.5 46t-21 39.5t-11.5 32q-5 74 35 110q27 23 83.5 33t104 9.5t115 -4t84.5 -3.5l328 2l-27 -31q-63 0 -137 -14q-52 -8 -115.5 -56t-105.5 -120l-19 -31q-17 -38 -53 -127t-67.5 -161.5t-74 -160.5t-92.5 -165t-102 -133 q-52 -57 -130.5 -95t-147.5 -38q-67 0 -123.5 37.5t-83.5 107.5q-19 47 -19 115zM773 1456q-2 28 5 29q20 0 111 -80q76 -66 158 -129q0 -1 0.5 -2t1.5 -5t0.5 -5t-0.5 -2q-26 5 -142.5 73t-126.5 86q-5 7 -7 35z" />
<glyph unicode="&#xcd;" horiz-adv-x="747" d="M20 240q0 31 12 29q10 -4 11 -17q0 -94 46.5 -144.5t121.5 -50.5q128 0 264 146q30 33 57 66.5t53.5 72t45.5 66.5t44.5 74.5t38.5 69t39.5 77.5t34.5 72.5t37.5 80.5t36.5 78q66 138 164 203h-61q-27 0 -53 -1.5t-67.5 -6t-74.5 -15.5t-64.5 -27.5t-47.5 -44t-13 -63.5 q3 -34 25 -78l-21 -16q-5 9 -22 36.5t-27.5 46t-21 39.5t-11.5 32q-5 74 35 110q27 23 83.5 33t104 9.5t115 -4t84.5 -3.5l328 2l-27 -31q-63 0 -137 -14q-52 -8 -115.5 -56t-105.5 -120l-19 -31q-17 -38 -53 -127t-67.5 -161.5t-74 -160.5t-92.5 -165t-102 -133 q-52 -57 -130.5 -95t-147.5 -38q-67 0 -123.5 37.5t-83.5 107.5q-19 47 -19 115zM984.5 1266q0.5 3 1.5 6l1 4q82 63 158 129q91 80 110 80q7 -1 5 -29t-7 -35q-10 -18 -126 -86t-142 -73q-1 1 -0.5 4z" />
<glyph unicode="&#xce;" horiz-adv-x="747" d="M20 240q0 31 12 29q10 -4 11 -17q0 -94 46.5 -144.5t121.5 -50.5q128 0 264 146q30 33 57 66.5t53.5 72t45.5 66.5t44.5 74.5t38.5 69t39.5 77.5t34.5 72.5t37.5 80.5t36.5 78q66 138 164 203h-61q-27 0 -53 -1.5t-67.5 -6t-74.5 -15.5t-64.5 -27.5t-47.5 -44t-13 -63.5 q3 -34 25 -78l-21 -16q-5 9 -22 36.5t-27.5 46t-21 39.5t-11.5 32q-5 74 35 110q27 23 83.5 33t104 9.5t115 -4t84.5 -3.5l328 2l-27 -31q-63 0 -137 -14q-52 -8 -115.5 -56t-105.5 -120l-19 -31q-17 -38 -53 -127t-67.5 -161.5t-74 -160.5t-92.5 -165t-102 -133 q-52 -57 -130.5 -95t-147.5 -38q-67 0 -123.5 37.5t-83.5 107.5q-19 47 -19 115zM815 1276q144 96 232 172h24q49 -81 139 -143q2 -1 7.5 -5t9 -6t9 -4t11.5 -2v-6q-14 -4 -43 -18q-5 -5 -15 -1.5t-16.5 6t-17 10t-16 12t-13 11t-8.5 7.5q-37 32 -80 86q0 6 -12 0 q-23 -21 -88.5 -65t-93.5 -54q-11 -4 -29 0z" />
<glyph unicode="&#xcf;" horiz-adv-x="747" d="M20 240q0 31 12 29q10 -4 11 -17q0 -94 46.5 -144.5t121.5 -50.5q128 0 264 146q30 33 57 66.5t53.5 72t45.5 66.5t44.5 74.5t38.5 69t39.5 77.5t34.5 72.5t37.5 80.5t36.5 78q66 138 164 203h-61q-27 0 -53 -1.5t-67.5 -6t-74.5 -15.5t-64.5 -27.5t-47.5 -44t-13 -63.5 q3 -34 25 -78l-21 -16q-5 9 -22 36.5t-27.5 46t-21 39.5t-11.5 32q-5 74 35 110q27 23 83.5 33t104 9.5t115 -4t84.5 -3.5l328 2l-27 -31q-63 0 -137 -14q-52 -8 -115.5 -56t-105.5 -120l-19 -31q-17 -38 -53 -127t-67.5 -161.5t-74 -160.5t-92.5 -165t-102 -133 q-52 -57 -130.5 -95t-147.5 -38q-67 0 -123.5 37.5t-83.5 107.5q-19 47 -19 115zM825 1376q-3 4 36 30.5t44 23.5q2 -1 10.5 -6.5t10.5 -6.5l11 -5.5t11.5 -4.5t12 -2.5t12.5 0.5q18 4 16 -7q-1 -9 -12 -20q-5 -4 -15 -12.5t-16.5 -13.5t-15 -11t-16.5 -8.5t-15 -1.5 q-40 3 -74 45zM1063 1376q-3 4 36 30.5t44 23.5q3 -2 10.5 -6.5t10.5 -6t11 -6t11 -4.5t11.5 -2t12.5 0q18 4 16 -7q-1 -9 -12 -20q-4 -3 -18 -15t-21 -17.5t-18 -10.5t-20 -4q-40 3 -74 45z" />
<glyph unicode="&#xd0;" horiz-adv-x="1282" d="M-4 -27l4 7q6 2 10 2l3 1h1l4 1q3 0 9 2q63 21 104 92q98 163 229 409q-93 -4 -153 -8q-8 -2 17 31q30 38 44 37q27 -6 119 -10l105 194q19 33 51.5 98t40.5 80q25 60 47 97q30 51 121 81h-50q-52 0 -115 -5t-142.5 -17t-141.5 -38.5t-82 -63.5q-20 -38 -20 -72 q0 -24 9.5 -41t18.5 -24.5t9 -8.5q0 -4 -6 -8t-11 -4q-17 0 -47.5 48t-36.5 71q-6 21 -6 45q0 30 14 53.5t34 38.5t53.5 26t59.5 16t65.5 7.5t59 3t50.5 0.5q69 0 204.5 5t202.5 5q84 0 153 -7.5t141.5 -31t121 -62.5t80 -106t31.5 -157q0 -102 -39 -214t-100 -204 q-250 -375 -701 -375q-157 0 -278 62q-36 18 -62 18q-38 0 -105.5 -43t-95.5 -43q-6 0 -15 3.5t-9 8.5zM299 123q0 -39 51 -80q61 -47 187 -47q227 0 408 129.5t269 343.5q62 156 62 279q0 157 -96 245t-256 88q-110 0 -150 -47q-29 -34 -96 -147q-28 -50 -56 -104 t-65.5 -130.5t-52.5 -105.5l-6 -10q81 0 159 8q10 0 -18 -34.5t-41 -33.5q-15 1 -57 5t-70 5l-100 -200q-7 -13 -19.5 -37t-22.5 -43.5t-18 -36.5q-12 -28 -12 -47z" />
<glyph unicode="&#xd1;" horiz-adv-x="1476" d="M12 240q0 29 10 29q8 0 10 -13q1 -2 1 -4q0 -95 52.5 -159t127.5 -64q70 0 141.5 34.5t130.5 96.5q44 49 85 107.5t69 107t62 122t52 115.5t52 127.5t49 120.5q32 81 88.5 137.5t126.5 69.5h-113q-326 0 -391 -94q-28 -45 -11 -100t60 -76q10 -5 -4 -15q-11 -8 -20 -4 q-26 14 -64 57.5t-47 71.5q-66 189 337 207q49 2 142 2h248q14 2 -10 -31q-22 -30 -33 -30q-23 2 -63.5 -7.5t-57.5 -21.5q13 -148 83 -392.5t155 -457.5q29 69 93.5 244.5t116.5 314t121.5 278.5t125.5 193q31 29 77.5 42.5t81.5 1.5t33 -50l-2 -74q0 -3 -14 -5q-3 0 -4 1 q1 23 -19.5 36t-38.5 13q-35 1 -77 -39t-86 -112.5t-85.5 -154t-85 -184t-75 -180t-65.5 -164t-46 -116.5q-27 -61 -18 -108q0 -5 3.5 -19t4.5 -20q6 -23 -14 -39q-23 -15 -45 -25q-13 -5 -38.5 -30t-33.5 -37q-6 -8 -20 0q-4 3 -3 6q25 35 41 84q-19 100 -53 229t-62 219.5 t-77 244.5t-68 216q-22 -15 -51 -106q-2 -5 -32.5 -85.5t-41.5 -107.5t-42 -103t-53 -118.5t-55 -105t-66.5 -112t-69.5 -91.5q-45 -56 -135.5 -94.5t-163.5 -38.5q-66 0 -123.5 37.5t-85.5 107.5q-17 50 -17 115zM1249 1309q10 32 41 60t64 28q32 0 83 -21t95 -24 q8 -3 18 -0.5t15.5 2.5t13 5t11 7t9 8t7 8t5.5 8t5 7h20q-12 -42 -39.5 -72.5t-54.5 -30.5q-42 0 -107 26t-100 26q-45 0 -61 -37h-25z" />
<glyph unicode="&#xd2;" horiz-adv-x="1216" d="M14 299q0 61 17 134.5t52.5 154t85.5 158.5t121 148.5t154 124t189.5 85t222.5 31.5q245 0 358 -78.5t113 -245.5q0 -160 -68 -312.5t-182 -267.5t-272.5 -185.5t-329.5 -70.5q-461 0 -461 324zM123 281q0 -134 79.5 -204.5t256.5 -70.5q122 0 238.5 48.5t207.5 131.5 t161 188t107 223.5t37 231.5q0 133 -83 204t-267 71q-105 0 -216 -54.5t-202 -144.5t-164 -197t-114 -220t-41 -207zM792 1456q-2 28 5 29q19 0 110 -80q76 -66 158 -129q0 -1 0.5 -2t1.5 -5t0.5 -5t-0.5 -2q-26 5 -142 73t-126 86q-5 7 -7 35z" />
<glyph unicode="&#xd3;" horiz-adv-x="1216" d="M14 299q0 61 17 134.5t52.5 154t85.5 158.5t121 148.5t154 124t189.5 85t222.5 31.5q245 0 358 -78.5t113 -245.5q0 -160 -68 -312.5t-182 -267.5t-272.5 -185.5t-329.5 -70.5q-461 0 -461 324zM123 281q0 -134 79.5 -204.5t256.5 -70.5q122 0 238.5 48.5t207.5 131.5 t161 188t107 223.5t37 231.5q0 133 -83 204t-267 71q-105 0 -216 -54.5t-202 -144.5t-164 -197t-114 -220t-41 -207zM939.5 1266q0.5 3 1.5 6l1 4q82 63 158 129q91 80 110 80q7 -1 5 -29t-7 -35q-10 -18 -126 -86t-142 -73q-1 1 -0.5 4z" />
<glyph unicode="&#xd4;" horiz-adv-x="1216" d="M14 299q0 61 17 134.5t52.5 154t85.5 158.5t121 148.5t154 124t189.5 85t222.5 31.5q245 0 358 -78.5t113 -245.5q0 -160 -68 -312.5t-182 -267.5t-272.5 -185.5t-329.5 -70.5q-461 0 -461 324zM123 281q0 -134 79.5 -204.5t256.5 -70.5q122 0 238.5 48.5t207.5 131.5 t161 188t107 223.5t37 231.5q0 133 -83 204t-267 71q-105 0 -216 -54.5t-202 -144.5t-164 -197t-114 -220t-41 -207zM786 1276q144 96 232 172h24q21 -35 59.5 -74.5t80.5 -68.5q2 -1 7.5 -5t9 -6t9 -4t11.5 -2v-6q-14 -4 -43 -18q-5 -5 -15 -1.5t-16.5 6t-17 10t-16 12 t-13 11t-8.5 7.5q-37 32 -80 86q0 7 -13 0q-23 -21 -88.5 -65t-93.5 -54q-11 -4 -29 0z" />
<glyph unicode="&#xd5;" horiz-adv-x="1216" d="M14 299q0 61 17 134.5t52.5 154t85.5 158.5t121 148.5t154 124t189.5 85t222.5 31.5q245 0 358 -78.5t113 -245.5q0 -160 -68 -312.5t-182 -267.5t-272.5 -185.5t-329.5 -70.5q-461 0 -461 324zM123 281q0 -134 79.5 -204.5t256.5 -70.5q122 0 238.5 48.5t207.5 131.5 t161 188t107 223.5t37 231.5q0 133 -83 204t-267 71q-105 0 -216 -54.5t-202 -144.5t-164 -197t-114 -220t-41 -207zM831 1309q10 32 41 60t64 28q32 0 83 -21t95 -24q8 -3 18 -0.5t15.5 2.5t13 5t11 7t9 8t7 8t5.5 8t5 7h21q-12 -42 -40 -72.5t-55 -30.5q-42 0 -106.5 26 t-99.5 26q-46 0 -62 -37h-25z" />
<glyph unicode="&#xd6;" horiz-adv-x="1216" d="M14 299q0 61 17 134.5t52.5 154t85.5 158.5t121 148.5t154 124t189.5 85t222.5 31.5q245 0 358 -78.5t113 -245.5q0 -160 -68 -312.5t-182 -267.5t-272.5 -185.5t-329.5 -70.5q-461 0 -461 324zM123 281q0 -134 79.5 -204.5t256.5 -70.5q122 0 238.5 48.5t207.5 131.5 t161 188t107 223.5t37 231.5q0 133 -83 204t-267 71q-105 0 -216 -54.5t-202 -144.5t-164 -197t-114 -220t-41 -207zM838 1376q-3 4 36 30.5t44 23.5q3 -2 10.5 -6.5t10.5 -6t11 -6t11 -4.5t11.5 -2t12.5 0q18 4 16 -7q-1 -9 -12 -20q-5 -4 -15 -12.5t-16.5 -13.5t-15 -11 t-16.5 -8.5t-15 -1.5q-39 3 -73 45zM1075 1376q-3 4 36 30.5t44 23.5q2 -1 10.5 -6.5t10.5 -6.5l11 -5.5t11.5 -4.5t12 -2.5t12.5 0.5q18 4 16 -7q-1 -9 -12 -20q-5 -4 -15 -12.5t-16.5 -13.5t-15 -11t-16.5 -8.5t-15 -1.5q-40 3 -74 45z" />
<glyph unicode="&#xd7;" horiz-adv-x="872" d="M114 203q-6 34 2 81q4 19 9 23q32 17 270 217q-39 32 -146.5 118t-123.5 99q-14 7 -11 82q2 29 5 27q46 -44 156 -138.5t165 -148.5q56 48 173 152t149 135q2 2 4 -7q7 -37 -1 -82q-4 -17 -9 -20q-193 -151 -271 -217q236 -198 271 -217q14 -11 13 -82q-1 -27 -5 -26 q-12 11 -324 286q-56 -47 -323 -286q-2 -3 -3 4z" />
<glyph unicode="&#xd8;" horiz-adv-x="1216" d="M8 -60q0 1 2 3q21 23 111 118q-107 79 -107 238q0 61 17 134.5t52.5 154t85.5 158.5t121 148.5t154 124t189.5 85t222.5 31.5q180 0 287 -43l82 73q8 10 70 5q21 -2 20 -5q-64 -55 -113 -102q125 -79 125 -252q0 -160 -68 -312.5t-182 -267.5t-272.5 -185.5t-329.5 -70.5 q-192 0 -309 60q-17 -17 -86 -92q-14 -15 -52 -12q-21 1 -20 9zM123 281q0 -106 45 -168q545 575 932 938q-83 53 -240 53q-105 0 -216 -54.5t-202 -144.5t-164 -197t-114 -220t-41 -207zM205 74q80 -68 254 -68q122 0 238.5 48.5t207.5 131.5t161 188t107 223.5t37 231.5 q0 119 -61 183q-415 -396 -944 -938z" />
<glyph unicode="&#xd9;" horiz-adv-x="1251" d="M16 965q-11 71 35 110q27 23 83 33t103.5 9.5t115 -4t85.5 -3.5q289 2 471 2l-26 -31q-101 0 -146 -57q-114 -148 -261 -460t-165 -466q-4 -38 20 -56t60.5 -14.5t73.5 23.5q111 56 231 180t213 256q165 236 291 512q3 5 15.5 35.5t22.5 42.5t24 10q34 -8 71 -2 q40 5 88 50q10 8 24 -2q5 -4 1 -7q-44 -35 -74 -71t-69 -97q-303 -459 -377 -686q-18 -58 -25 -104.5t0 -86.5t39.5 -57.5t89.5 -7.5q68 11 184 127q63 59 146 162q4 -8 4 -16q-2 -24 -27 -53q-36 -50 -106 -123q-59 -59 -143 -114.5t-150 -51.5q-167 11 -109 244 q16 68 70 206q-53 -63 -184 -190q-10 -10 -38.5 -37t-43 -40.5t-37.5 -35t-43.5 -38t-40.5 -31.5q-117 -81 -219 -78q-40 1 -65 11t-35 25.5t-10.5 40t5.5 46.5t17 51q45 112 119 254q6 11 41 79t51 100.5t49 100.5t50.5 113.5t38.5 103t30.5 105t9.5 86.5h-180 q-35 0 -67 -2t-83.5 -11t-87.5 -24.5t-61.5 -47t-22.5 -73.5q1 -16 11.5 -43.5t15.5 -34.5l-23 -16q-5 8 -22 36.5t-27 46t-20 39t-11 32.5zM882 1456q-2 28 5 29q19 0 110 -80q76 -66 158 -129q0 -1 0.5 -2t1.5 -5t0.5 -5t-0.5 -2q-26 5 -142 73t-126 86q-5 7 -7 35z" />
<glyph unicode="&#xda;" horiz-adv-x="1251" d="M16 965q-11 71 35 110q27 23 83 33t103.5 9.5t115 -4t85.5 -3.5q289 2 471 2l-26 -31q-101 0 -146 -57q-114 -148 -261 -460t-165 -466q-4 -38 20 -56t60.5 -14.5t73.5 23.5q111 56 231 180t213 256q165 236 291 512q3 5 15.5 35.5t22.5 42.5t24 10q34 -8 71 -2 q40 5 88 50q10 8 24 -2q5 -4 1 -7q-44 -35 -74 -71t-69 -97q-303 -459 -377 -686q-18 -58 -25 -104.5t0 -86.5t39.5 -57.5t89.5 -7.5q68 11 184 127q63 59 146 162q4 -8 4 -16q-2 -24 -27 -53q-36 -50 -106 -123q-59 -59 -143 -114.5t-150 -51.5q-167 11 -109 244 q16 68 70 206q-53 -63 -184 -190q-10 -10 -38.5 -37t-43 -40.5t-37.5 -35t-43.5 -38t-40.5 -31.5q-117 -81 -219 -78q-40 1 -65 11t-35 25.5t-10.5 40t5.5 46.5t17 51q45 112 119 254q6 11 41 79t51 100.5t49 100.5t50.5 113.5t38.5 103t30.5 105t9.5 86.5h-180 q-35 0 -67 -2t-83.5 -11t-87.5 -24.5t-61.5 -47t-22.5 -73.5q1 -16 11.5 -43.5t15.5 -34.5l-23 -16q-5 8 -22 36.5t-27 46t-20 39t-11 32.5zM992.5 1266q0.5 3 1.5 6l1 4q82 63 158 129q91 80 111 80q7 -1 5 -29t-7 -35q-10 -18 -126.5 -86t-142.5 -73q-1 1 -0.5 4z" />
<glyph unicode="&#xdb;" horiz-adv-x="1251" d="M16 965q-11 71 35 110q27 23 83 33t103.5 9.5t115 -4t85.5 -3.5q289 2 471 2l-26 -31q-101 0 -146 -57q-114 -148 -261 -460t-165 -466q-4 -38 20 -56t60.5 -14.5t73.5 23.5q111 56 231 180t213 256q165 236 291 512q3 5 15.5 35.5t22.5 42.5t24 10q34 -8 71 -2 q40 5 88 50q10 8 24 -2q5 -4 1 -7q-44 -35 -74 -71t-69 -97q-303 -459 -377 -686q-18 -58 -25 -104.5t0 -86.5t39.5 -57.5t89.5 -7.5q68 11 184 127q63 59 146 162q4 -8 4 -16q-2 -24 -27 -53q-36 -50 -106 -123q-59 -59 -143 -114.5t-150 -51.5q-167 11 -109 244 q16 68 70 206q-53 -63 -184 -190q-10 -10 -38.5 -37t-43 -40.5t-37.5 -35t-43.5 -38t-40.5 -31.5q-117 -81 -219 -78q-40 1 -65 11t-35 25.5t-10.5 40t5.5 46.5t17 51q45 112 119 254q6 11 41 79t51 100.5t49 100.5t50.5 113.5t38.5 103t30.5 105t9.5 86.5h-180 q-35 0 -67 -2t-83.5 -11t-87.5 -24.5t-61.5 -47t-22.5 -73.5q1 -16 11.5 -43.5t15.5 -34.5l-23 -16q-5 8 -22 36.5t-27 46t-20 39t-11 32.5zM893 1276q140 93 231 172h25q49 -81 139 -143q2 -1 7.5 -5t9 -6t9 -4t11.5 -2v-6q-14 -4 -43 -18q-5 -5 -15 -1.5t-16.5 6t-17 10 t-16 12t-13 11t-8.5 7.5q-37 32 -80 86q0 6 -12 0q-23 -21 -88.5 -65t-93.5 -54q-11 -4 -29 0z" />
<glyph unicode="&#xdc;" horiz-adv-x="1251" d="M16 965q-11 71 35 110q27 23 83 33t103.5 9.5t115 -4t85.5 -3.5q289 2 471 2l-26 -31q-101 0 -146 -57q-114 -148 -261 -460t-165 -466q-4 -38 20 -56t60.5 -14.5t73.5 23.5q111 56 231 180t213 256q165 236 291 512q3 5 15.5 35.5t22.5 42.5t24 10q34 -8 71 -2 q40 5 88 50q10 8 24 -2q5 -4 1 -7q-44 -35 -74 -71t-69 -97q-303 -459 -377 -686q-18 -58 -25 -104.5t0 -86.5t39.5 -57.5t89.5 -7.5q68 11 184 127q63 59 146 162q4 -8 4 -16q-2 -24 -27 -53q-36 -50 -106 -123q-59 -59 -143 -114.5t-150 -51.5q-167 11 -109 244 q16 68 70 206q-53 -63 -184 -190q-10 -10 -38.5 -37t-43 -40.5t-37.5 -35t-43.5 -38t-40.5 -31.5q-117 -81 -219 -78q-40 1 -65 11t-35 25.5t-10.5 40t5.5 46.5t17 51q45 112 119 254q6 11 41 79t51 100.5t49 100.5t50.5 113.5t38.5 103t30.5 105t9.5 86.5h-180 q-35 0 -67 -2t-83.5 -11t-87.5 -24.5t-61.5 -47t-22.5 -73.5q1 -16 11.5 -43.5t15.5 -34.5l-23 -16q-5 8 -22 36.5t-27 46t-20 39t-11 32.5zM907 1376q-3 4 36 30.5t44 23.5q2 -1 10.5 -6.5t10.5 -6.5l11 -5.5t11.5 -4.5t12 -2.5t12.5 0.5q18 4 16 -7q-1 -9 -12 -20 q-5 -4 -15 -12.5t-16.5 -13.5t-15 -11t-16.5 -8.5t-15 -1.5q-40 3 -74 45zM1145 1376q-3 4 36 30.5t44 23.5q3 -2 10.5 -6.5t10.5 -6t11 -6t11 -4.5t11.5 -2t12.5 0q18 4 16 -7q-1 -9 -12 -20q-4 -3 -18 -15t-21 -17.5t-18 -10.5t-20 -4q-40 3 -74 45z" />
<glyph unicode="&#xdd;" horiz-adv-x="925" d="M16 182q0 29 10 29q8 -4 11 -18q0 -93 47 -144t123 -51q210 0 430 317q-25 -14 -41 -14q-11 0 -16.5 3t-4.5 13q0 2 2 6t4 9.5t3 7.5l22 70q19 71 31.5 153t18 179t-13.5 184t-62 137h-50q-27 0 -53 -1.5t-67.5 -6t-74.5 -15.5t-64 -27.5t-47 -44t-13 -63.5q3 -34 25 -78 l-21 -16q-5 9 -22 36.5t-27.5 46t-21 39.5t-11.5 32q-5 74 35 110q27 23 83.5 33t104 9.5t115 -4t84.5 -3.5q146 2 328 2l-43 -53q-72 0 -224 4q63 -43 95 -126t32 -180.5t-12 -182.5t-33 -160q15 21 155 231t226 309q31 35 48 54t55 55.5t67.5 56.5t68.5 36t73 15 q55 -3 79 -55q8 -17 9.5 -34.5t-2.5 -35.5t-7.5 -29.5t-11 -27.5t-8.5 -18q-4 -10 -13 -7q-4 2 -3 7q13 50 -7 92t-65 45q-98 3 -258 -182q-94 -109 -176 -226t-129.5 -195.5t-137.5 -233.5q-20 -34 -30 -52q-29 -50 -57 -90.5t-65 -81t-76.5 -67t-89 -43.5t-103.5 -17 q-66 0 -122.5 37.5t-84.5 108.5q-17 43 -17 116zM958 1262q-1 1 0 4l2 6l1 4q74 57 157 129q91 80 111 80q7 -1 5 -29t-7 -35q-10 -18 -126.5 -86t-142.5 -73z" />
<glyph unicode="&#xde;" horiz-adv-x="1107" d="M-113 -278q-4 6 2 10q83 14 131 98q97 163 166 291q52 99 195 362q17 30 67.5 123.5t102.5 189.5t105 190.5t87.5 149.5t36.5 44q10 4 74.5 32t106 41t73.5 13q20 0 30 -13q8 -10 -9 -14q-14 -1 -29 -1.5t-28 -2t-33 -13.5t-45 -36q-72 -66 -230 -318q151 0 209 -10 q119 -19 162 -84q47 -80 40.5 -155t-54.5 -142t-112.5 -116.5t-135.5 -77.5q-65 -26 -159 -39t-165.5 -12t-128.5 4q-206 -383 -178 -447q6 -14 -10 -11l-15 5l-17 5q-18 5 -24 5.5t-21.5 -1.5t-29.5 -9q-8 -3 -51.5 -30.5t-75.5 -37.5q-27 -6 -37 7zM371 279q35 -7 89 -3.5 t112.5 9.5t121.5 27t117.5 49.5t98.5 77.5t65 110q36 98 2 185.5t-121 99.5q-50 6 -108.5 -4t-83.5 -44q-24 -33 -64.5 -102t-111.5 -195t-85 -151z" />
<glyph unicode="&#xdf;" horiz-adv-x="944" d="M-615.5 -328.5q0.5 9.5 1.5 17.5t4.5 19.5t5.5 19t7.5 21.5t8 21t8.5 23t9 23q4 9 11 11t11 -4.5t0 -15.5q-19 -52 -10.5 -94t43 -70.5t79 -42t98 -9t99.5 27.5q87 45 149 120.5t118 180.5q43 81 82 179t82 218.5t71 188.5h-47q-3 0 -45 -6l-4 2q4 20 38.5 38.5 t57.5 18.5h25q170 422 348 580q119 106 274 112q91 0 160 -40.5t99 -102.5t17 -141.5t-75 -151.5q-103 -118 -293 -137q-45 -7 -68 -22t-24 -36t8 -43.5t31 -49t42 -48.5t43.5 -47t33.5 -39q98 -129 30 -256q-51 -94 -168 -148q-127 -57 -240 -28q-119 31 -157 150 q-12 38 9 96.5t53 87.5q7 3 13 1t7.5 -6.5t-0.5 -8.5q-8 -14 -16 -48q-11 -111 58.5 -172t168.5 -61q85 0 136 43t57 123q6 59 -14.5 115.5t-48.5 92t-64 82.5t-52 79q-50 100 103 157q213 47 299 160q40 52 53 117t-2.5 120.5t-66 93.5t-126.5 38q-125 0 -239 -109 q-70 -68 -144.5 -204.5t-125.5 -265.5t-117 -298t-103 -250q-35 -77 -74 -146.5t-96.5 -147.5t-119 -133.5t-141 -92.5t-161.5 -37q-169 0 -206 103q-2 7 -3 14.5t-0.5 17z" />
<glyph unicode="&#xe0;" d="M6 41q0 10 2 14q13 116 94 246t179 205q68 53 153 53h236q10 0 10 -8q0 -7 -5.5 -11.5t-12.5 -4.5q-31 0 -72 -68q-43 -64 -113.5 -202.5t-70.5 -182.5q0 -12 8 -20.5t20 -8.5q76 0 267 238q7 8 10 12q15 -15 -22 -63q-1 -1 -1.5 -2t-1.5 -2q-182 -242 -338 -242 q-49 0 -49 39q0 37 26 94.5t54 101.5q-66 -69 -150 -143q-106 -90 -186 -90q-37 0 -37 45zM111 90q0 -24 16 -24q39 0 128.5 88.5t163 193.5t73.5 146q0 38 -48 38q-29 0 -66 -21.5t-65 -47.5q-52 -49 -127 -181t-75 -192zM335 880.5q-2 27.5 5 28.5q20 0 111 -80 q83 -72 157 -129q0 -1 0.5 -2t1.5 -5t0.5 -5t-0.5 -2q-26 5 -142 73.5t-126 86.5q-5 7 -7 34.5z" />
<glyph unicode="&#xe1;" d="M6 41q0 10 2 14q13 116 94 246t179 205q68 53 153 53h236q10 0 10 -8q0 -7 -5.5 -11.5t-12.5 -4.5q-31 0 -72 -68q-43 -64 -113.5 -202.5t-70.5 -182.5q0 -12 8 -20.5t20 -8.5q76 0 267 238q7 8 10 12q15 -15 -22 -63q-1 -1 -1.5 -2t-1.5 -2q-182 -242 -338 -242 q-49 0 -49 39q0 37 26 94.5t54 101.5q-66 -69 -150 -143q-106 -90 -186 -90q-37 0 -37 45zM111 90q0 -24 16 -24q39 0 128.5 88.5t163 193.5t73.5 146q0 38 -48 38q-29 0 -66 -21.5t-65 -47.5q-52 -49 -127 -181t-75 -192zM495.5 690q0.5 3 1.5 6l1 4q74 57 157 129 q91 80 111 80q7 -1 5 -28.5t-7 -34.5q-10 -18 -126 -86.5t-142 -73.5q-1 1 -0.5 4z" />
<glyph unicode="&#xe2;" d="M6 41q0 10 2 14q13 116 94 246t179 205q68 53 153 53h236q10 0 10 -8q0 -7 -5.5 -11.5t-12.5 -4.5q-31 0 -72 -68q-43 -64 -113.5 -202.5t-70.5 -182.5q0 -12 8 -20.5t20 -8.5q76 0 267 238q7 8 10 12q15 -15 -22 -63q-1 -1 -1.5 -2t-1.5 -2q-182 -242 -338 -242 q-49 0 -49 39q0 37 26 94.5t54 101.5q-66 -69 -150 -143q-106 -90 -186 -90q-37 0 -37 45zM111 90q0 -24 16 -24q39 0 128.5 88.5t163 193.5t73.5 146q0 38 -48 38q-29 0 -66 -21.5t-65 -47.5q-52 -49 -127 -181t-75 -192zM324 700q140 93 231 172h25q49 -81 139 -143 q27 -16 37 -16v-6q-10 -3 -43 -19q-5 -5 -15 -1.5t-16.5 6t-17 10t-16 12t-13 11t-8.5 7.5q-37 32 -80 86q0 6 -12 0q-22 -21 -88.5 -65t-94.5 -54q-11 -4 -28 0z" />
<glyph unicode="&#xe3;" d="M6 41q0 10 2 14q13 116 94 246t179 205q68 53 153 53h236q10 0 10 -8q0 -7 -5.5 -11.5t-12.5 -4.5q-31 0 -72 -68q-43 -64 -113.5 -202.5t-70.5 -182.5q0 -12 8 -20.5t20 -8.5q76 0 267 238q7 8 10 12q15 -15 -22 -63q-1 -1 -1.5 -2t-1.5 -2q-182 -242 -338 -242 q-49 0 -49 39q0 37 26 94.5t54 101.5q-66 -69 -150 -143q-106 -90 -186 -90q-37 0 -37 45zM111 90q0 -24 16 -24q39 0 128.5 88.5t163 193.5t73.5 146q0 38 -48 38q-29 0 -66 -21.5t-65 -47.5q-52 -49 -127 -181t-75 -192zM379 733q10 32 40.5 60t63.5 28q32 0 83.5 -21 t95.5 -24q13 1 20.5 -0.5t17 4t13.5 7t11 8.5l9 9t6.5 9t5.5 8h21q-12 -42 -39.5 -72t-54.5 -30q-42 0 -107 25.5t-100 25.5q-46 0 -62 -37h-24z" />
<glyph unicode="&#xe4;" d="M6 41q0 10 2 14q13 116 94 246t179 205q68 53 153 53h236q10 0 10 -8q0 -7 -5.5 -11.5t-12.5 -4.5q-31 0 -72 -68q-43 -64 -113.5 -202.5t-70.5 -182.5q0 -12 8 -20.5t20 -8.5q76 0 267 238q7 8 10 12q15 -15 -22 -63q-1 -1 -1.5 -2t-1.5 -2q-182 -242 -338 -242 q-49 0 -49 39q0 37 26 94.5t54 101.5q-66 -69 -150 -143q-106 -90 -186 -90q-37 0 -37 45zM111 90q0 -24 16 -24q39 0 128.5 88.5t163 193.5t73.5 146q0 38 -48 38q-29 0 -66 -21.5t-65 -47.5q-52 -49 -127 -181t-75 -192zM360 801q-3 4 36 30t44 23q2 -1 10.5 -6.5 t10.5 -6.5l11 -5.5t11.5 -4.5t12 -2.5t12.5 0.5q17 4 16 -6q0 -8 -12 -20q-5 -4 -15 -12.5t-16.5 -13.5t-15 -11t-16.5 -8.5t-15 -1.5q-40 3 -74 45zM598 801q-3 4 36 30t44 23q3 -2 10.5 -6.5t10.5 -6t11 -6t11 -4.5t11.5 -2t12.5 0q9 2 14 -0.5t3 -9t-12 -16.5 q-5 -4 -15 -12.5t-16.5 -13.5t-15 -11t-16.5 -8.5t-15 -1.5q-40 3 -74 45z" />
<glyph unicode="&#xe5;" d="M6 41q0 10 2 14q13 116 94 246t179 205q68 53 153 53h236q10 0 10 -8q0 -7 -5.5 -11.5t-12.5 -4.5q-31 0 -72 -68q-43 -64 -113.5 -202.5t-70.5 -182.5q0 -12 8 -20.5t20 -8.5q76 0 267 238q7 8 10 12q15 -15 -22 -63q-1 -1 -1.5 -2t-1.5 -2q-182 -242 -338 -242 q-49 0 -49 39q0 37 26 94.5t54 101.5q-66 -69 -150 -143q-106 -90 -186 -90q-37 0 -37 45zM111 90q0 -24 16 -24q39 0 128.5 88.5t163 193.5t73.5 146q0 38 -48 38q-29 0 -66 -21.5t-65 -47.5q-52 -49 -127 -181t-75 -192zM487 743q5 31 32 70.5t56 46.5q15 23 42.5 38 t54.5 15q35 0 51 -25t10 -57q-9 -57 -66 -103t-118 -46q-32 0 -49 16t-13 45zM551 743q-4 -30 22 -30q40 0 76 38t43 76q10 56 -28 56q-20 0 -54 -21l17 -8q-7 -13 -38.5 -46.5t-37.5 -64.5z" />
<glyph unicode="&#xe6;" horiz-adv-x="813" d="M6 41q0 10 2 14q13 116 94 246t179 205q64 50 153 53l215 10q20 2 29.5 -3t1.5 -17q52 18 88 18q108 0 92 -112q-6 -39 -29 -70t-61 -53.5t-69 -35.5t-76 -28q-82 -24 -150 -24q-11 -30 -18.5 -56.5t-11 -52.5t-1 -46t13 -35t29 -21.5t49.5 -4t72 16.5q81 26 166.5 102 t140.5 148q7 -7 6.5 -15t-3.5 -14t-11 -18q-76 -104 -188.5 -184t-229.5 -80q-218 0 -120 235q-49 -54 -140 -133q-106 -90 -186 -90q-37 0 -37 45zM111 90q0 -24 16 -24q39 0 128.5 88.5t163 193.5t73.5 146q0 38 -48 38q-29 0 -66 -21.5t-65 -47.5q-52 -49 -127 -181 t-75 -192zM492 285q68 -4 126 14q103 31 144 113q29 59 9 98q-12 22 -36 22q-131 -2 -243 -247z" />
<glyph unicode="&#xe7;" horiz-adv-x="487" d="M-113 -424q0 12 19 12q2 0 29 1t50 5t51.5 13.5t48.5 32.5t26 57q4 25 -32 82.5t-36 87.5q0 35 20 67.5t54 51.5q-53 7 -77 36.5t-21.5 67.5t21 86t41.5 87t50 77q74 103 174 162q38 24 93 45.5t91 21.5q41 0 62.5 -17.5t22 -45.5t-6.5 -55t-20 -54q-8 -17 -23 -19 q-9 -2 -8 7v2q10 45 -8 96.5t-57 51.5q-33 0 -76 -23.5t-64 -46.5q-54 -56 -103.5 -138t-72.5 -155q-12 -38 -14 -65.5t6 -42t22 -22.5t36 -7t44.5 6t49.5 14q83 27 175.5 104t139.5 142q13 -13 -16 -57q-68 -92 -182.5 -171t-217.5 -87q-63 -39 -63 -92q0 -21 12.5 -44 t27.5 -40t25 -43t6 -52q-9 -52 -61 -89t-110.5 -51.5t-114.5 -14.5q-6 0 -10 5t-3 11z" />
<glyph unicode="&#xe8;" horiz-adv-x="509" d="M36 87.5q-1 31.5 6.5 62.5t23.5 68t30.5 63.5t32.5 56.5q54 84 151.5 156.5t184.5 72.5q108 0 92 -112q-6 -39 -29 -70t-61 -53.5t-69 -35.5t-76 -28q-82 -24 -150 -24q-11 -30 -18.5 -56.5t-11 -52.5t-1 -46t13 -35t29 -21.5t49.5 -4t72 16.5q81 26 166.5 102t140.5 148 q7 -7 6.5 -15t-3.5 -14t-11 -18q-76 -104 -188.5 -184t-229.5 -80q-52 0 -86 14t-48.5 36t-15.5 53.5zM188 285q69 -4 127 14q103 31 144 113q29 59 9 98q-12 22 -36 22q-132 -2 -244 -247zM300 880.5q-2 27.5 5 28.5q20 0 111 -80q83 -72 157 -129q0 -1 0.5 -2t1.5 -5 t0.5 -5t-0.5 -2q-26 5 -142 73.5t-126 86.5q-5 7 -7 34.5z" />
<glyph unicode="&#xe9;" horiz-adv-x="509" d="M36 87.5q-1 31.5 6.5 62.5t23.5 68t30.5 63.5t32.5 56.5q54 84 151.5 156.5t184.5 72.5q108 0 92 -112q-6 -39 -29 -70t-61 -53.5t-69 -35.5t-76 -28q-82 -24 -150 -24q-11 -30 -18.5 -56.5t-11 -52.5t-1 -46t13 -35t29 -21.5t49.5 -4t72 16.5q81 26 166.5 102t140.5 148 q7 -7 6.5 -15t-3.5 -14t-11 -18q-76 -104 -188.5 -184t-229.5 -80q-52 0 -86 14t-48.5 36t-15.5 53.5zM188 285q69 -4 127 14q103 31 144 113q29 59 9 98q-12 22 -36 22q-132 -2 -244 -247zM491.5 690q0.5 3 1.5 6l1 4q74 57 157 129q91 80 111 80q7 -1 5 -28.5t-7 -34.5 q-10 -18 -126 -86.5t-142 -73.5q-1 1 -0.5 4z" />
<glyph unicode="&#xea;" horiz-adv-x="509" d="M36 87.5q-1 31.5 6.5 62.5t23.5 68t30.5 63.5t32.5 56.5q54 84 151.5 156.5t184.5 72.5q108 0 92 -112q-6 -39 -29 -70t-61 -53.5t-69 -35.5t-76 -28q-82 -24 -150 -24q-11 -30 -18.5 -56.5t-11 -52.5t-1 -46t13 -35t29 -21.5t49.5 -4t72 16.5q81 26 166.5 102t140.5 148 q7 -7 6.5 -15t-3.5 -14t-11 -18q-76 -104 -188.5 -184t-229.5 -80q-52 0 -86 14t-48.5 36t-15.5 53.5zM188 285q69 -4 127 14q103 31 144 113q29 59 9 98q-12 22 -36 22q-132 -2 -244 -247zM289 700q140 93 231 172h25q49 -81 139 -143q27 -16 37 -16v-6q-10 -3 -43 -19 q-5 -5 -15 -1.5t-16.5 6t-17 10t-16 12t-13 11t-8.5 7.5q-37 32 -80 86q0 6 -12 0q-22 -21 -88.5 -65t-94.5 -54q-11 -4 -28 0z" />
<glyph unicode="&#xeb;" horiz-adv-x="509" d="M36 87.5q-1 31.5 6.5 62.5t23.5 68t30.5 63.5t32.5 56.5q54 84 151.5 156.5t184.5 72.5q108 0 92 -112q-6 -39 -29 -70t-61 -53.5t-69 -35.5t-76 -28q-82 -24 -150 -24q-11 -30 -18.5 -56.5t-11 -52.5t-1 -46t13 -35t29 -21.5t49.5 -4t72 16.5q81 26 166.5 102t140.5 148 q7 -7 6.5 -15t-3.5 -14t-11 -18q-76 -104 -188.5 -184t-229.5 -80q-52 0 -86 14t-48.5 36t-15.5 53.5zM188 285q69 -4 127 14q103 31 144 113q29 59 9 98q-12 22 -36 22q-132 -2 -244 -247zM319 801q-3 4 36 30t44 23q2 -1 10.5 -6.5t10.5 -6.5l11 -5.5t11.5 -4.5t12 -2.5 t12.5 0.5q17 4 16 -6q0 -8 -12 -20q-5 -4 -15 -12.5t-16.5 -13.5t-15 -11t-16.5 -8.5t-15 -1.5q-40 3 -74 45zM557 801q-3 4 36 30t44 23q2 -1 10.5 -6.5t10.5 -6.5l11 -5.5t11.5 -4.5t12 -2.5t12.5 0.5q17 4 16 -6q0 -8 -12 -20q-5 -4 -15 -12.5t-16.5 -13.5t-15 -11 t-16.5 -8.5t-15 -1.5q-40 3 -74 45z" />
<glyph unicode="&#xec;" horiz-adv-x="393" d="M66 227q-3 20 10 35q132 163 223 293q100 14 127 35q12 12 17 2q3 -9 -5 -19q-8 -9 -22.5 -33t-34 -61t-37 -70.5t-41 -78.5t-35.5 -68q-69 -131 -69 -180q0 -12 7.5 -20.5t20.5 -8.5q63 0 230 197l45 51q4 -4 4 -14q-4 -18 -27 -51q-41 -52 -71 -85.5t-75.5 -74.5 t-94 -61.5t-99.5 -20.5q-47 0 -47 39q0 19 10.5 51.5t19.5 52.5t29 62t21 43l104 221q-41 -44 -103 -118.5t-93 -115.5q-12 -17 -14 -2zM214 880.5q-2 27.5 5 28.5q20 0 111 -80q83 -72 157 -129q0 -1 0.5 -2t1.5 -5t0.5 -5t-0.5 -2q-26 5 -142 73.5t-126 86.5q-5 7 -7 34.5 z" />
<glyph unicode="&#xed;" horiz-adv-x="393" d="M66 227q-3 20 10 35q132 163 223 293q100 14 127 35q12 12 17 2q3 -9 -5 -19q-8 -9 -22.5 -33t-34 -61t-37 -70.5t-41 -78.5t-35.5 -68q-69 -131 -69 -180q0 -12 7.5 -20.5t20.5 -8.5q63 0 230 197l45 51q4 -4 4 -14q-4 -18 -27 -51q-41 -52 -71 -85.5t-75.5 -74.5 t-94 -61.5t-99.5 -20.5q-47 0 -47 39q0 19 10.5 51.5t19.5 52.5t29 62t21 43l104 221q-41 -44 -103 -118.5t-93 -115.5q-12 -17 -14 -2zM388.5 690q0.5 3 1.5 6l1 4q82 63 158 129q91 80 110 80q7 -1 5 -28.5t-7 -34.5q-10 -18 -126 -86.5t-142 -73.5q-1 1 -0.5 4z" />
<glyph unicode="&#xee;" horiz-adv-x="393" d="M66 227q-3 20 10 35q132 163 223 293q100 14 127 35q12 12 17 2q3 -9 -5 -19q-8 -9 -22.5 -33t-34 -61t-37 -70.5t-41 -78.5t-35.5 -68q-69 -131 -69 -180q0 -12 7.5 -20.5t20.5 -8.5q63 0 230 197l45 51q4 -4 4 -14q-4 -18 -27 -51q-41 -52 -71 -85.5t-75.5 -74.5 t-94 -61.5t-99.5 -20.5q-47 0 -47 39q0 19 10.5 51.5t19.5 52.5t29 62t21 43l104 221q-41 -44 -103 -118.5t-93 -115.5q-12 -17 -14 -2zM211 700q140 93 231 172h25q49 -81 139 -143q27 -16 37 -16v-6q-10 -3 -43 -19q-5 -5 -15 -1.5t-16.5 6t-17 10t-16 12t-13 11t-8.5 7.5 q-37 32 -80 86q0 6 -12 0q-23 -21 -88.5 -65t-93.5 -54q-11 -4 -29 0z" />
<glyph unicode="&#xef;" horiz-adv-x="393" d="M66 227q-3 20 10 35q132 163 223 293q100 14 127 35q12 12 17 2q3 -9 -5 -19q-8 -9 -22.5 -33t-34 -61t-37 -70.5t-41 -78.5t-35.5 -68q-69 -131 -69 -180q0 -12 7.5 -20.5t20.5 -8.5q63 0 230 197l45 51q4 -4 4 -14q-4 -18 -27 -51q-41 -52 -71 -85.5t-75.5 -74.5 t-94 -61.5t-99.5 -20.5q-47 0 -47 39q0 19 10.5 51.5t19.5 52.5t29 62t21 43l104 221q-41 -44 -103 -118.5t-93 -115.5q-12 -17 -14 -2zM229 801q-3 4 36 30t44 23q2 -1 10.5 -6.5t10.5 -6.5l11 -5.5t11.5 -4.5t12 -2.5t12.5 0.5q17 4 16 -6q0 -8 -12 -20q-5 -4 -15 -12.5 t-16.5 -13.5t-15 -11t-16.5 -8.5t-15 -1.5q-40 3 -74 45zM467 801q-3 4 36 30t44 23q3 -2 10.5 -6.5t10.5 -6t11 -6t11 -4.5t11.5 -2t12.5 0q17 4 16 -6q0 -8 -12 -20q-4 -3 -18 -15t-21 -17.5t-18 -10.5t-20 -4q-40 3 -74 45z" />
<glyph unicode="&#xf0;" horiz-adv-x="675" d="M6 41q0 10 2 14q13 115 94.5 246.5t178.5 204.5q20 15 42 25.5t36.5 16t43 8.5t37 3.5t46.5 0t46 -0.5q33 73 46.5 177t1.5 198q-111 -61 -154 -92q-2 -2 -2 7q0 37 15 70q5 10 10 13q33 8 120 53q-30 136 -120 172q-36 14 -12 31q11 7 30 12q18 4 41 -1t49.5 -22 t51.5 -56.5t40 -96.5q33 19 81 48t65 38q3 2 3 -7q1 -32 -15 -65q-6 -12 -11 -14q-18 -9 -57 -25t-56 -24q11 -71 11 -135q0 -208 -96 -401.5t-287 -344.5q-131 -98 -215 -98q-22 0 -44 13.5t-22 31.5zM111 90q0 -24 16 -24q31 0 95.5 44.5t129 107.5t113.5 139.5t49 131.5 q0 39 -47 39q-74 0 -159.5 -77.5t-141 -181.5t-55.5 -179z" />
<glyph unicode="&#xf1;" horiz-adv-x="675" d="M66 227q-3 20 10 35q132 163 223 293q100 14 127 35q12 12 17 2q3 -9 -5 -19q-21 -24 -168 -297q33 42 109 123q47 49 119.5 103t119.5 61q62 10 70.5 -20t-24.5 -76q-42 -62 -109.5 -197.5t-67.5 -179.5q0 -12 8.5 -20.5t20.5 -8.5q24 0 54.5 18.5t68.5 57.5t67 73 t76 91q14 -19 -22 -65q-36 -49 -92.5 -112.5t-94.5 -92.5q-63 -47 -118 -47q-133 0 -2 258q75 143 110 225q19 41 -22 19q-51 -28 -130 -101l-12 -12q-141 -147 -227 -377q-18 -1 -72 -22q-22 -8 -22 1q0 4 4 13q18 38 39 90q22 54 59 146.5t63 158.5t33 80 q-41 -44 -103 -118.5t-93 -115.5q-12 -17 -14 -2zM399 733q10 32 41 60t64 28q32 0 83 -21t95 -24q8 -3 18 -0.5t15.5 2.5t13 5t11 7t9 8t7 8t5.5 8t5 7h20q-12 -42 -39.5 -72t-54.5 -30q-42 0 -107 25.5t-100 25.5q-45 0 -61 -37h-25z" />
<glyph unicode="&#xf2;" horiz-adv-x="542" d="M18 68q0 114 113 272q74 103 174 162q38 24 93 45.5t91 21.5t59 -19.5t23 -60.5q0 -110 -110 -270q-44 -58 -78 -90q136 0 250 152q8 10 9 -6q1 -18 -7 -29q-51 -72 -122 -113.5t-153 -30.5q-115 -106 -258 -106q-84 0 -84 72zM119 59q8 -33 38.5 -29t61 21.5t51.5 38.5 q63 65 117 156q96 160 86 262q-6 50 -79 17q-46 -21 -75 -52q-65 -68 -116 -156q-104 -175 -84 -258zM345 880.5q-2 27.5 5 28.5q20 0 111 -80q83 -72 157 -129q0 -1 0.5 -2t1.5 -5t1 -5v-2q-26 5 -142.5 73.5t-126.5 86.5q-5 7 -7 34.5z" />
<glyph unicode="&#xf3;" horiz-adv-x="542" d="M18 68q0 114 113 272q74 103 174 162q38 24 93 45.5t91 21.5t59 -19.5t23 -60.5q0 -110 -110 -270q-44 -58 -78 -90q136 0 250 152q8 10 9 -6q1 -18 -7 -29q-51 -72 -122 -113.5t-153 -30.5q-115 -106 -258 -106q-84 0 -84 72zM119 59q8 -33 38.5 -29t61 21.5t51.5 38.5 q63 65 117 156q96 160 86 262q-6 50 -79 17q-46 -21 -75 -52q-65 -68 -116 -156q-104 -175 -84 -258zM501.5 690q0.5 3 1.5 6l1 4q82 63 158 129q91 80 110 80q7 -1 5 -28.5t-7 -34.5q-10 -18 -126 -86.5t-142 -73.5q-1 1 -0.5 4z" />
<glyph unicode="&#xf4;" horiz-adv-x="542" d="M18 68q0 114 113 272q74 103 174 162q38 24 93 45.5t91 21.5t59 -19.5t23 -60.5q0 -110 -110 -270q-44 -58 -78 -90q136 0 250 152q8 10 9 -6q1 -18 -7 -29q-51 -72 -122 -113.5t-153 -30.5q-115 -106 -258 -106q-84 0 -84 72zM119 59q8 -33 38.5 -29t61 21.5t51.5 38.5 q63 65 117 156q96 160 86 262q-6 50 -79 17q-46 -21 -75 -52q-65 -68 -116 -156q-104 -175 -84 -258zM324 700q140 93 231 172h25q49 -81 139 -143q27 -16 37 -16v-6q-10 -3 -43 -19q-5 -5 -15 -1.5t-16.5 6t-17 10t-16 12t-13 11t-8.5 7.5q-37 32 -80 86q0 6 -12 0 q-22 -21 -88.5 -65t-94.5 -54q-11 -4 -28 0z" />
<glyph unicode="&#xf5;" horiz-adv-x="542" d="M18 68q0 114 113 272q74 103 174 162q38 24 93 45.5t91 21.5t59 -19.5t23 -60.5q0 -110 -110 -270q-44 -58 -78 -90q136 0 250 152q8 10 9 -6q1 -18 -7 -29q-51 -72 -122 -113.5t-153 -30.5q-115 -106 -258 -106q-84 0 -84 72zM119 59q8 -33 38.5 -29t61 21.5t51.5 38.5 q63 65 117 156q96 160 86 262q-6 50 -79 17q-46 -21 -75 -52q-65 -68 -116 -156q-104 -175 -84 -258zM365 733q10 32 40.5 60t63.5 28q32 0 83 -21t95 -24q8 -3 18 -0.5t15.5 2.5t13 5t11 7t9 8t7 8t5.5 8t5 7h21q-12 -42 -40 -72t-55 -30q-42 0 -106.5 25.5t-99.5 25.5 q-46 0 -62 -37h-24z" />
<glyph unicode="&#xf6;" horiz-adv-x="542" d="M18 68q0 114 113 272q74 103 174 162q38 24 93 45.5t91 21.5t59 -19.5t23 -60.5q0 -110 -110 -270q-44 -58 -78 -90q136 0 250 152q8 10 9 -6q1 -18 -7 -29q-51 -72 -122 -113.5t-153 -30.5q-115 -106 -258 -106q-84 0 -84 72zM119 59q8 -33 38.5 -29t61 21.5t51.5 38.5 q63 65 117 156q96 160 86 262q-6 50 -79 17q-46 -21 -75 -52q-65 -68 -116 -156q-104 -175 -84 -258zM381 801q-3 4 36 30t44 23q3 -2 10.5 -6.5t10.5 -6t11 -6t11 -4.5t11.5 -2t12.5 0q17 4 16 -6q0 -8 -12 -20q-4 -3 -18 -15t-21 -17.5t-18 -10.5t-20 -4q-40 3 -74 45z M618 801q-3 4 36 30t44 23q2 -1 10.5 -6.5t10.5 -6.5l11 -5.5t11.5 -4.5t12 -2.5t12.5 0.5q17 4 16 -6q0 -8 -12 -20q-5 -4 -15 -12.5t-16.5 -13.5t-15 -11t-16.5 -8.5t-15 -1.5q-40 3 -74 45z" />
<glyph unicode="&#xf7;" horiz-adv-x="573" d="M27 287q-11 -2 18 30q32 36 47 35q21 -4 258 -10q169 0 334 6q5 0 -7.5 -16t-31 -32t-27.5 -15q-245 10 -274 10q-227 0 -317 -8zM215 76q-3 3 15.5 17t39 26.5t23.5 11.5q3 -2 10.5 -6.5t10.5 -6t11 -6t11 -4.5t11.5 -2t12.5 0q16 2 18.5 -4.5t-13.5 -21.5 q-53 -49 -76 -49q-36 2 -74 45zM362 588q-3 3 15.5 17t39 26.5t23.5 11.5q2 -1 10.5 -6.5t10.5 -6.5l11 -5.5t11.5 -4.5t12 -2.5t12.5 0.5q10 2 15 -0.5t2.5 -9t-13.5 -16.5q-5 -4 -15 -12.5t-16.5 -13.5t-15 -11t-16.5 -8.5t-15 -1.5q-34 0 -72 43z" />
<glyph unicode="&#xf8;" horiz-adv-x="542" d="M18 68q0 114 113 272q74 103 174 162q73 44 141 61l41 60q5 7 47 3q11 -1 11 -3q-18 -22 -39 -56q29 -3 47 -22.5t18 -55.5q0 -110 -110 -270q-44 -58 -78 -90q136 0 250 152q8 10 9 -6q1 -18 -7 -29q-51 -72 -122 -113.5t-153 -30.5q-105 -95 -227 -104l-27 -45 q-4 -10 -24 -7q-10 2 -10 7l24 43q-37 2 -57.5 17.5t-20.5 54.5zM119 59q0 -8 6 -14q173 295 303 492q-27 -6 -60 -26t-49 -38q-65 -68 -116 -156q-104 -175 -84 -258zM154 31q25 -1 59.5 18t56.5 41q63 65 117 156q96 160 86 262q0 1 -1 4t-1 4q-153 -223 -317 -485z" />
<glyph unicode="&#xf9;" horiz-adv-x="804" d="M66 227q-3 20 10 35q84 114 147 184q4 4 22 24t24 26.5t22.5 21.5t28 21.5t28 14t33.5 9.5q42 7 58.5 -5.5t11.5 -35t-25 -55.5q-43 -64 -113.5 -202.5t-70.5 -182.5q0 -12 8 -20.5t20 -8.5q39 0 123 80q129 123 266 385q1 1 5.5 11.5t9.5 15.5t12 6h27.5t53 4t48.5 14 q9 4 10 -5q1 -15 -22 -24l-4 -1q-40 -13 -96.5 -109t-93.5 -201.5t-27 -146.5q7 -29 28 -29q38 0 121 66t137 131q10 11 25.5 31t17.5 22q7 -14 7 -16q-4 -22 -29 -51q-46 -61 -93.5 -110.5t-115.5 -90.5t-129 -41q-72 0 -72 55q0 36 27 114t49 120q-77 -111 -141 -172 q-121 -117 -230 -117q-49 0 -49 39q0 52 80 209q19 36 48 96.5t38 77.5q31 59 2 47q-18 -8 -53 -39q-81 -76 -170 -195q-12 -17 -14 -2zM421 880.5q-2 27.5 5 28.5q20 0 111 -80q83 -72 157 -129q0 -1 0.5 -2t1.5 -5t0.5 -5t-0.5 -2q-26 5 -142 73.5t-126 86.5q-5 7 -7 34.5 z" />
<glyph unicode="&#xfa;" horiz-adv-x="804" d="M66 227q-3 20 10 35q84 114 147 184q4 4 22 24t24 26.5t22.5 21.5t28 21.5t28 14t33.5 9.5q42 7 58.5 -5.5t11.5 -35t-25 -55.5q-43 -64 -113.5 -202.5t-70.5 -182.5q0 -12 8 -20.5t20 -8.5q39 0 123 80q129 123 266 385q1 1 5.5 11.5t9.5 15.5t12 6h27.5t53 4t48.5 14 q9 4 10 -5q1 -15 -22 -24l-4 -1q-40 -13 -96.5 -109t-93.5 -201.5t-27 -146.5q7 -29 28 -29q38 0 121 66t137 131q10 11 25.5 31t17.5 22q7 -14 7 -16q-4 -22 -29 -51q-46 -61 -93.5 -110.5t-115.5 -90.5t-129 -41q-72 0 -72 55q0 36 27 114t49 120q-77 -111 -141 -172 q-121 -117 -230 -117q-49 0 -49 39q0 52 80 209q19 36 48 96.5t38 77.5q31 59 2 47q-18 -8 -53 -39q-81 -76 -170 -195q-12 -17 -14 -2zM593.5 690q0.5 3 1.5 6l1 4q82 63 158 129q91 80 110 80q7 -1 5 -28.5t-7 -34.5q-10 -18 -126 -86.5t-142 -73.5q-1 1 -0.5 4z" />
<glyph unicode="&#xfb;" horiz-adv-x="804" d="M66 227q-3 20 10 35q84 114 147 184q4 4 22 24t24 26.5t22.5 21.5t28 21.5t28 14t33.5 9.5q42 7 58.5 -5.5t11.5 -35t-25 -55.5q-43 -64 -113.5 -202.5t-70.5 -182.5q0 -12 8 -20.5t20 -8.5q39 0 123 80q129 123 266 385q1 1 5.5 11.5t9.5 15.5t12 6h27.5t53 4t48.5 14 q9 4 10 -5q1 -15 -22 -24l-4 -1q-40 -13 -96.5 -109t-93.5 -201.5t-27 -146.5q7 -29 28 -29q38 0 121 66t137 131q10 11 25.5 31t17.5 22q7 -14 7 -16q-4 -22 -29 -51q-46 -61 -93.5 -110.5t-115.5 -90.5t-129 -41q-72 0 -72 55q0 36 27 114t49 120q-77 -111 -141 -172 q-121 -117 -230 -117q-49 0 -49 39q0 52 80 209q19 36 48 96.5t38 77.5q31 59 2 47q-18 -8 -53 -39q-81 -76 -170 -195q-12 -17 -14 -2zM434 700q144 96 232 172h24q49 -81 139 -143q27 -16 37 -16v-6q-10 -3 -43 -19q-5 -5 -15 -1.5t-16.5 6t-17 10t-16 12t-13 11t-8.5 7.5 q-37 32 -80 86q0 6 -12 0q-23 -21 -88.5 -65t-93.5 -54q-11 -4 -29 0z" />
<glyph unicode="&#xfc;" horiz-adv-x="804" d="M66 227q-3 20 10 35q84 114 147 184q4 4 22 24t24 26.5t22.5 21.5t28 21.5t28 14t33.5 9.5q42 7 58.5 -5.5t11.5 -35t-25 -55.5q-43 -64 -113.5 -202.5t-70.5 -182.5q0 -12 8 -20.5t20 -8.5q39 0 123 80q129 123 266 385q1 1 5.5 11.5t9.5 15.5t12 6h27.5t53 4t48.5 14 q9 4 10 -5q1 -15 -22 -24l-4 -1q-40 -13 -96.5 -109t-93.5 -201.5t-27 -146.5q7 -29 28 -29q38 0 121 66t137 131q10 11 25.5 31t17.5 22q7 -14 7 -16q-4 -22 -29 -51q-46 -61 -93.5 -110.5t-115.5 -90.5t-129 -41q-72 0 -72 55q0 36 27 114t49 120q-77 -111 -141 -172 q-121 -117 -230 -117q-49 0 -49 39q0 52 80 209q19 36 48 96.5t38 77.5q31 59 2 47q-18 -8 -53 -39q-81 -76 -170 -195q-12 -17 -14 -2zM442 801q-3 4 36 30t44 23q2 -1 10.5 -6.5t10.5 -6.5l11 -5.5t11.5 -4.5t12 -2.5t12.5 0.5q17 4 16 -6q0 -8 -12 -20q-5 -4 -15 -12.5 t-16.5 -13.5t-15 -11t-16.5 -8.5t-15 -1.5q-40 3 -74 45zM680 801q-3 4 36 30t44 23q3 -2 10.5 -6.5t10.5 -6t11 -6t11 -4.5t11.5 -2t12.5 0q17 4 16 -6q0 -8 -12 -20q-4 -3 -18 -15t-21 -17.5t-18 -10.5t-20 -4q-40 3 -74 45z" />
<glyph unicode="&#xfd;" horiz-adv-x="704" d="M-420.5 -435q0.5 5 1 12.5t2 12t4 9.5t7.5 7.5t11 2.5q4 0 4 -4q0 -8 -2 -25t-2 -26q0 -92 58.5 -142.5t152.5 -50.5q68 0 149 31q92 40 171.5 108t143 158.5t110 177.5t95.5 199q50 120 105 284q-34 -47 -88 -111.5t-88 -96.5q-121 -117 -230 -117q-49 0 -49 39 q0 52 80 209q19 36 48 96.5t38 77.5q31 59 2 47q-18 -8 -53 -39q-81 -76 -170 -195q-12 -17 -14 -2q-3 20 10 35q84 114 147 184q4 4 22 24t24 26.5t22.5 21.5t28 21.5t28 14t33.5 9.5q42 7 58.5 -5.5t11.5 -35t-25 -55.5q-43 -64 -113.5 -202.5t-70.5 -182.5q0 -12 8 -20.5 t20 -8.5q39 0 123 80q107 101 197 260q1 2 10.5 18.5t17.5 29t18.5 29t20 27t15.5 13.5q2 1 15 8.5t25.5 14.5t30 14t31.5 10q66 16 66 -6q0 -7 -6 -11.5t-13 -4.5q-42 0 -69 -39q-51 -74 -277 -613q-33 -78 -64 -140t-74.5 -131.5t-89.5 -122t-106.5 -99.5t-128.5 -76 q-73 -31 -153 -31q-82 0 -153 37.5t-105 108.5q-21 46 -21 114q0 2 -0.5 9.5t0 12.5zM603.5 690q0.5 3 1.5 6l1 4q82 63 158 129q91 80 110 80q7 -1 5 -28.5t-7 -34.5q-10 -18 -126 -86.5t-142 -73.5q-1 1 -0.5 4z" />
<glyph unicode="&#xfe;" horiz-adv-x="745" d="M-427 -664q-1 8 9 19q63 74 200 328.5t218 429.5q187 404 324 637q188 321 362 442q33 27 131 33q67 3 67 -9q-1 -11 -65 -27q-1 -1 -2 -1q-59 -15 -130.5 -79.5t-137 -153.5t-132 -199t-117.5 -210t-93 -194q-2 -8 2 -8q1 0 22.5 22t56 53.5t74 62.5t83.5 53t77 22 q35 0 35 -49v-19q-11 -78 -53.5 -166t-104 -164t-144.5 -126.5t-165 -50.5q-26 0 -53 6q-7 -15 -39.5 -84.5t-51 -107.5t-53.5 -109t-62 -120t-62 -107t-66 -101q-21 -28 -78 -36q-49 -7 -52 13zM78 57q0 -41 45 -41q29 0 65.5 22.5t63.5 49.5q54 48 129.5 180t75.5 193 q0 26 -19 26q-30 0 -100 -65.5t-113 -116.5q-49 -56 -98 -130.5t-49 -117.5z" />
<glyph unicode="&#xff;" horiz-adv-x="704" d="M-420.5 -435q0.5 5 1 12.5t2 12t4 9.5t7.5 7.5t11 2.5q4 0 4 -4q0 -8 -2 -25t-2 -26q0 -92 58.5 -142.5t152.5 -50.5q68 0 149 31q92 40 171.5 108t143 158.5t110 177.5t95.5 199q50 120 105 284q-34 -47 -88 -111.5t-88 -96.5q-121 -117 -230 -117q-49 0 -49 39 q0 52 80 209q19 36 48 96.5t38 77.5q31 59 2 47q-18 -8 -53 -39q-81 -76 -170 -195q-12 -17 -14 -2q-3 20 10 35q84 114 147 184q4 4 22 24t24 26.5t22.5 21.5t28 21.5t28 14t33.5 9.5q42 7 58.5 -5.5t11.5 -35t-25 -55.5q-43 -64 -113.5 -202.5t-70.5 -182.5q0 -12 8 -20.5 t20 -8.5q39 0 123 80q107 101 197 260q1 2 10.5 18.5t17.5 29t18.5 29t20 27t15.5 13.5q2 1 15 8.5t25.5 14.5t30 14t31.5 10q66 16 66 -6q0 -7 -6 -11.5t-13 -4.5q-42 0 -69 -39q-51 -74 -277 -613q-33 -78 -64 -140t-74.5 -131.5t-89.5 -122t-106.5 -99.5t-128.5 -76 q-73 -31 -153 -31q-82 0 -153 37.5t-105 108.5q-21 46 -21 114q0 2 -0.5 9.5t0 12.5zM451 801q-3 4 35.5 30t43.5 23q2 -1 10.5 -6.5t10.5 -6.5l11 -5.5t11.5 -4.5t12 -2.5t12.5 0.5q17 4 16 -6q0 -8 -12 -20q-5 -4 -15 -12.5t-16.5 -13.5t-15 -11t-16.5 -8.5t-15 -1.5 q-39 3 -73 45zM688 801q-3 4 36 30t44 23q2 -1 10.5 -6.5t10.5 -6.5l11 -5.5t11.5 -4.5t12 -2.5t12.5 0.5q17 4 16 -6q0 -8 -12 -20q-5 -4 -15 -12.5t-16.5 -13.5t-15 -11t-16.5 -8.5t-15 -1.5q-40 3 -74 45z" />
<glyph unicode="&#x152;" horiz-adv-x="1863" d="M14 299q0 61 17 134.5t52.5 154t85.5 158.5t121 148.5t154 124t189.5 85t222.5 31.5q210 0 322.5 -58.5t140.5 -181.5q63 110 108 184q-3 0 -47.5 -1t-70.5 -5q-29 -4 -42 13q-12 16 10 24q13 5 34 4q87 -3 299 3t299 -1q41 -2 63 -16.5t27 -31t-4.5 -48t-18 -48.5 t-27.5 -51q-8 -15 -12 -22q-11 -21 -31 -25q-11 -2 -11 8q0 2 1 5q37 161 -53 190q-44 14 -219 6q-83 -6 -111 -43q-32 -45 -68.5 -103.5t-59 -96.5t-65.5 -113t-56 -98q-9 -23 16 -23q31 0 142 -1.5t159 -0.5q119 9 154 27q19 11 17 -4q-1 -23 -33 -53t-66 -31 q-65 0 -192 4.5t-222 1.5q-21 -3 -29 -17q-12 -22 -34 -65.5t-39 -73.5q-101 -193 -101 -264q0 -109 205 -113q427 0 629 256q8 11 13 -5q5 -12 -1 -19q-13 -16 -41 -51.5t-42 -53t-38.5 -45t-41.5 -42.5t-38.5 -29.5t-40.5 -20.5q-73 -22 -252.5 -28.5t-365.5 12.5 q-79 8 -116 27t-36 59q-191 -101 -395 -101q-461 0 -461 324zM123 281q0 -134 79.5 -204.5t256.5 -70.5q252 0 461 193q172 305 276 485q14 66 14 145q0 133 -83 204t-267 71q-105 0 -216 -54.5t-202 -144.5t-164 -197t-114 -220t-41 -207z" />
<glyph unicode="&#x153;" horiz-adv-x="851" d="M18 68q0 114 113 272q74 103 174 162q38 24 93 45.5t91 21.5t59 -19.5t23 -60.5q0 -12 -4 -40q56 53 119.5 85.5t120.5 32.5q108 0 92 -112q-6 -39 -29 -70t-61 -53.5t-69 -35.5t-76 -28q-82 -24 -150 -24q-11 -30 -18.5 -56.5t-11 -52.5t-1 -46t13 -35t29 -21.5t49.5 -4 t72 16.5q81 26 166.5 102t140.5 148q7 -7 6.5 -15t-3.5 -14t-11 -18q-76 -104 -188.5 -184t-229.5 -80q-89 0 -122.5 35.5t-26.5 97.5q-124 -121 -277 -121q-84 0 -84 72zM119 59q8 -33 38.5 -29t61 21.5t51.5 38.5q63 65 117 156q96 160 86 262q-6 50 -79 17 q-46 -21 -75 -52q-65 -68 -116 -156q-104 -175 -84 -258zM530 285q69 -4 127 14q103 31 144 113q29 59 9 98q-12 22 -36 22q-132 -2 -244 -247z" />
<glyph unicode="&#x178;" horiz-adv-x="925" d="M16 182q0 29 10 29q8 -4 11 -18q0 -93 47 -144t123 -51q210 0 430 317q-25 -14 -41 -14q-11 0 -16.5 3t-4.5 13q0 2 2 6t4 9.5t3 7.5l22 70q19 71 31.5 153t18 179t-13.5 184t-62 137h-50q-27 0 -53 -1.5t-67.5 -6t-74.5 -15.5t-64 -27.5t-47 -44t-13 -63.5q3 -34 25 -78 l-21 -16q-5 9 -22 36.5t-27.5 46t-21 39.5t-11.5 32q-5 74 35 110q27 23 83.5 33t104 9.5t115 -4t84.5 -3.5q146 2 328 2l-43 -53q-72 0 -224 4q63 -43 95 -126t32 -180.5t-12 -182.5t-33 -160q15 21 155 231t226 309q31 35 48 54t55 55.5t67.5 56.5t68.5 36t73 15 q55 -3 79 -55q8 -17 9.5 -34.5t-2.5 -35.5t-7.5 -29.5t-11 -27.5t-8.5 -18q-4 -10 -13 -7q-4 2 -3 7q13 50 -7 92t-65 45q-98 3 -258 -182q-94 -109 -176 -226t-129.5 -195.5t-137.5 -233.5q-20 -34 -30 -52q-29 -50 -57 -90.5t-65 -81t-76.5 -67t-89 -43.5t-103.5 -17 q-66 0 -122.5 37.5t-84.5 108.5q-17 43 -17 116zM793 1376q-3 4 35.5 30.5t43.5 23.5q2 -1 10.5 -6.5t10.5 -6.5l11 -5.5t11.5 -4.5t12 -2.5t12.5 0.5q18 4 16 -7q-1 -9 -12 -20q-5 -4 -15 -12.5t-16.5 -13.5t-15 -11t-16.5 -8.5t-15 -1.5q-39 3 -73 45zM1030 1376 q-3 4 36 30.5t44 23.5q2 -1 10.5 -6.5t10.5 -6.5l11 -5.5t11.5 -4.5t12 -2.5t12.5 0.5q18 4 16 -7q-1 -9 -12 -20q-5 -4 -15 -12.5t-16.5 -13.5t-15 -11t-16.5 -8.5t-15 -1.5q-40 3 -74 45z" />
<glyph unicode="&#x2c6;" horiz-adv-x="577" d="M125 700q140 93 231 172h25q49 -81 139 -143q27 -16 37 -16v-6q-10 -3 -43 -19q-5 -5 -15 -1.5t-16.5 6t-17 10t-16 12t-13 11t-8.5 7.5q-37 32 -80 86q0 6 -12 0q-23 -21 -88.5 -65t-93.5 -54q-11 -4 -29 0z" />
<glyph unicode="&#x2dc;" horiz-adv-x="567" d="M158 733q10 32 40.5 60t63.5 28q32 0 83 -21t95 -24q8 -3 18 -0.5t15.5 2.5t13 5t11 7t9 8t7 8t5.5 8t5 7h21q-12 -42 -39.5 -72t-54.5 -30q-42 0 -107 25.5t-100 25.5q-46 0 -62 -37h-24z" />
<glyph unicode="&#x2000;" horiz-adv-x="744" />
<glyph unicode="&#x2001;" horiz-adv-x="1489" />
<glyph unicode="&#x2002;" horiz-adv-x="744" />
<glyph unicode="&#x2003;" horiz-adv-x="1489" />
<glyph unicode="&#x2004;" horiz-adv-x="496" />
<glyph unicode="&#x2005;" horiz-adv-x="372" />
<glyph unicode="&#x2006;" horiz-adv-x="248" />
<glyph unicode="&#x2007;" horiz-adv-x="248" />
<glyph unicode="&#x2008;" horiz-adv-x="186" />
<glyph unicode="&#x2009;" horiz-adv-x="297" />
<glyph unicode="&#x200a;" horiz-adv-x="82" />
<glyph unicode="&#x2010;" horiz-adv-x="509" d="M156 297q-8 -2 15 28q21 28 30 27q18 -3 133 -8q51 0 162 6q4 0 -4.5 -14t-21.5 -28t-19 -13l-45 4q-44 4 -76 4q-113 0 -174 -6z" />
<glyph unicode="&#x2011;" horiz-adv-x="509" d="M156 297q-8 -2 15 28q21 28 30 27q18 -3 133 -8q51 0 162 6q4 0 -4.5 -14t-21.5 -28t-19 -13l-45 4q-44 4 -76 4q-113 0 -174 -6z" />
<glyph unicode="&#x2012;" horiz-adv-x="509" d="M156 297q-8 -2 15 28q21 28 30 27q18 -3 133 -8q51 0 162 6q4 0 -4.5 -14t-21.5 -28t-19 -13l-45 4q-44 4 -76 4q-113 0 -174 -6z" />
<glyph unicode="&#x2013;" horiz-adv-x="686" d="M164 297q-9 -2 16 27q26 29 37 28q16 -3 51.5 -4.5t86.5 -2t67 -1.5q131 0 266 6q4 0 -6 -14t-25 -28t-22 -13q-156 8 -217 8q-182 0 -254 -6z" />
<glyph unicode="&#x2014;" horiz-adv-x="1048" d="M154 293q-9 -2 16 27q26 29 37 28q47 -8 399 -8q322 0 457 6q8 0 -15 -27q-25 -29 -38 -28q-21 1 -200.5 4t-207.5 4q-340 0 -448 -6z" />
<glyph unicode="&#x2018;" horiz-adv-x="344" d="M152 1008q31 135 167 231l29 16l-4 -16q-3 -12 -16 -22q-78 -67 -95 -150q-5 -25 10.5 -46.5t41.5 -25.5l-9 -22q-15 -2 -55 -29q-3 -2 -10 -9t-12 -10.5t-9 -2.5q-56 8 -38 86z" />
<glyph unicode="&#x2019;" horiz-adv-x="344" d="M348 922l4 16q3 13 17 23q77 66 94 149q4 26 -10.5 46.5t-40.5 25.5l8 22q20 6 55 29q3 2 10 9t12 10.5t9 2.5q57 -8 39 -86q-31 -134 -166 -231z" />
<glyph unicode="&#x201a;" horiz-adv-x="399" d="M178 -122q0 5 2 11q36 92 76 275q-1 20 62 54q62 33 74 23q2 -1 1 -5q-12 -34 -34.5 -83t-38 -79t-50.5 -95t-41 -77q-18 -32 -40 -35q-11 -1 -11 11z" />
<glyph unicode="&#x201c;" horiz-adv-x="604" d="M201 1006q27 134 166 231l30 16l-4 -16q-4 -13 -16 -23q-77 -67 -94 -149q-5 -25 10 -46.5t41 -25.5l-8 -22q-10 -1 -29 -10.5t-27 -16.5q-5 -3 -11 -9.5t-11 -10.5t-8 -4q-57 8 -39 86zM412 1006q32 138 168 231l28 16l-4 -16q-4 -13 -16 -23q-77 -67 -94 -149 q-5 -25 10 -46.5t41 -25.5l-8 -22q-20 -3 -56 -27l-9.5 -9.5t-11.5 -10.5t-9 -4q-57 8 -39 86z" />
<glyph unicode="&#x201d;" horiz-adv-x="344" d="M348 922l4 16q3 13 17 23q77 66 94 149q4 26 -10.5 46.5t-40.5 25.5l8 22q20 6 55 29q3 2 10 9t12 10.5t9 2.5q57 -8 39 -86q-31 -134 -166 -231zM559 922l4 16q3 13 17 23q77 66 94 149q6 26 -9 46.5t-42 25.5l8 22q29 8 55 29q4 3 11.5 9.5t12 10t7.5 2.5q57 -8 39 -86 q-27 -130 -166 -231z" />
<glyph unicode="&#x201e;" horiz-adv-x="647" d="M178 -122q0 5 2 11q36 92 76 275q-1 20 62 54q62 33 74 23q2 -1 1 -5q-12 -34 -34.5 -83t-38 -79t-50.5 -95t-41 -77q-18 -32 -40 -35q-11 -1 -11 11zM385 -122q0 5 2 11q36 92 76 275q-1 20 62 54q62 33 74 23q2 -1 1 -5q-12 -34 -34.5 -83t-38 -79t-50.5 -95t-41 -77 q-18 -32 -40 -35q-11 -1 -11 11z" />
<glyph unicode="&#x2022;" horiz-adv-x="972" d="M100 582q28 160 171.5 272.5t318.5 112.5q114 0 202 -51.5t129 -140t23 -193.5q-28 -159 -170.5 -271t-316.5 -112q-115 0 -203.5 51.5t-130 139.5t-23.5 192z" />
<glyph unicode="&#x2026;" horiz-adv-x="942" d="M68 33q-3 4 35.5 30t43.5 23q2 -1 10.5 -6.5t10.5 -6.5l11 -5.5t11.5 -4.5t12 -2.5t12.5 0.5q17 4 16 -6q0 -8 -12 -20q-5 -4 -15 -12.5t-16.5 -13.5t-15 -11t-16.5 -8.5t-15 -1.5q-39 3 -73 45zM401 33q-3 4 36 30t44 23q2 -1 10.5 -6.5t10.5 -6.5l11 -5.5t11.5 -4.5 t12 -2.5t12.5 0.5q18 4 17 -6q-1 -8 -13 -20q-5 -4 -15 -12.5t-16.5 -13.5t-15 -11t-16.5 -8.5t-15 -1.5q-40 3 -74 45zM760 33q-2 3 16.5 17t39 26t24.5 10q3 -2 12 -7.5t12.5 -7.5t12.5 -6.5t13.5 -3.5t14.5 0q10 2 15 -0.5t2.5 -9t-13.5 -16.5q-3 -2 -10 -8.5t-11 -10 t-11 -9t-11.5 -8.5t-10.5 -6t-11 -4t-10 -1q-40 3 -74 45z" />
<glyph unicode="&#x202f;" horiz-adv-x="297" />
<glyph unicode="&#x2039;" horiz-adv-x="600" d="M150 319l8 39q137 132 307 351q0 -22 -8 -54q-23 -45 -102 -143.5t-117 -134.5q-8 -11 0 -19q65 -77 106 -155q1 -3 9 -17t14 -25t14.5 -29.5t11.5 -31t5 -29.5t-5 -24q-34 -52 -39 -70h-8q2 30 -16 70q-33 78 -83 153t-97 119z" />
<glyph unicode="&#x203a;" horiz-adv-x="600" d="M127 47q-3 14 8 39t25.5 45t33.5 44.5t21 27.5q58 76 145 155q8 8 0 19q-32 45 -85 140t-62 138q-3 25 4 54q121 -230 223 -351l-4 -39q-58 -44 -126 -119.5t-117 -152.5q-31 -40 -35 -70h-8q0 11 -9.5 37.5t-13.5 32.5z" />
<glyph unicode="&#x205f;" horiz-adv-x="372" />
<glyph unicode="&#x20ac;" horiz-adv-x="1011" d="M43 330q-8 0 17 29q27 31 40 30q18 -2 117 -6q10 48 37 113l-94 -7q-8 0 17 30q27 32 40 30q2 0 64 -4q70 124 196 221q70 53 172.5 88t190.5 35q76 0 139 -27q76 -39 63 -96q-3 -15 -28 -56t-31 -63q-4 -8 -23 -11q-7 0 -6 3q21 34 22.5 86.5t-18.5 85.5 q-19 32 -64 41.5t-88 2.5t-81 -21q-88 -32 -160 -95q-105 -91 -168 -196h129q50 0 162.5 2t130.5 2q9 0 -19 -31q-26 -29 -38 -29q-57 6 -242 11q-88 0 -147 -2q-31 -60 -45 -113l82 -2q148 0 295 6q8 0 -18 -29q-27 -31 -40 -30q-86 8 -241 8h-89q-15 -102 22 -178 t122 -103q134 -40 282.5 39t237.5 211q11 15 18 0q4 -11 0 -18q-99 -158 -260 -237.5t-333 -39.5q-109 27 -160 116t-37 210z" />
<glyph unicode="&#x2122;" horiz-adv-x="1736" d="M497 1102q-4 23 24 32l24 3h524q15 0 11 -13q-6 -21 -41 -27q-2 -1 -5 -1q-24 -3 -85.5 -5.5t-102 -8t-45.5 -17.5q-34 -71 -97 -262.5t-65 -196.5q-2 -6 -26.5 -11t-44 -4.5t-21.5 5.5q30 69 160 397q8 15 17 45.5t9 48.5q-11 1 -22 1t-20 -0.5t-11 -0.5q-8 3 -82 0.5 t-82 -2.5q-15 0 -19 17zM943 588q1 1 1 2q7 13 75 186.5t79 212.5q12 36 2 133q-1 10 17 13t37 0.5t20 -5.5q4 -16 17 -96.5t26 -146t36.5 -130t49.5 -77.5q22 9 50 38t66 84.5t57.5 86.5t61.5 100q1 1 32 60.5t42 76.5q7 6 20 3t25.5 -12t9.5 -15q-24 -54 -42 -210.5 t-23 -260.5q-1 -13 -24 -22t-42 -9q-20 0 -20 16q0 11 2 15q15 56 32 160t27 147q-2 -3 -40 -54t-63 -81.5t-63.5 -73.5t-70.5 -65.5t-56 -22.5q-20 0 -38 12t-32.5 34.5t-25.5 46t-21 56.5t-16 55.5t-13.5 53t-9.5 39.5q-21 -43 -39.5 -105t-35.5 -129t-25 -92 q-3 -12 -46 -26q-42 -14 -39 2z" />
<glyph unicode="&#x25fc;" horiz-adv-x="542" d="M0 0v543h543v-543h-543z" />
<glyph unicode="&#xfb01;" horiz-adv-x="763" d="M-615.5 -328.5q0.5 9.5 1.5 17.5t4.5 19.5t5.5 19t7.5 21.5t8 21t8.5 23t9 23q4 9 11 11t11 -4.5t0 -15.5q-19 -52 -10.5 -94t43 -70.5t79 -42t98 -9t99.5 27.5q87 45 149 120.5t118 180.5q43 81 82 179t82 218.5t71 188.5h-47q-3 0 -45 -6l-4 2q4 20 38.5 38.5 t57.5 18.5h25q32 79 95.5 202t113.5 206q174 284 415 284q28 0 49.5 -16t20.5 -45l-6 -74q0 -6 -10 -6q-4 0 -4 2q-9 50 -62.5 69t-116.5 -3q-60 -20 -112.5 -69.5t-108.5 -147.5q-26 -46 -54.5 -109.5t-72 -167t-53.5 -125.5q34 0 94 -1t92 -0.5t74 2t72.5 6.5t54.5 14 l29 10q14 6 16 0t-8 -17q-23 -26 -168 -311q-72 -130 -72 -180q0 -12 8.5 -20.5t20.5 -8.5q63 0 235 197l43 51q18 -18 -26 -70q-37 -45 -57 -68t-58.5 -61t-68.5 -57.5t-71.5 -35t-82.5 -15.5q-49 0 -49 39q0 19 10.5 51.5t19.5 52.5t29 62t21 43l104 221q15 34 19 61 q-107 -23 -304 -18q-113 -287 -172 -412q-35 -77 -74 -146.5t-96.5 -147.5t-119 -133.5t-141 -92.5t-161.5 -37q-169 0 -206 103q-2 7 -3 14.5t-0.5 17zM816.5 843.5q7.5 23.5 29.5 37.5q23 15 47.5 12.5t36.5 -19.5q12 -19 4.5 -42t-29.5 -37q-23 -15 -47.5 -13t-36.5 19 q-12 19 -4.5 42.5z" />
<glyph unicode="&#xfb02;" horiz-adv-x="806" d="M-615.5 -328.5q0.5 9.5 1.5 17.5t4.5 19.5t5.5 19t7.5 21.5t8 21t8.5 23t9 23q4 9 11 11t11 -4.5t0 -15.5q-19 -52 -10.5 -94t43 -70.5t79 -42t98 -9t99.5 27.5q87 45 149 120.5t118 180.5q43 81 82 179t82 218.5t71 188.5h-47q-3 0 -45 -6l-4 2q4 20 38.5 38.5 t57.5 18.5h25q32 79 95.5 202t113.5 206q174 284 415 284q28 0 49.5 -16t20.5 -45l-2 -33q19 8 85 53t107 45q28 -1 41.5 -22.5t11.5 -46.5t-7 -47q-16 -47 -38 -95t-52 -98t-52.5 -86t-63 -89t-58 -76t-61.5 -77.5t-52 -64.5q-58 -75 -90.5 -115t-85 -97.5t-103.5 -104.5 q-21 -65 -22 -80q-11 -121 102 -103q24 4 53 22.5t63.5 53t55.5 57.5t57 64l43 53q9 -9 5 -16q-2 -22 -27 -51q-39 -54 -105 -123q-124 -124 -223 -117q-154 9 -63 248q39 102 114 248q18 36 78.5 155.5t95 186.5t84 155t84.5 139q-15 41 -65 55.5t-109 -5.5 q-60 -20 -112.5 -69.5t-108.5 -147.5q-26 -46 -54.5 -109.5t-72 -167t-53.5 -125.5h147q42 0 60 4q0 -14 -31 -26q-32 -17 -65 -24.5t-64 -7.5t-70 1q-113 -287 -172 -412q-35 -77 -74 -146.5t-96.5 -147.5t-119 -133.5t-141 -92.5t-161.5 -37q-169 0 -206 103q-2 7 -3 14.5 t-0.5 17zM584 297q94 89 237 283q8 11 49.5 66t57 77t52.5 74t56 85t45.5 80t44 90.5t29.5 86.5q15 52 -1 63t-67 -37q-59 -60 -148 -210t-220.5 -401.5t-134.5 -256.5z" />
<glyph unicode="&#xfb03;" horiz-adv-x="1138" d="M-615.5 -328.5q0.5 9.5 1.5 17.5t4.5 19.5t5.5 19t7.5 21.5t8 21t8.5 23t9 23q4 9 11 11t11 -4.5t0 -15.5q-19 -52 -10.5 -94t43 -70.5t79 -42t98 -9t99.5 27.5q87 45 149 120.5t118 180.5q43 81 82 179t82 218.5t71 188.5q-50 0 -92 -6l-4 2q4 20 38.5 38.5t57.5 18.5 h25q32 79 95.5 202t113.5 206q165 270 436 270q28 0 49 -16t20 -45l-4 -46q127 121 287 121q28 0 49.5 -16t20.5 -45l-6 -74q0 -6 -11 -6q-4 0 -4 2q-9 50 -62 69t-116 -3q-60 -20 -112.5 -69.5t-108.5 -147.5q-19 -34 -46 -91t-44.5 -97t-51 -118.5t-42.5 -99.5 q126 -2 265 10t156 25q12 12 17 2q3 -9 -4 -19q-8 -9 -22.5 -33t-34 -61t-37 -70.5t-41 -78.5t-35.5 -68q-70 -133 -70 -180q0 -12 8 -20.5t21 -8.5q62 0 229 197l45 51q4 -4 4 -14q-4 -20 -26 -51q-41 -52 -71 -85.5t-75.5 -74.5t-94 -61.5t-99.5 -20.5q-47 0 -47 39 q0 19 10.5 51.5t19.5 52.5t29 62t21 43q15 31 63.5 138t54.5 120q1 3 -3.5 5.5t-22.5 4t-50.5 2t-91 -1.5t-139.5 -6q-113 -286 -170 -410q-35 -77 -74 -146.5t-96.5 -147.5t-119 -133.5t-141 -92.5t-161.5 -37q-121 0 -176 55q-93 -55 -197 -55q-169 0 -206 103 q-2 7 -3 14.5t-0.5 17zM-137 -362q51 -41 124.5 -47t145.5 28q87 45 148.5 120t117.5 181q43 81 82 178.5t83 218.5t71 189h-275q-102 -259 -174 -412q-148 -317 -323 -456zM381 559h278q32 79 95.5 202t113.5 206q52 85 111 147q-9 52 -75 73t-132 -7q-58 -24 -106.5 -73 t-104.5 -146q-19 -34 -46 -92t-42 -93t-51.5 -121t-40.5 -96zM1194.5 844q6.5 24 28.5 37q23 15 47.5 12.5t36.5 -19.5q12 -19 5 -42.5t-30 -36.5q-22 -15 -46 -13t-36 19q-12 19 -5.5 43z" />
<glyph unicode="&#xfb04;" horiz-adv-x="1183" d="M-615.5 -328.5q0.5 9.5 1.5 17.5t4.5 19.5t5.5 19t7.5 21.5t8 21t8.5 23t9 23q4 9 11 11t11 -4.5t0 -15.5q-19 -52 -10.5 -94t43 -70.5t79 -42t98 -9t99.5 27.5q87 45 149 120.5t118 180.5q43 81 82 179t82 218.5t71 188.5h-47q-3 0 -45 -6l-4 2q4 20 38.5 38.5 t57.5 18.5h25q32 79 95.5 202t113.5 206q174 284 415 284q28 0 49.5 -16t20.5 -45l-6 -74q0 -6 -10 -6q-4 0 -4 2q-9 50 -62.5 69t-116.5 -3q-60 -20 -112.5 -69.5t-108.5 -147.5q-26 -46 -54.5 -109.5t-72 -167t-53.5 -125.5h276l45 98q76 158 166 310q174 284 416 284 q28 0 49.5 -16t20.5 -45l-4 -37l4 4q23 9 89 53.5t107 44.5q27 -1 40 -22.5t12 -46.5t-9 -47q-16 -47 -37.5 -94.5t-52.5 -98.5t-52 -85.5t-63 -89.5t-57.5 -75.5t-62 -78t-51.5 -64.5q-56 -71 -90.5 -113.5t-85.5 -99.5t-101 -104q-22 -56 -25 -80q-5 -55 19 -84t84 -19 q76 13 231 197l43 53q17 -17 -26 -72q-51 -64 -103 -118q-124 -124 -223 -117q-160 9 -53 268q1 2 10.5 26.5t18 44.5t30.5 65.5t51 99.5q5 10 59.5 119.5t75 149t64 122.5t75 137.5t58.5 95.5q-13 43 -64.5 58.5t-109.5 -4.5q-60 -20 -112.5 -69.5t-108.5 -147.5 q-26 -46 -54.5 -109.5t-72 -167t-53.5 -125.5h147q42 0 60 4q0 -14 -31 -26q-32 -17 -65 -24.5t-64 -7.5t-70 1q-113 -287 -172 -412q-35 -77 -74 -146.5t-96.5 -147.5t-119 -133.5t-141 -92.5t-161.5 -37q-124 0 -176 55q-96 -55 -197 -55q-169 0 -206 103q-2 7 -3 14.5 t-0.5 17zM-137 -362q48 -39 124 -45.5t146 26.5q87 45 148.5 120t117.5 181q39 73 72.5 155t76 200.5t60.5 164.5l25 64q-52 0 -162 1t-113 1q-113 -287 -172 -412q-148 -317 -323 -456zM961 297q106 101 237 283q9 12 50 66.5t57 76.5t52 73.5t56 85t46.5 80.5t44 90.5 t30.5 86.5q13 52 -3 63t-67 -37q-59 -60 -148 -210t-220.5 -401.5t-134.5 -256.5z" />
</font>
</defs>
</svg>
